<?xml version="1.0" encoding="UTF-8" standalone="no"?>
<!-- Created with Inkscape (http://www.inkscape.org/) -->

<svg
   xmlns:dc="http://purl.org/dc/elements/1.1/"
   xmlns:cc="http://creativecommons.org/ns#"
   xmlns:rdf="http://www.w3.org/1999/02/22-rdf-syntax-ns#"
   xmlns:svg="http://www.w3.org/2000/svg"
   xmlns="http://www.w3.org/2000/svg"
   xmlns:sodipodi="http://sodipodi.sourceforge.net/DTD/sodipodi-0.dtd"
   xmlns:inkscape="http://www.inkscape.org/namespaces/inkscape"
   width="109.78069"
   height="81.337662"
   id="svg3182"
   version="1.1"
   inkscape:version="0.48.4 r9939"
   sodipodi:docname="bus.svg"
   viewBox="0 0 109.78 81.33">
  <defs
     id="defs3184" />
  <sodipodi:namedview
     id="base"
     pagecolor="#ffffff"
     bordercolor="#666666"
     borderopacity="1.0"
     inkscape:pageopacity="0.0"
     inkscape:pageshadow="2"
     inkscape:zoom="1.979899"
     inkscape:cx="56.468185"
     inkscape:cy="42.205212"
     inkscape:document-units="px"
     inkscape:current-layer="layer1"
     showgrid="false"
     fit-margin-top="0"
     fit-margin-left="0"
     fit-margin-right="0"
     fit-margin-bottom="0"
     inkscape:window-width="1301"
     inkscape:window-height="744"
     inkscape:window-x="65"
     inkscape:window-y="24"
     inkscape:window-maximized="1" />
  <metadata
     id="metadata3187">
    <rdf:RDF>
      <cc:Work
         rdf:about="">
        <dc:format>image/svg+xml</dc:format>
        <dc:type
           rdf:resource="http://purl.org/dc/dcmitype/StillImage" />
        <dc:title />
      </cc:Work>
    </rdf:RDF>
  </metadata>
  <g
     inkscape:label="Layer 1"
     inkscape:groupmode="layer"
     id="layer1"
     transform="translate(-318.53181,-491.69335)">
    <path
       d="m 422.52565,533.95723 -102.26008,0 0,-17.60379 102.26008,0 0,17.60379 z m -2.72498,14.78744 -18.38006,0 0,-12.07489 18.38006,0 0,12.07489 z m -20.96881,0 -18.38129,0 0,-12.07489 18.38129,0 0,12.07489 z m -20.97125,0 -18.38001,0 0,-12.07489 18.38001,0 0,12.07489 z m -39.35004,-50.41992 18.38001,0 0,12.07367 -18.38001,0 0,-12.07367 z m 20.96875,0 18.38001,0 0,12.07367 -18.38001,0 0,-12.07367 z m 20.97003,0 18.38123,0 0,12.07367 -18.38123,0 0,-12.07367 z m 20.97126,0 18.37872,0 0,12.07367 -18.37872,0 0,-12.07367 z m 12.88,-6.13129 -84.91504,0 c -4.21246,0 -7.83496,2.51746 -9.45252,6.13129 l 16.12378,0 0,12.07367 -17.02502,0 0,26.27136 18.38129,0 0,12.07489 -18.38129,0 0,11.36007 3.12878,0.0112 c 1.24128,-3.76001 4.79377,-6.48248 8.97748,-6.48248 4.21253,0 7.77625,2.7525 8.99878,6.55368 l 1.35748,0.01 0,-22.95752 15.87378,0 0,23.0188 41.42249,0.17749 c 1.13873,-3.92627 4.77246,-6.80249 9.07123,-6.80249 4.32751,0 7.97131,2.90875 9.08002,6.875 l 7.71496,0.0299 0,-57.98999 c 0,-5.72626 -4.62872,-10.35498 -10.3562,-10.35498"
       id="path418"
       inkscape:connector-curvature="0"
       style="fill:#d54425;fill-opacity:0.56888888;fill-rule:nonzero;stroke:#000000;stroke-opacity:0.71372549;display:inline" />
    <path
       d="m 336.05683,498.32475 0,12.07367 -17.02502,0 0,-7.84998 c 0,-1.51001 0.32379,-2.94 0.90125,-4.22369 l 16.12377,0"
       id="path420"
       inkscape:connector-curvature="0"
       style="fill:#ffffff;fill-opacity:1;fill-rule:nonzero;stroke:#000000;stroke-opacity:0.71372549;display:inline" />
    <path
       d="m 413.81563,563.07719 c 0,3.29251 -2.67133,5.95376 -5.9538,5.95376 -3.2937,0 -5.95373,-2.66125 -5.95373,-5.95376 0,-0.94248 0.21624,-1.83371 0.61877,-2.63001 0.96374,-1.96872 2.99377,-3.32498 5.33496,-3.32498 2.34875,0 4.39008,1.3775 5.35382,3.36627 0.39246,0.78626 0.59998,1.66495 0.59998,2.58872"
       id="path422"
       inkscape:connector-curvature="0"
       style="fill:#ffffff;fill-rule:nonzero;stroke:#000000;stroke-opacity:0.71372549;display:inline" />
    <path
       d="m 331.82679,569.03101 c 3.2937,0 5.95373,-2.66128 5.95373,-5.95373 0,-0.94251 -0.21624,-1.83374 -0.61877,-2.63132 -0.96374,-1.96747 -2.99377,-3.3237 -5.33496,-3.3237 -2.34875,0 -4.39008,1.3775 -5.35382,3.36499 -0.39246,0.78754 -0.59998,1.66754 -0.59998,2.59003 0,3.29245 2.67133,5.95373 5.9538,5.95373 m -9.08002,-8.52252 c 1.10871,-3.96625 4.7525,-6.875 9.08002,-6.875 4.29877,0 7.93249,2.8775 9.07123,6.80255 0.24872,0.83875 0.38379,1.71875 0.38379,2.64124 0,5.22876 -4.23511,9.45373 -9.45502,9.45373 -5.21625,0 -9.44257,-4.22497 -9.44257,-9.45373 0,-0.89124 0.12256,-1.75128 0.36255,-2.56879"
       id="path424"
       inkscape:connector-curvature="0"
       style="fill:#182533;fill-opacity:0.43111112;fill-rule:nonzero;stroke:#000000;stroke-opacity:0.71372549;display:inline" />
    <path
       d="m 408.50806,569.03101 c 3.29377,0 5.95374,-2.66128 5.95374,-5.95373 0,-0.94251 -0.21497,-1.83374 -0.61749,-2.63132 -0.96375,-1.96747 -2.995,-3.3237 -5.33625,-3.3237 -2.34997,0 -4.38873,1.3775 -5.35247,3.36499 -0.39252,0.78754 -0.60126,1.66754 -0.60126,2.59003 0,3.29245 2.67126,5.95373 5.95373,5.95373 m -9.08001,-8.52252 c 1.10876,-3.96625 4.75128,-6.875 9.08001,-6.875 4.29749,0 7.9325,2.8775 9.07251,6.80255 0.24872,0.83875 0.38373,1.71875 0.38373,2.64124 0,5.22876 -4.23498,9.45373 -9.45624,9.45373 -5.21753,0 -9.44122,-4.22497 -9.44122,-9.45373 0,-0.89124 0.1225,-1.75128 0.36121,-2.56879"
       id="path426"
       inkscape:connector-curvature="0"
       style="fill:#182533;fill-opacity:0.42666668;fill-rule:nonzero;stroke:#000000;stroke-opacity:0.71372549;display:inline" />
    <path
       d="m 357.36934,537.23976 0,23.02001 -0.60999,0 -15.26502,-0.0613 0,-22.9587 15.87501,0"
       id="path428"
       inkscape:connector-curvature="0"
       style="fill:#182533;fill-opacity:0.42666668;fill-rule:nonzero;stroke:#000000;stroke-opacity:0.71372549;display:inline" />
    <path
       d="m 319.03181,548.74473 18.38135,0 0,-12.07519 -18.38135,0 0,12.07519 z"
       id="path432"
       inkscape:connector-curvature="0"
       style="fill:#ffffff;fill-opacity:1;fill-rule:nonzero;stroke:#000000;stroke-opacity:0.71372549;display:inline" />
    <path
       style="fill:#ffffff;fill-opacity:1;stroke:#000000;stroke-width:0.30240291;stroke-opacity:0.71372549;display:inline"
       d="m 334.36108,567.60247 c 1.69718,-0.97049 2.37256,-2.03306 2.53466,-3.98779 0.16804,-2.02642 -0.26315,-3.18544 -1.63231,-4.38758 -2.59403,-2.27759 -6.11169,-1.67414 -7.99391,1.37136 -0.8759,1.41724 -0.73992,4.08978 0.28105,5.5236 1.48804,2.08974 4.57243,2.7602 6.81051,1.48041 l 0,0 z"
       id="path7606"
       inkscape:connector-curvature="0" />
    <path
       style="fill:#ffffff;fill-opacity:1;stroke:#000000;stroke-width:0.30240291;stroke-opacity:0.71372549;display:inline"
       d="m 410.11995,567.75817 c 2.60521,-1.32843 3.68866,-4.3013 2.47858,-6.80098 -1.56615,-3.23524 -5.2271,-3.97998 -7.71016,-1.56846 -2.01302,1.95502 -2.18855,4.78038 -0.42958,6.91433 1.58652,1.92471 3.68329,2.46366 5.66116,1.45511 z"
       id="path7608"
       inkscape:connector-curvature="0" />
    <path
       d="m 418.35688,552.42545 8.55175,0 c 0.47819,0 0.86804,0.32683 0.86804,0.7301 l 0,2.67102 c 0,0.40322 -0.38985,0.73007 -0.86804,0.73007 l -8.55175,0 c -0.48231,0 -0.87071,-0.32685 -0.87071,-0.73007 l 0,-2.67102 c 0,-0.40327 0.3884,-0.7301 0.87071,-0.7301"
       id="path302"
       inkscape:connector-curvature="0"
       style="fill:#505256;fill-opacity:0.7288895;fill-rule:nonzero;stroke:#000000;stroke-width:1.07165074;stroke-opacity:0.71372549;display:inline" />
  </g>
</svg>
