<?xml version="1.0" encoding="UTF-8" standalone="no"?>
<svg
   xmlns:dc="http://purl.org/dc/elements/1.1/"
   xmlns:cc="http://creativecommons.org/ns#"
   xmlns:rdf="http://www.w3.org/1999/02/22-rdf-syntax-ns#"
   xmlns:svg="http://www.w3.org/2000/svg"
   xmlns="http://www.w3.org/2000/svg"
   xmlns:sodipodi="http://sodipodi.sourceforge.net/DTD/sodipodi-0.dtd"
   xmlns:inkscape="http://www.inkscape.org/namespaces/inkscape"
   width="175"
   height="405"
   id="svg2"
   version="1.1"
   inkscape:version="0.48.4 r9939"
   sodipodi:docname="dont_disturb.svg"
   viewBox="0 0 175 405">
  <metadata
     id="metadata28">
    <rdf:RDF>
      <cc:Work
         rdf:about="">
        <dc:format>image/svg+xml</dc:format>
        <dc:type
           rdf:resource="http://purl.org/dc/dcmitype/StillImage" />
      </cc:Work>
    </rdf:RDF>
  </metadata>
  <defs
     id="defs26" />
  <sodipodi:namedview
     pagecolor="#ffffff"
     bordercolor="#666666"
     borderopacity="1"
     objecttolerance="10"
     gridtolerance="10"
     guidetolerance="10"
     inkscape:pageopacity="0"
     inkscape:pageshadow="2"
     inkscape:window-width="1301"
     inkscape:window-height="744"
     id="namedview24"
     showgrid="false"
     fit-margin-top="0"
     fit-margin-left="0"
     fit-margin-right="0"
     fit-margin-bottom="0"
     inkscape:zoom="0.90909091"
     inkscape:cx="-229.53999"
     inkscape:cy="328.43774"
     inkscape:window-x="65"
     inkscape:window-y="24"
     inkscape:window-maximized="1"
     inkscape:current-layer="svg2" />
  <!-- Created with Method Draw - http://github.com/duopixel/Method-Draw/ -->
  <path
     style="fill:#f9a741;fill-opacity:1;fill-rule:nonzero;stroke:#484a4c;stroke-opacity:1"
     inkscape:connector-curvature="0"
     d="m 88.0575,148.02753 c -33.02124,0 -59.79001,-26.76873 -59.79001,-59.789971 0,-33.0213 26.76876,-59.790042 59.79001,-59.790042 33.02252,0 59.78997,26.768742 59.78997,59.790042 0,33.021241 -26.76745,59.789971 -59.78997,59.789971 M 173.54999,87.126289 C 172.67377,40.753791 134.41748,2.5 87.83252,2.5 40.70749,2.5 2.5,40.707527 2.5,87.837529 c 0,0.56 0.0312,1.11249 0.0425,1.67249 C 2.5312,89.785039 2.5,384.88502 2.5,384.88502 c 0,11.39129 9.31876,20.71002 20.70999,20.71002 l 129.63004,0 c 11.39123,0 20.70996,-9.31873 20.70996,-20.71002 l 0,-294.546271 c 0,-1.41626 0.14502,-0.78497 0,-3.21246"
     id="path84" />
  <g
     id="g86"
     transform="matrix(0.9999999,-4.7015047e-4,-4.7015047e-4,-0.9999999,-327.9137,842.26515)"
     style="fill:#484a4c;fill-opacity:0.90196078">
    <text
       transform="matrix(1,0,0,-1,374.124,499.186)"
       id="svg_3"
       style="fill:#484a4c;fill-opacity:0.90196078">
      <tspan
         style="font-size:25.75149918px;font-weight:bold;fill:#484a4c;fill-opacity:0.90196078;fill-rule:nonzero;font-family:Roboto"
         x="0 17.012215 34.703098 41.064053 59.208183 76.538254"
         y="0"
         id="svg_2"
         font-size="25.7515"
         font-weight="bold">DO NOT</tspan>
    </text>
    <text
       transform="matrix(1,0,0,-1,374.0193,475.304)"
       id="svg_5"
       style="fill:#484a4c;fill-opacity:0.90196078">
      <tspan
         style="font-size:21.81550026px;font-weight:300;fill:#484a4c;fill-opacity:0.90196078;fill-rule:nonzero;font-family:Roboto"
         x="0 14.681831 20.593832 33.745712 46.784348 61.420059 75.651428"
         y="0"
         id="svg_4"
         font-size="21.8155"
         font-weight="300">DISTURB</tspan>
    </text>
    <text
       transform="matrix(0,1,1,0,367.844,474.867)"
       id="svg_7"
       style="fill:#484a4c;fill-opacity:0.90196078">
      <tspan
         style="font-size:15.58250046px;font-weight:normal;fill:#484a4c;fill-opacity:0.90196078;fill-rule:nonzero;font-family:KomikaText"
         x="0 8.2431421 11.702457 19.010651 27.238211 35.34111"
         y="0"
         id="svg_6"
         font-size="15.5825"
         font-weight="normal">please</tspan>
    </text>
  </g>
  <path
     style="fill:#484a4c;fill-opacity:0.90196078;fill-rule:nonzero"
     inkscape:connector-curvature="0"
     d="m 148.93127,244.20124 c 0,24.16626 -28.61877,43.75623 -63.92126,43.75623 -26.47748,0 -49.19623,-11.01996 -58.89999,-26.72498 -3.23374,-5.23376 -5.0225,-10.98999 -5.0225,-17.03125 0,-24.16626 28.61875,-43.75623 63.92249,-43.75623 35.30249,0 63.92126,19.58997 63.92126,43.75623"
     id="path100" />
  <path
     style="fill:#484a4c;fill-opacity:0.90196078;fill-rule:nonzero"
     inkscape:connector-curvature="0"
     d="M 33.84,297.56251 62.91501,285.63502 44.38126,267.94502 33.84,297.56251"
     id="path102" />
  <path
     style="fill:#ffffff;fill-rule:nonzero"
     inkscape:connector-curvature="0"
     d="m 100.13001,244.35126 15.13873,-21.79248 0,-0.18878 -13.72498,0 0,-5.945 23.06873,0 0,4.15374 -14.815,21.51001 0,0.1875 15.04876,0 0,5.94379 -24.71624,0 0,-3.86877"
     id="path104" />
  <path
     style="fill:#ffffff;fill-rule:nonzero"
     inkscape:connector-curvature="0"
     d="m 100.13001,244.35126 0.945,0.65625 15.34375,-22.08874 0,-1.69873 -13.72504,0 0,-3.6438 20.76752,0 0,2.64502 -14.81372,21.51001 0,1.69501 15.04871,0 0,3.64374 -22.4162,0 0,-2.71875 -1.15003,0 0.94501,0.65625 -0.94501,-0.65625 -1.15124,0 0,5.02002 27.01874,0 0,-8.24628 -16.20002,0 0,1.15124 1.15125,0 0,-0.1875 -1.15125,0 0.94751,0.65253 15.01752,-21.80499 0,-5.66126 -25.36999,0 0,8.245 14.87622,0 0,-1.15003 -1.15125,0 0,0.18879 1.15125,0 -0.94501,-0.65625 -15.34497,22.08874 0,0.35999 1.15124,0"
     id="path106" />
  <path
     style="fill:#ffffff;fill-rule:nonzero"
     inkscape:connector-curvature="0"
     d="m 71.50876,260.98878 13.18625,-18.97876 0,-0.16248 -11.95499,0 0,-5.17877 20.09,0 0,3.61627 -12.90125,18.73377 0,0.16369 13.10626,0 0,5.17505 -21.52627,0 0,-3.36877"
     id="path108" />
  <path
     style="fill:#ffffff;fill-rule:nonzero"
     inkscape:connector-curvature="0"
     d="m 71.50876,260.98878 0.94501,0.65747 13.39126,-19.27496 0,-1.67499 -11.95502,0 0,-2.87628 17.78876,0 0,2.10748 -12.90127,18.73376 0,1.67127 13.10623,0 0,2.875 -19.22498,0 0,-2.21875 -1.14999,0 0.945,0.65747 -0.945,-0.65747 -1.15125,0 0,4.52002 23.82749,0 0,-7.47754 -14.25626,0 0,1.15125 1.15002,0 0,-0.1637 -1.15002,0 0.94751,0.65247 13.10373,-19.02747 0,-5.125 -22.39124,0 0,7.4787 13.10627,0 0,-1.14997 -1.15125,0 0,0.16248 1.15125,0 -0.94501,-0.65625 -13.39249,19.27502 0,0.35999 1.15125,0"
     id="path110" />
  <path
     style="fill:#ffffff;fill-rule:nonzero"
     inkscape:connector-curvature="0"
     d="m 47.28375,273.26753 9.57502,-13.78003 0,-0.12 -8.68128,0 0,-3.75873 14.58627,0 0,2.62628 -9.36502,13.6012 0,0.11877 9.51502,0 0,3.75873 -15.63001,0 0,-2.44623"
     id="path112" />
  <path
     style="fill:#ffffff;fill-rule:nonzero"
     inkscape:connector-curvature="0"
     d="m 47.28375,273.26753 0.94501,0.65747 9.78125,-14.07624 0,-1.63122 -8.68124,0 0,-1.45752 12.28497,0 0,1.11749 -9.36499,13.60126 0,1.6275 9.51501,0 0,1.45752 -13.32876,0 0,-1.29627 -1.15125,0 0.94501,0.65747 -0.94501,-0.65747 -1.14999,0 0,3.59748 17.93124,0 0,-6.06 -10.66626,0 0,1.15002 1.15128,0 0,-0.11877 -1.15128,0 0.94876,0.65253 9.56751,-13.89502 0,-4.13501 -16.88751,0 0,6.05999 9.83126,0 0,-1.15124 -1.15002,0 0,0.11999 1.15002,0 -0.94375,-0.65625 -9.78125,14.0763 0,0.35998 1.14999,0"
     id="path114" />
</svg>
