<?xml version="1.0"?>
<svg width="254" height="349" xmlns="http://www.w3.org/2000/svg">
 <!-- Created with Method Draw - http://github.com/duopixel/Method-Draw/ -->
 <g>
  <title>Layer 1</title>
  <g id="svg_79">
   <path fill="#bd9767" fill-rule="nonzero" id="path276" d="m132.5,21.75c0,4.83252 -3.91748,8.75 -8.75,8.75c-4.83252,0 -8.75,-3.91748 -8.75,-8.75c0,-4.83252 3.91748,-8.75 8.75,-8.75c4.83252,0 8.75,3.91748 8.75,8.75"/>
   <path fill="#692020" fill-rule="nonzero" id="path278" d="m136.25,15.5c0,4.83252 -3.91748,8.75 -8.75,8.75c-4.83252,0 -8.75,-3.91748 -8.75,-8.75c0,-4.83252 3.91748,-8.75 8.75,-8.75c4.83252,0 8.75,3.91748 8.75,8.75"/>
   <path fill="#61281f" fill-rule="nonzero" id="path280" d="m9.380005,92.928772c1.391235,-12.617493 7.026245,-19.326233 14.66626,-23.880005c7.633728,-4.565002 17.217468,-7.119995 26.809998,-11.777466c18.159973,-8.802551 40.72998,-17.875 55.362488,-31.577515c9.746277,-9.095032 14.974976,-15.86499 24.443726,-15.89502c4.002502,0.003784 8.681274,1.227478 14.710022,3.9375c15.059998,6.77002 29.941284,16.231262 44.320007,24.232483c18.934998,10.538757 32.963745,23.518799 45.807495,40.910034l-1.003723,0.742493c-12.77002,-17.277527 -26.632507,-30.10376 -45.412537,-40.558777c-14.419983,-8.028748 -29.276245,-17.471252 -44.221252,-24.1875c-5.943726,-2.669983 -10.45874,-3.827454 -14.199951,-3.824951c-8.715027,-0.028748 -13.740051,6.318726 -23.588806,15.557495c-14.902466,13.932495 -37.571228,23.003723 -55.672485,31.787476c-9.722473,4.712524 -19.307495,7.28125 -26.713745,11.724976c-7.39502,4.458801 -12.66748,10.647522 -14.068726,22.950012l-1.23877,-0.141235"/>
   <path fill="#61281f" fill-rule="nonzero" id="path282" d="m6.907471,89.043762c7.434998,-21.33374 23.369995,-20.203735 40.766235,-27.996277c17.55249,-7.837463 35.073792,-19.649963 48.92627,-32.994995c11.482483,-11.04248 17.451233,-18.703735 28.73999,-18.727478c4.285034,0.002502 9.272522,1.112488 15.576233,3.51001c17.160034,6.532471 36.840027,14.867493 51.868774,25.547485c18.77002,13.39502 23.164978,32.369995 44.986267,42.80249l-0.542542,1.128784c-22.334961,-10.768738 -26.794983,-29.918762 -45.168701,-42.912537c-14.860046,-10.565002 -34.465027,-18.883728 -51.586304,-25.398743c-6.221191,-2.367493 -11.068726,-3.426208 -15.133728,-3.426208c-10.567505,-0.022522 -16.284973,7.19873 -27.872498,18.377502c-13.964966,13.451233 -31.589966,25.33374 -49.283752,33.236206c-17.883728,7.95752 -32.92749,6.663757 -40.09375,27.263794l0,0.002502l-1.182495,-0.412537"/>
   <path fill="#bd9767" fill-rule="nonzero" id="path284" d="m3.701233,336.964966l234.337463,0l0,-254.137451l-234.337463,0l0,254.137451z"/>
   <path fill="#f9acc8" fill-rule="nonzero" id="path286" d="m10.429993,329.269958l234.337463,0l0,-254.148743l-234.337463,0l0,254.148743z"/>
   <path fill="#ec93b4" fill-rule="nonzero" id="path288" d="m224.98877,81.522522l-41.47876,41.47876l-48.52124,48.52124l-41.47876,41.47876l-48.52124,48.52124l-34.683777,34.683716l0,0.528748l34.683777,-34.683716l49.049988,-49.049988l40.950012,-40.950012l49.049988,-49.049988l40.950012,-40.950012l6.929993,-6.929993l-0.539978,0l-6.390015,6.401245"/>
   <path fill="#ec93b4" fill-rule="nonzero" id="path290" d="m239.411255,75.121277l-0.528748,0l-13.893738,13.905029l-33.975037,33.974976l-56.024963,56.024963l0,-0.01123l-33.975037,33.986267l-56.024963,56.024963l-33.975037,33.975037l-0.70874,0.70874l0,0.528748l1.237488,-1.237488l33.446289,-33.446289l56.553711,-56.553711l33.446289,-33.446289l56.553711,-56.553711l33.446289,-33.446228l14.422485,-14.433777"/>
   <path fill="#ec93b4" fill-rule="nonzero" id="path292" d="m224.98877,119.018738l-3.982483,3.982483l-86.017517,86.017517l-3.982483,3.982483l-86.017517,86.017517l-3.982483,3.982483l0.01123,0l-26.268738,26.268738l0.528748,0l26.257507,-26.268738l3.453735,-3.453735l86.546265,-86.546265l3.453735,-3.453735l86.546265,-86.546265l3.453735,-3.453735l19.653748,-19.653748l0,-0.528748l-19.653748,19.653748"/>
   <path fill="#ec93b4" fill-rule="nonzero" id="path294" d="m228.51001,123.001221l-3.52124,3.52124l-86.47876,86.47876l-3.52124,3.52124l-86.47876,86.47876l-3.52124,3.52124l-22.736267,22.747498l0.528748,0l22.20752,-22.21875l4.049988,-4.049988l85.950012,-85.950012l4.049988,-4.049988l85.950012,-85.950012l4.049988,-4.049988l15.60376,-15.60376l0,-0.528748l-16.132507,16.132507"/>
   <path fill="#ec93b4" fill-rule="nonzero" id="path296" d="m236.013733,123.001221l-11.025024,11.025024l-78.986206,78.974976l0.01123,0l-11.025024,11.024963l0,-0.01123l-78.974976,78.986267l-11.025024,11.013733l0,0.01123l-15.243713,15.243774l0.528748,0l14.714966,-14.715027l11.553772,-11.553711l78.446228,-78.45752l0,0.01123l11.553772,-11.553711l78.446228,-78.446228l11.553772,-11.553772l-0.01123,0l8.111206,-8.111267l0,-0.528748l-8.628723,8.640015"/>
   <path fill="#ec93b4" fill-rule="nonzero" id="path298" d="m224.98877,164.018738l-48.982483,48.982483l-41.017517,41.017517l-48.982483,48.982483l-26.257507,26.268738l0.528748,0l26.268738,-26.268738l-0.01123,0l48.453735,-48.453735l41.546265,-41.546265l48.453735,-48.453735l0,0.011261l19.653748,-19.665009l0,-0.528748l-19.653748,19.653748"/>
   <path fill="#ec93b4" fill-rule="nonzero" id="path300" d="m224.98877,171.522491l-41.47876,41.478729l-48.52124,48.52124l-41.47876,41.47876l-26.257507,26.268738l0.528748,0l26.257507,-26.268738l40.950012,-40.950012l49.049988,-49.049988l40.950012,-40.949982l19.653748,-19.653748l0,-0.528748l-19.653748,19.653748"/>
   <path fill="#ec93b4" fill-rule="nonzero" id="path302" d="m224.98877,186.518738l-26.482483,26.482483l-63.517517,63.517517l-26.482483,26.482483l-26.257507,26.268738l0.528748,0l26.257507,-26.268738l25.953735,-25.953735l64.046265,-64.046265l25.953735,-25.953735l19.653748,-19.653748l0,-0.528748l-19.653748,19.653748"/>
   <path fill="#ec93b4" fill-rule="nonzero" id="path304" d="m224.98877,194.022461l-18.97876,18.97876l-65.508728,65.508728l-15.007507,14.996277l-9.483765,9.494995l-26.268738,26.268738l0.539978,0l26.257507,-26.268738l18.450012,-18.450012l71.549988,-71.549988l18.450012,-18.450012l19.653748,-19.653717l0,-0.528748l-19.653748,19.653717"/>
   <path fill="#ec93b4" fill-rule="nonzero" id="path306" d="m224.98877,201.526245l0,-0.011292l-11.474976,11.486267l-78.525024,78.525024l0,-0.011292l-11.474976,11.486267l-26.268799,26.268738l0.528748,0l26.268799,-26.268738l10.946228,-10.95752l0,0.011292l79.053772,-79.053772l10.946228,-10.946228l19.653748,-19.653748l0,-0.528748l-19.653748,19.653748"/>
   <path fill="#ec93b4" fill-rule="nonzero" id="path308" d="m244.642517,189.36499l-19.653748,19.653748l-3.982483,3.982483l-80.505005,80.505005l-9.494995,9.494995l-26.257507,26.268738l0.528748,0l26.257507,-26.268738l3.453735,-3.453735l86.546265,-86.546265l3.453735,-3.453735l19.653748,-19.653748l0,-0.528748"/>
   <path fill="#ec93b4" fill-rule="nonzero" id="path310" d="m228.51001,213.001221l-13.016235,13.005005l-76.983765,76.994995l-3.52124,3.52124l-22.747498,22.747498l0.528748,0l22.21875,-22.21875l4.049988,-4.049988l85.950012,-85.949951l4.049988,-4.050049l15.60376,-15.60376l0,-0.528748l-16.132507,16.132507"/>
   <path fill="#ec93b4" fill-rule="nonzero" id="path312" d="m236.013733,213.001221l-11.025024,11.025024l-78.986206,78.974976l0.01123,0l-11.025024,11.025024l0,-0.011292l-15.243713,15.255005l0.528748,0l14.714966,-14.726196l0,0.01123l11.553772,-11.553772l78.446228,-78.446228l11.553772,-11.553772l-0.01123,0l8.111206,-8.099976l0,-0.540039l-8.639954,8.640015l0.01123,0"/>
   <path fill="#ec93b4" fill-rule="nonzero" id="path314" d="m224.98877,246.526245l0,-0.011292l-56.474976,56.486267l-26.268799,26.268738l0.528748,0l26.268799,-26.268738l-0.011292,0l55.95752,-55.946228l19.653748,-19.665039l0,-0.517456l-19.653748,19.653748"/>
   <path fill="#ec93b4" fill-rule="nonzero" id="path316" d="m224.98877,254.018738l-48.982483,48.982483l-26.257507,26.268738l0.528748,0l26.257507,-26.268738l48.453735,-48.453735l19.653748,-19.653748l0,-0.528748l-19.653748,19.653748"/>
   <path fill="#ec93b4" fill-rule="nonzero" id="path318" d="m224.98877,261.522461l-41.47876,41.47876l-26.268738,26.268738l0.539978,0l26.257507,-26.268738l40.950012,-40.950012l19.653748,-19.653748l0,-0.528748l-19.653748,19.653748"/>
   <path fill="#ec93b4" fill-rule="nonzero" id="path320" d="m224.98877,269.026245l-33.986267,33.974976l0.011292,0l-26.268799,26.268738l0.528748,0l26.268799,-26.268738l33.446228,-33.446228l19.653748,-19.653748l0,-0.540039l-19.653748,19.665039"/>
   <path fill="#ec93b4" fill-rule="nonzero" id="path322" d="m224.98877,276.518738l-26.482483,26.482483l-26.257507,26.268738l0.528748,0l26.257507,-26.268738l25.953735,-25.953735l19.653748,-19.653748l0,-0.528748l-19.653748,19.653748"/>
   <path fill="#ec93b4" fill-rule="nonzero" id="path324" d="m224.98877,284.022461l-18.97876,18.97876l-26.268738,26.268738l0.539978,0l26.257507,-26.268738l18.450012,-18.450012l19.653748,-19.653748l0,-0.528748l-19.653748,19.653748"/>
   <path fill="#ec93b4" fill-rule="nonzero" id="path326" d="m224.98877,291.526245l0,-0.011292l-11.474976,11.486267l-26.268799,26.268738l0.528748,0l26.268799,-26.268738l10.946228,-10.946228l19.653748,-19.653748l0,-0.528748l-19.653748,19.653748"/>
   <path fill="#ec93b4" fill-rule="nonzero" id="path328" d="m224.98877,299.018738l-3.982483,3.982483l-26.257507,26.268738l0.528748,0l26.257507,-26.268738l3.453735,-3.453735l19.653748,-19.653748l0,-0.528748l-19.653748,19.653748"/>
   <path fill="#ec93b4" fill-rule="nonzero" id="path330" d="m228.51001,303.001221l-3.52124,3.52124l-22.747498,22.747498l0.528748,0l12.993713,-12.993713l13.275024,-13.275024l15.60376,-15.60376l0,-0.528748l-16.132507,16.132507"/>
   <path fill="#ec93b4" fill-rule="nonzero" id="path332" d="m236.01001,303l-11.022522,11.02124l0,0.001221l-15.242493,15.242554l0.53125,0l14.711243,-14.712524l0,-0.001282l11.55127,-11.551208l-0.002502,0l8.106262,-8.106262l0,-0.527527l-8.633728,8.633789l0.001221,0"/>
   <path fill="#ec93b4" fill-rule="nonzero" id="path334" d="m244.642517,316.867493l-12.397522,12.397461l0.528748,0l11.868774,-11.869995l0,-0.527466"/>
   <path fill="#ec93b4" fill-rule="nonzero" id="path336" d="m240.275024,329.265015l4.367493,-4.367493l0,-0.530029l-4.89624,4.897522l0.528748,0"/>
   <path fill="#ec93b4" fill-rule="nonzero" id="path338" d="m141.918762,75.121277l-0.528748,0l-6.401245,6.401245l-41.47876,41.47876l-48.52124,48.52124l-34.683777,34.683716l0,0.528748l34.683777,-34.683716l49.049988,-49.049988l40.950012,-40.950012l6.929993,-6.929993"/>
   <path fill="#ec93b4" fill-rule="nonzero" id="path340" d="m138.51001,123.001221l-3.52124,3.52124l-86.47876,86.47876l-3.52124,3.52124l-34.683777,34.683716l0,0.528809l34.683777,-34.683777l4.049988,-4.049988l85.950012,-85.950012l4.049988,-4.049988l47.880005,-47.880005l-0.539978,0l-47.868774,47.880005"/>
   <path fill="#ec93b4" fill-rule="nonzero" id="path342" d="m223.88623,75.121277l-47.880005,47.880005l0.01123,0l-41.028748,41.017487l-48.982483,48.982513l-41.017517,41.017456l-34.683716,34.683777l0,0.528748l34.683716,-34.683777l41.546265,-41.546204l48.453735,-48.453766l41.546265,-41.546234l47.880005,-47.880005l-0.528748,0"/>
   <path fill="#ec93b4" fill-rule="nonzero" id="path344" d="m224.987488,322.049988l19.048767,-19.049988l0,0l0.606262,-0.606262l0,-0.527527l-1.133789,1.133789l-0.002502,0l-18.518738,18.518738l0,0.001221l-7.743774,7.744995l0.53125,0l7.212524,-7.213745l0,-0.001221"/>
   <path fill="#ec93b4" fill-rule="nonzero" id="path346" d="m225.276245,329.265015l19.366272,-19.367493l0,-0.53125l-19.655029,19.654968l0,-0.002502l-0.244995,0.246277l0.533752,0"/>
   <path fill="#ec93b4" fill-rule="nonzero" id="path348" d="m51.390015,75.121277l-6.401245,6.401245l-34.683777,34.683777l0,0.528748l34.683777,-34.683777l6.929993,-6.929993l-0.528748,0"/>
   <path fill="#ec93b4" fill-rule="nonzero" id="path350" d="m48.51001,123.001221l-3.52124,3.52124l-34.683777,34.683746l0,0.528778l34.683777,-34.683777l4.049988,-4.049988l47.880005,-47.880005l-0.528748,0l-47.880005,47.880005"/>
   <path fill="#ec93b4" fill-rule="nonzero" id="path352" d="m63.517517,123.001221l-18.528748,18.517517l-34.683777,34.683716l0,0.528748l34.683777,-34.672485l19.057495,-19.057495l-0.01123,0l47.880005,-47.880005l-0.528748,0l-47.880005,47.880005l0.01123,0"/>
   <path fill="#ec93b4" fill-rule="nonzero" id="path354" d="m71.01001,123.001221l-26.02124,26.02124l-34.683777,34.683716l0,0.528809l34.683777,-34.683777l26.549988,-26.549988l47.880005,-47.880005l-0.528748,0l-47.880005,47.880005"/>
   <path fill="#ec93b4" fill-rule="nonzero" id="path356" d="m86.006226,123.001221l-41.017517,41.017487l-34.683716,34.683746l0,0.528748l34.683716,-34.683716l41.557495,-41.546265l-0.01123,0l47.880005,-47.880005l-0.528748,0l-47.880005,47.880005"/>
   <path fill="#ec93b4" fill-rule="nonzero" id="path358" d="m44.98877,321.518738l-7.73999,7.751221l0.528748,0l7.211243,-7.222473l19.046265,-19.046265l70.953735,-70.953735l19.046265,-19.046265l70.953735,-70.942505l0,-0.01123l19.046265,-19.046265l0.607483,-0.607483l0,-0.528748l-1.13623,1.13623l-18.517517,18.517517l-71.482483,71.482483l-18.517517,18.517517l-71.482483,71.482483l-18.517517,18.517517"/>
   <path fill="#ec93b4" fill-rule="nonzero" id="path360" d="m71.538757,303.001221l63.450012,-63.450012l26.549988,-26.549988l63.450012,-63.449951l19.653748,-19.653748l0,-0.528748l-19.653748,19.653748l-63.97876,63.978699l-26.02124,26.02124l-63.97876,63.97876l-26.02124,26.02124l-0.236267,0.247498l0.528748,0l26.257507,-26.268738"/>
   <path fill="#ec93b4" fill-rule="nonzero" id="path362" d="m79.04248,303.001221l55.946228,-55.946228l34.053772,-34.053772l-0.01123,0l55.957458,-55.946228l19.653748,-19.664978l0,-0.517517l-19.653748,19.653748l-56.474976,56.474976l-33.525024,33.525024l0,-0.011292l-56.474976,56.486267l-26.268738,26.268738l0.528748,0l26.268738,-26.268738"/>
   <path fill="#ec93b4" fill-rule="nonzero" id="path364" d="m75.273743,329.269958l26.268738,-26.268738l33.446289,-33.446228l56.553711,-56.553772l33.446289,-33.446228l19.653748,-19.653748l0,-0.528748l-19.653748,19.653748l-33.986267,33.974976l0.01123,0l-56.024963,56.025024l0,-0.011292l-33.975037,33.986267l-26.268738,26.268738l0.528748,0"/>
   <path fill="#ec93b4" fill-rule="nonzero" id="path366" d="m127.248779,329.269958l0.528748,0l7.211243,-7.222473l19.046265,-19.046265l70.953735,-70.953735l19.046265,-19.046265l0.607483,-0.607483l0,-0.528748l-6.648743,6.648743l-13.005005,13.005005l-71.482483,71.482483l-18.517517,18.517517l-7.73999,7.751221"/>
   <path fill="#ec93b4" fill-rule="nonzero" id="path368" d="m135.28125,329.269958l26.257507,-26.268738l63.450012,-63.450012l19.653748,-19.653748l0,-0.528748l-19.653748,19.653748l-63.97876,63.97876l-26.02124,26.02124l-0.247498,0.247498l0.539978,0"/>
   <path fill="#ec93b4" fill-rule="nonzero" id="path370" d="m10.304993,78.70752l0,0.530029l4.11377,-4.11377l-0.530029,0l-3.58374,3.58374"/>
   <path fill="#ec93b4" fill-rule="nonzero" id="path372" d="m10.304993,86.206238l0,0.53125l11.61499,-11.61377l-0.532471,0l-11.08252,11.08252"/>
   <path fill="#ec93b4" fill-rule="nonzero" id="path374" d="m10.304993,94.237488l19.11377,-19.11377l-0.53125,0l-18.58252,18.58252l0,0.53125"/>
   <path fill="#ec93b4" fill-rule="nonzero" id="path376" d="m10.304993,101.20752l0,0.530029l26.61377,-26.61377l-0.530029,0l-26.08374,26.08374"/>
   <path fill="#ec93b4" fill-rule="nonzero" id="path378" d="m10.304993,108.70752l0,0.530029l34.11377,-34.11377l-0.530029,0l-33.58374,33.58374"/>
   <path fill="#ec93b4" fill-rule="nonzero" id="path380" d="m11.54248,123.001221l33.446228,-33.446228l14.433777,-14.433777l-0.539978,0l-13.893799,13.905029l-33.974976,33.974976l-0.70874,0.70874l0,0.528748l1.237488,-1.237488"/>
   <path fill="#ec93b4" fill-rule="nonzero" id="path382" d="m19.046265,123.001221l25.942505,-25.953735l21.92627,-21.92627l-0.528748,0l-21.397522,21.397522l-26.471252,26.482483l-8.212524,8.201233l0,0.540039l8.741272,-8.741272"/>
   <path fill="#ec93b4" fill-rule="nonzero" id="path384" d="m26.538757,123.001221l18.450012,-18.450012l29.429993,-29.429993l-0.528748,0l-28.901245,28.901245l-18.97876,18.97876l-15.705017,15.705017l0,0.528748l16.233765,-16.233765"/>
   <path fill="#ec93b4" fill-rule="nonzero" id="path386" d="m34.04248,123.001221l10.946228,-10.946228l36.922546,-36.933777l-0.528748,0l-36.393799,36.405029l-11.474976,11.474976l-23.20874,23.20874l0,0.528748l23.737488,-23.737488"/>
   <path fill="#ec93b4" fill-rule="nonzero" id="path388" d="m41.546265,123.001221l3.442505,-3.453735l44.42627,-44.42627l-0.528748,0l-43.897522,43.897522l-3.982483,3.982483l0.01123,0l-30.712524,30.701263l0,0.539978l31.241272,-31.241241"/>
   <path fill="#ec93b4" fill-rule="nonzero" id="path390" d="m10.304993,169.238739l34.683777,-34.683746l11.553711,-11.553772l47.868774,-47.880005l-0.528748,0l-47.868774,47.880005l-11.024963,11.025024l-34.683777,34.683746l0,0.528748"/>
   <path fill="#ec93b4" fill-rule="nonzero" id="path392" d="m44.98877,157.054993l34.053772,-34.053772l47.868713,-47.880005l-0.528748,0l-47.868713,47.880005l-33.525024,33.525024l-34.683777,34.683716l0,0.528748l34.683777,-34.683716"/>
   <path fill="#ec93b4" fill-rule="nonzero" id="path394" d="m11.54248,213.001221l33.446228,-33.446228l56.553772,-56.553711l33.446228,-33.446289l14.433777,-14.433716l-0.539978,0l-13.893799,13.904968l0,-0.01123l-33.974976,33.986267l-56.025024,56.024963l-33.974976,33.974976l-0.70874,0.70874l0,0.528748l1.237488,-1.237488"/>
   <path fill="#ec93b4" fill-rule="nonzero" id="path396" d="m19.046265,213.001221l25.942505,-25.953735l64.057495,-64.046204l-0.01123,0l25.953735,-25.953796l21.92627,-21.926208l-0.528748,0l-21.397522,21.397461l-26.482483,26.482483l-63.517517,63.517517l-26.471252,26.482483l-8.212524,8.201294l0,0.539978l8.741272,-8.741272"/>
   <path fill="#ec93b4" fill-rule="nonzero" id="path398" d="m26.538757,213.001221l18.450012,-18.450012l71.549988,-71.549988l18.450012,-18.449951l29.429993,-29.430054l-0.528748,0l-28.901245,28.901306l-18.97876,18.978699l-71.02124,71.02124l-18.97876,18.97876l-15.705017,15.705017l0,0.528748l16.233765,-16.233765"/>
   <path fill="#ec93b4" fill-rule="nonzero" id="path400" d="m34.04248,213.001221l10.946228,-10.946228l0,-0.01123l79.053772,-79.042542l10.946228,-10.946228l36.933777,-36.933716l-0.539978,0l-36.393799,36.404968l0,-0.01123l-11.474976,11.486206l-78.525024,78.513733l0,0.011292l-11.474976,11.474976l-23.20874,23.20874l0,0.528748l23.737488,-23.737488"/>
   <path fill="#ec93b4" fill-rule="nonzero" id="path402" d="m41.546265,213.001221l3.442505,-3.453735l86.546265,-86.546204l3.453735,-3.453796l44.42627,-44.426208l-0.528748,0l-43.897522,43.897461l-3.982483,3.982544l-86.017517,86.017456l-3.971252,3.982483l-30.712524,30.701294l0,0.528748l31.241272,-31.230042"/>
   <path fill="#ec93b4" fill-rule="nonzero" id="path404" d="m10.304993,258.709961l0,0.528748l34.683777,-34.683716l11.553711,-11.553772l78.446289,-78.446228l11.553711,-11.553772l47.868774,-47.880005l-0.528748,0l-47.880005,47.880005l0.01123,0l-11.024963,11.025024l0,-0.01123l-78.975037,78.986206l-11.024963,11.025024l-34.683777,34.683716"/>
   <path fill="#ec93b4" fill-rule="nonzero" id="path406" d="m44.98877,232.047485l19.057495,-19.046265l-0.01123,0l70.953735,-70.953735l19.046265,-19.046265l47.880005,-47.880005l-0.528748,0l-47.880005,47.880005l-18.517517,18.517517l-71.482483,71.482483l0.01123,0l-18.528748,18.517517l-34.683777,34.683716l0,0.528748l34.683777,-34.683716"/>
   <path fill="#ec93b4" fill-rule="nonzero" id="path408" d="m44.98877,239.551208l26.549988,-26.549988l63.450012,-63.450012l26.549988,-26.549988l47.880005,-47.880005l-0.528748,0l-47.880005,47.880005l-26.02124,26.02124l-63.97876,63.97876l-26.02124,26.02124l-34.683777,34.683777l0,0.528748l34.683777,-34.683777"/>
   <path fill="#ec93b4" fill-rule="nonzero" id="path410" d="m10.304993,281.738708l34.683777,-34.683716l34.053711,-34.053772l55.946289,-55.946228l34.053711,-34.053772l47.880005,-47.880005l-0.539978,0l-47.868774,47.880005l-33.524963,33.525024l0,-0.011261l-56.475037,56.486237l-33.524963,33.525024l-34.683777,34.683716l0,0.528748"/>
   <path fill="#ec93b4" fill-rule="nonzero" id="path412" d="m19.034973,303.001221l25.953735,-25.953735l64.046265,-64.046265l25.953735,-25.953735l64.046265,-64.046204l25.953735,-25.942505l0,-0.011292l19.653748,-19.653748l0,-0.528748l-19.653748,19.653748l-26.482483,26.482544l-63.517517,63.517456l-26.482483,26.482483l-63.517517,63.517517l-26.482483,26.482483l0.01123,0l-8.212463,8.201294l0,0.539978l8.741211,-8.741272l-0.01123,0"/>
   <path fill="#ec93b4" fill-rule="nonzero" id="path414" d="m26.538757,303.001221l18.450012,-18.450012l71.549988,-71.549988l18.450012,-18.450012l71.549988,-71.549988l18.450012,-18.449951l19.653748,-19.653748l0,-0.528809l-19.653748,19.653809l-18.97876,18.978699l-71.02124,71.02124l-18.97876,18.97876l-71.02124,71.02124l-18.97876,18.97876l-15.705017,15.705017l0,0.528748l16.233765,-16.233765"/>
   <path fill="#ec93b4" fill-rule="nonzero" id="path416" d="m34.04248,303.001221l10.946228,-10.946228l79.053772,-79.053772l10.946228,-10.946228l79.053772,-79.053711l10.946228,-10.946289l19.653748,-19.653748l0,-0.539978l-19.653748,19.664978l-11.474976,11.475037l-78.525024,78.524963l0,-0.01123l-11.474976,11.486206l-78.525024,78.525024l-11.474976,11.474976l-23.20874,23.208801l0,0.528748l23.737488,-23.737549"/>
   <path fill="#ffffff" fill-rule="nonzero" id="path418" d="m31.36499,307.265015l192.217468,0l0,-210.138733l-192.217468,0l0,210.138733z"/>
   <path fill="#eceaf0" fill-rule="nonzero" id="path420" d="m223.58252,307.265015l-15.007507,0l0,-197.640015l-177.210022,0l0,-12.498718l192.217529,0l0,210.138733"/>
   <path fill="#61281f" fill-rule="nonzero" id="path422" d="m143.696228,308.498718c14.358765,0.898743 32.025024,5.293762 47.07373,5.287537c16.818787,-0.073792 30.080017,-5.271301 32.476257,-26.958801c1.292542,-12.013733 1.77124,-24.13623 1.77124,-36.319946c0,-34.876282 -3.932495,-70.261292 -3.932495,-105.04126c0,-2.762512 0.022522,-5.522522 0.08252,-8.276245c0.096252,-4.842529 1.400024,-12.39624 1.400024,-19.335022c0.006226,-5.419983 -0.820007,-10.412476 -3.462524,-13.344971c-5.022522,-5.70752 -18.140015,-6.446289 -29.085022,-6.413757c-2.863708,0 -5.577454,0.039978 -7.971252,0.039978c-1.75,0 -3.326233,-0.02124 -4.668701,-0.098755c-31.05127,-1.83374 -62.132507,-4.127502 -93.208801,-5.102478c-5.71875,-0.181274 -12.207458,-0.80249 -18.599976,-0.799988c-11.943726,0.006226 -23.372498,2.14624 -29.028748,13.07373c-3.372498,6.503784 -4.443726,14.578735 -4.441223,23.137512c-0.003784,13.986267 2.839966,29.212494 2.872498,40.984985l-0.550049,0.002502l0.550049,0c0,0.423767 0,0.848755 0.001221,1.273773c-0.001221,19.879974 -1.002502,39.678741 -1.002502,59.561249c0,0.233704 0,0.463745 0.002502,0.707458c0.013733,11.371277 0.328735,22.976257 0.328735,34.54126c0,13.553772 -0.433716,27.061279 -2.304993,40.102478c15.54126,2.027527 31.242493,2.463745 46.996277,2.461243c11.882507,0.002502 23.796265,-0.248718 35.695007,-0.248718c9.6875,0 19.363708,0.16626 29.006226,0.766235zm47.07373,6.388794c-15.243713,-0.005005 -32.931213,-4.411255 -47.142456,-5.288757c-9.608765,-0.600037 -19.261292,-0.767517 -28.9375,-0.767517c-11.882507,0 -23.796265,0.251221 -35.695007,0.251221c-15.961243,0 -31.89624,-0.443726 -47.693787,-2.543701l-0.553711,-0.075012l0.082458,-0.55127c1.925049,-13.126221 2.373779,-26.773743 2.373779,-40.494995c0,-11.547485 -0.313782,-23.148743 -0.327515,-34.532471c-0.002502,-0.245056 -0.006226,-0.480042 -0.006226,-0.716248c0.003723,-19.920044 1.003723,-39.71875 1.003723,-59.561249c0,-0.425018 0,-0.847504 0,-1.272522c-0.023743,-11.611237 -2.871216,-26.866241 -2.873718,-40.988739c0.002502,-8.648743 1.067505,-16.891235 4.566223,-23.643738c5.963745,-11.498779 17.994995,-13.678772 30.005005,-13.668762c6.462524,0 12.967468,0.623718 18.63501,0.80249c31.106262,0.973755 62.196228,3.268738 93.23999,5.101257c1.30249,0.076233 2.862488,0.098755 4.602478,0.098755c2.381287,0 5.097534,-0.04126 7.971252,-0.04126c10.993774,0.032532 24.22876,0.533752 29.903748,6.782532c2.961243,3.331238 3.735046,8.5625 3.743774,14.077454c-0.002502,7.057495 -1.311279,14.665039 -1.401245,19.357544c-0.058777,2.744995 -0.08252,5.498718 -0.08252,8.253723c0,34.696228 3.932495,70.082458 3.934998,105.04126c-0.002502,12.213745 -0.47998,24.376221 -1.777466,36.4375c-2.323792,22.102478 -16.397522,27.943726 -33.244995,27.943726l-0.326294,-0.001221"/>
   <path fill="#61281f" fill-rule="nonzero" id="path424" d="m41.109985,94.92749l0.258728,-0.26001l-0.258728,0.26001zm92.751221,208.476257c13.345032,0.002502 33.298767,2.66748 51.506287,2.664978c11.903748,0.005005 23.048767,-1.147522 31.034973,-4.85498c0.778748,-34.558777 2.023743,-70.203735 2.02124,-105.591248c0.002502,-24.40625 -0.589966,-48.690002 -2.332458,-72.408752c-0.753784,-10.27124 -2.992493,-16.226257 -6.898743,-19.608765c-3.897522,-3.392456 -9.658752,-4.368713 -17.716248,-4.366211c-2.558777,0 -5.34375,0.094971 -8.360046,0.23999c-23.162476,1.088745 -46.329956,1.422485 -69.5,1.422485c-7.256226,0 -14.514954,-0.036255 -21.767456,-0.085022c-17.397522,-0.127502 -33.300049,-2.651245 -50.170044,-6.086243l-0.02124,0.243774c-2.533752,28.827515 -3.467468,58.046234 -3.467468,87.362488c0,40.727478 1.797485,81.647522 3.609985,121.986267c21.847473,-0.818787 44.018738,-0.932495 66.151245,-0.933777c8.497498,0.001282 16.991272,0.015015 25.45874,0.015015c0.128784,0 0.262512,0 0.40625,0.001221l0.037537,-0.001221l0.007507,0l-0.000061,0zm0.123779,1.101257l-0.008728,0.003723l-0.136292,-0.001221c-0.141235,-0.002502 -0.282471,-0.005005 -0.429993,-0.002502c-8.467468,-0.002502 -16.961243,-0.016296 -25.45874,-0.016296c-22.313721,0 -44.657471,0.117554 -66.65625,0.953796l-0.546265,0.019958l-0.02124,-0.546204c-1.82373,-40.513794 -3.638733,-81.63501 -3.638733,-122.580017c0,-29.253754 0.929993,-58.41626 3.44873,-87.202515l-2.209961,-2.212463l1.793701,0.366211c17.508789,3.61377 33.833801,6.298767 51.733765,6.42749c7.253784,0.052551 14.506226,0.085022 21.76123,0.085022c23.161255,0 46.309998,-0.33374 69.448792,-1.419983c3.024963,-0.143738 5.825012,-0.242493 8.411255,-0.242493c8.118713,0.005005 14.178711,0.950012 18.440002,4.637512c4.251221,3.697449 6.51001,9.987488 7.273743,20.358704c1.742493,23.753784 2.334961,48.067505 2.337463,72.48877c-0.002502,35.529968 -1.256226,71.301208 -2.032471,105.956238l-0.006226,0.339966l-0.306274,0.14502c-8.29126,3.943787 -19.688782,5.101257 -31.815002,5.106262c-18.247498,-0.002502 -38.163757,-2.651245 -51.382507,-2.664978"/>
   <path fill="#61281f" fill-rule="nonzero" id="path426" d="m183.998779,305.413757c5.73999,1.015015 10.933777,1.688721 15.474976,1.688721c12.871277,-0.09375 20.422546,-5.122498 21.432495,-23.86499c0.110046,-2.304993 0.161255,-4.609985 0.161255,-6.921265c0.005005,-30.887451 -9.359985,-62.253723 -10.691223,-93.289978c-0.039978,-0.89624 -0.058777,-1.808777 -0.058777,-2.734985c0.006287,-16.066254 5.412537,-36.651245 5.407532,-53.981262c0,-5.617493 -0.566284,-10.887512 -2.048767,-15.533752c-3.777466,-11.863708 -15.621216,-15.102478 -28.98877,-15.119995c-12.799988,0 -26.764954,3.016235 -35.648743,4.085022c-14.217468,1.69751 -27.90625,2.91748 -41.467468,2.91748c-17.015015,0 -33.828735,-1.921265 -51.21875,-7.20752l0.044983,-0.712463l-0.018738,0.001221c-4.398743,0 -8.737488,-0.297485 -13.183777,-0.297485c-1.219971,0 -2.447449,0.023743 -3.684998,0.078735c-5.043701,20.493774 -6.392456,41.716248 -6.389954,63.161255c-0.002502,24.40625 1.741211,49.09375 1.741211,73.297485c0,6.223755 -0.116211,12.41626 -0.403748,18.566284c-0.3125,6.576233 -1.616211,15.04248 -1.613708,23.213745c-0.002502,9.421265 1.732483,18.344971 8.486206,23.579956c5.630005,4.382507 13.813782,5.780029 22.652527,5.775024c12.801208,0.005005 26.878723,-2.912476 36.433716,-3.515015c5.13501,-0.32373 10.202515,-0.476257 15.226257,-0.476257c23.111267,0.002502 45.211243,3.188782 68.356262,7.290039zm15.474976,2.788757c-4.652466,0 -9.897461,-0.686279 -15.666199,-1.706299c-23.126282,-4.096252 -45.157532,-7.272461 -68.165039,-7.269958c-5,0 -10.043762,0.148743 -15.15625,0.469971c-9.418762,0.590027 -23.548767,3.517517 -36.503723,3.522522c-8.941284,-0.005005 -17.36377,-1.38623 -23.330017,-6.01123c-7.184998,-5.59375 -8.90625,-14.928772 -8.908752,-24.44751c0.002502,-8.28125 1.309998,-16.783752 1.616272,-23.266296c0.287476,-6.127502 0.402466,-12.30249 0.399963,-18.513733c0.002502,-24.151245 -1.741211,-48.838745 -1.741211,-73.297485c0,-21.627502 1.36499,-43.078735 6.523743,-63.82251l0.096252,-0.39624l0.40625,-0.02124c1.397461,-0.07251 2.78125,-0.098755 4.149963,-0.101257c4.493774,0.002502 8.837524,0.297485 13.183777,0.297485c1.964966,0 3.931274,-0.061218 5.914978,-0.233704l7.328796,-1.221252l0.226196,1.076233c-2.524963,0.643738 -4.988708,1.025024 -7.41748,1.23877l-3.469971,0.578735c16.459961,4.736267 32.428711,6.47998 48.609985,6.47998c13.496216,0 27.141235,-1.212463 41.338745,-2.909973c8.794983,-1.05249 22.820007,-4.090027 35.777466,-4.090027c13.45752,-0.016235 26.013794,3.315002 30.035034,15.88501c1.529968,4.798767 2.102478,10.17749 2.102478,15.867493c-0.006226,17.537537 -5.413757,38.13501 -5.409973,53.981262c0,0.912476 0.018738,1.808716 0.059998,2.688721c1.311218,30.850037 10.686218,62.231262 10.695007,93.336243c-0.003784,2.325012 -0.053772,4.651245 -0.165039,6.973755c-0.819946,18.897522 -9.17749,24.915039 -22.224976,24.915039l-0.306274,-0.002502"/>
   <path fill="#61281f" fill-rule="nonzero" id="path428" d="m171.476257,336.411255c-51.733765,-3.596252 -103.25,-7.898743 -155.094971,-7.898743c-1.226257,0 -2.455017,0.003723 -3.682556,0.008728l-0.508728,0l-0.04248,-0.501221c-0.108765,-1.26001 -0.153748,-2.496277 -0.153748,-3.713806c0.007507,-10.304993 3.373718,-19.368713 4.753723,-29.478699c2.41748,-17.597534 1.0625,-36.611267 1.905029,-54.532532c0.112488,-2.414978 0.163757,-4.826233 0.163757,-7.237488c0.002502,-21.518738 -4.133789,-43.096252 -5.411255,-64.678741l0.549988,-0.03125l0.548767,-0.035004c1.266235,21.48877 5.413696,43.084961 5.413696,64.744995c0,2.42749 -0.053711,4.85498 -0.166199,7.289978c-0.842529,17.831238 0.52124,36.875 -1.912537,54.627502c-1.41748,10.263794 -4.75,19.276245 -4.744995,29.331238c0.002502,1.023804 0.033752,2.061279 0.109985,3.11377c1.059998,-0.005005 2.117493,-0.01001 3.177551,-0.01001c51.90625,0.002502 103.44873,4.308777 155.169983,7.905029c9.236206,0.640015 22.084961,2.580017 34.513733,2.580017c12.418762,0.004944 24.366272,-1.955017 31.826233,-8.913757c7.713745,-7.162537 9.672546,-19.078796 9.667542,-31.248779c0,-9.852478 -1.271301,-19.820007 -1.675049,-27.496216c-1.013733,-19.150024 -1.322449,-38.193787 -1.322449,-57.195007c0,-28.690002 0.694946,-57.286255 0.694946,-86.022522c-0.002502,-5.642456 -0.024963,-11.294983 -0.086243,-16.950012c-0.267456,-20.443726 -11.337463,-30.026245 -26.57373,-34.914978c-15.236267,-4.852478 -34.57373,-4.762512 -50.852478,-5.461243c-16.063782,-0.696228 -32.026245,-1.142517 -47.952515,-1.140015c-26.023743,-0.002502 -51.950012,1.1875 -78.054993,4.423767c-10.637512,1.311218 -17.90625,2.85498 -22.44751,6.71875c-4.538757,3.84375 -6.607483,10.111267 -6.69873,21.299988c-0.017517,2.096252 -0.027527,4.19873 -0.025024,6.304993c-0.002502,20.242493 0.742493,40.883789 1.938721,61.012512l-0.548706,0.035004l-0.549988,0.03125c-1.196289,-20.147491 -1.941284,-40.810028 -1.941284,-61.078766c0,-2.108704 0.008728,-4.212463 0.027527,-6.315002c0.084961,-11.277466 2.179993,-17.967468 7.087463,-22.128723c4.902527,-4.138733 12.360046,-5.641235 23.02002,-6.970032c26.162476,-3.243713 52.132507,-4.434998 78.192505,-4.434998c15.94751,0 31.923767,0.445007 47.998718,1.141296c16.246277,0.706238 35.648743,0.589966 51.140015,5.51123c15.492493,4.887512 27.13623,15.0625 27.338745,35.952515c0.059998,5.659973 0.086243,11.315002 0.086243,16.962463c0,28.752502 -0.692505,57.351257 -0.691223,86.022522c-0.001282,18.98999 0.304993,38.012451 1.318726,57.13623c0.400024,7.609985 1.67627,17.61377 1.67627,27.554993c-0.005005,12.265015 -1.922485,24.5 -10.017517,32.053772c-7.844971,7.283752 -20.058716,9.203735 -32.576233,9.207458c-12.534973,0 -25.424988,-1.94873 -34.588745,-2.582458"/>
   <path fill="#61281f" fill-rule="nonzero" id="path430" d="m210.83252,336.73999c-9.960022,-0.003784 -20.867493,-2.293762 -30.467529,-3.36377c-45.526245,-5.085022 -90.847473,-4.857483 -136.578735,-6.719971c-9.878723,-0.411255 -19.513733,-0.445007 -26.789978,-2.956299c-7.288757,-2.482483 -12.20752,-7.704956 -12.16748,-17.963745c0,-1.459961 0.096191,-3.02124 0.296204,-4.693726c1.60376,-13.60376 2.340027,-26.285034 2.340027,-39.076233c0,-11.188782 -0.563782,-22.465027 -1.595032,-34.516296l0.547546,-0.046204l0.548706,-0.046265c1.035034,12.07373 1.600037,23.381226 1.600037,34.608765c0,12.83374 -0.741272,25.5625 -2.350037,39.206238c-0.193726,1.633728 -0.288757,3.153748 -0.288757,4.563721c0.04126,9.905029 4.450012,14.462524 11.430054,16.923767c6.993713,2.42627 16.57373,2.494995 26.471252,2.89502c45.699951,1.863708 91.047485,1.63623 136.657471,6.72876c9.673767,1.079956 20.548767,3.358704 30.346252,3.353699c12.768738,-0.044983 23.487488,-3.731201 27.857483,-18.887451c3.530029,-12.35376 4.643799,-25.901306 4.643799,-39.737549c0,-20.581238 -2.463806,-41.801208 -3.033752,-60.722473c-0.161255,-5.243774 -0.23877,-10.453735 -0.236267,-15.642517c0,-28.909973 2.32373,-57.067444 5.339966,-86.033752c0.405029,-3.882446 0.622498,-7.463745 0.622498,-10.752441c-0.10498,-20.653809 -8.283752,-29.70752 -34.082458,-30.856262c-4.82251,-0.193787 -9.643738,-0.278748 -14.460022,-0.278748c-31.253723,0 -62.404968,3.543701 -93.776245,3.543701c-9.16748,0 -18.35376,-0.30249 -27.5625,-1.082458c-12.82251,-1.095032 -27.741272,-4.850037 -41.327515,-4.847534c-3.91748,0 -7.719971,0.311279 -11.32373,1.080017c-6.803772,1.470032 -10.262512,4.86377 -12.155029,9.42749c-1.883728,4.57251 -2.097473,10.369995 -2.09375,16.41626c0,1.57373 0.011292,3.162476 0.011292,4.755005c0,2.755005 -0.040039,5.51123 -0.261292,8.188721c-2.103699,25.126282 -3.733704,50.187531 -3.733704,75.282532c0,13.9375 0.5,27.88501 1.704956,41.867493l-0.548706,0.046265l-0.547546,0.046204c-1.20874,-14.018738 -1.70874,-27.997498 -1.711243,-41.959961c0.002502,-25.142487 1.63501,-50.233765 3.73877,-75.375c0.217468,-2.623779 0.258728,-5.352478 0.257507,-8.096252c0.001221,-1.585022 -0.008789,-3.174988 -0.01123,-4.755005c0.003723,-6.068726 0.191223,-11.983765 2.17749,-16.83374c1.97876,-4.856262 5.861206,-8.590027 12.938721,-10.086243c3.702515,-0.790039 7.58374,-1.10376 11.557495,-1.10376c13.778748,0.002502 28.72876,3.773743 41.421265,4.849976c9.169983,0.778748 18.325012,1.080017 27.46875,1.077515c31.289978,0.002502 62.440002,-3.539978 93.776245,-3.54248c4.831238,0.002502 9.664978,0.087463 14.503784,0.28125c26.029968,0.933716 35.244995,10.9375 35.138733,31.955017c0,3.337463 -0.220032,6.953735 -0.628784,10.86499c-3.012451,28.952454 -5.33374,57.072479 -5.33374,85.921204c0,5.178772 0.073792,10.377502 0.232483,15.608765c0.568787,18.85376 3.036255,40.091248 3.036255,60.756226c0,13.896301 -1.113708,27.540039 -4.683716,40.038757c-4.42627,15.600037 -15.861267,19.688782 -28.705017,19.688782l-0.211243,0"/>
  </g>
 </g>
</svg>