<?xml version="1.0" encoding="UTF-8" standalone="no"?>
<!-- Generator: Adobe Illustrator 16.0.4, SVG Export Plug-In . SVG Version: 6.00 Build 0)  -->

<svg
   xmlns:dc="http://purl.org/dc/elements/1.1/"
   xmlns:cc="http://creativecommons.org/ns#"
   xmlns:rdf="http://www.w3.org/1999/02/22-rdf-syntax-ns#"
   xmlns:svg="http://www.w3.org/2000/svg"
   xmlns="http://www.w3.org/2000/svg"
   xmlns:sodipodi="http://sodipodi.sourceforge.net/DTD/sodipodi-0.dtd"
   xmlns:inkscape="http://www.inkscape.org/namespaces/inkscape"
   version="1.1"
   id="Capa_1"
   x="0px"
   y="0px"
   width="48px"
   height="48px"
   viewBox="0 0 48 48"
   style="enable-background:new 0 0 48 48;"
   xml:space="preserve"
   inkscape:version="0.48.5 r10040"
   sodipodi:docname="instagram.svg"><metadata
     id="metadata56"><rdf:RDF><cc:Work
         rdf:about=""><dc:format>image/svg+xml</dc:format><dc:type
           rdf:resource="http://purl.org/dc/dcmitype/StillImage" /></cc:Work></rdf:RDF></metadata><defs
     id="defs54" /><sodipodi:namedview
     pagecolor="#ffffff"
     bordercolor="#666666"
     borderopacity="1"
     objecttolerance="10"
     gridtolerance="10"
     guidetolerance="10"
     inkscape:pageopacity="0"
     inkscape:pageshadow="2"
     inkscape:window-width="1334"
     inkscape:window-height="827"
     id="namedview52"
     showgrid="false"
     inkscape:zoom="4.574097"
     inkscape:cx="-0.17821593"
     inkscape:cy="15.255105"
     inkscape:window-x="0"
     inkscape:window-y="0"
     inkscape:window-maximized="0"
     inkscape:current-layer="Instagram" /><g
     id="Instagram"
     style="fill:#484a4c;fill-opacity:0.28502419;stroke:#484a4c;stroke-opacity:0.50222222"
     transform="translate(-0.437245,0.43724477)"><path
       d="m 5.583,13 c -0.553,0 -1,-0.447 -1,-1 V 3 c 0,-0.553 0.447,-1 1,-1 0.553,0 1,0.447 1,1 v 9 c 0,0.553 -0.447,1 -1,1 z"
       id="path4"
       style="fill:#e62f20;fill-opacity:0.58454108;stroke:#484a4c;stroke-opacity:0.50222222000000005"
       inkscape:connector-curvature="0" /><path
       d="m 8.958,13 c -0.553,0 -1,-0.447 -1,-1 V 2.25 c 0,-0.553 0.447,-1 1,-1 0.553,0 1,0.447 1,1 V 12 c 0,0.553 -0.447,1 -1,1 z"
       id="path6"
       style="fill:#1f6729;fill-opacity:0.68115944;stroke:#484a4c;stroke-opacity:0.50222222000000005"
       inkscape:connector-curvature="0" /><path
       d="m 12.333,13 c -0.553,0 -1,-0.447 -1,-1 V 2.25 c 0,-0.553 0.447,-1 1,-1 0.553,0 1,0.447 1,1 V 12 c 0,0.553 -0.447,1 -1,1 z"
       id="path8"
       style="fill:#154acc;fill-opacity:0.59420288;stroke:#484a4c;stroke-opacity:0.50222222000000005"
       inkscape:connector-curvature="0" /><path
       d="M 37.292,47.344133 H 11.917 c -7.5730002,0 -11.91700017707025,-3.986 -11.91700017707025,-10.938 v -24.937 C -1.7707025e-7,4.217133 4.2699998,-0.65586704 10.625,-0.65586704 h 27.584 c 4.709,0 9.791,4.52400004 9.791,11.83400004 v 25.083 c 0,6.215 -4.703,11.083 -10.708,11.083 z m -26.667,-46 c -6.3660002,0 -8.6250002,5.454 -8.6250002,10.125 v 24.938 c 0,7.386 5.393,8.937 9.9170002,8.937 h 25.375 c 4.965,0 8.708,-3.905 8.708,-9.083 v -25.083 c 0,-6.074 -4.044,-9.834 -7.791,-9.834 H 10.625 z"
       id="path10"
       style="fill:#484a4c;fill-opacity:0.28502419;stroke:#484a4c;stroke-opacity:0.50222222"
       inkscape:connector-curvature="0" /><path
       d="m 23.999,15.25 c -4.234,0 -7.667,3.434 -7.667,7.668 0,4.234 3.433,7.666 7.667,7.666 4.234,0 7.667,-3.432 7.667,-7.666 0,-4.234 -3.433,-7.668 -7.667,-7.668 z m 0,11.5 c -2.117,0 -3.834,-1.716 -3.834,-3.833 0,-2.117 1.717,-3.834 3.834,-3.834 2.117,0 3.834,1.717 3.834,3.834 0,2.117 -1.717,3.833 -3.834,3.833 z"
       id="path12"
       style="fill:#484a4c;fill-opacity:0.28502419;stroke:#484a4c;stroke-opacity:0.50222222"
       inkscape:connector-curvature="0" /><path
       d="m 23.999,35.084 c -6.709,0 -12.167,-5.458 -12.167,-12.167 0,-6.709 5.458,-12.167 12.167,-12.167 6.709,0 12.167,5.458 12.167,12.167 0,6.709 -5.458,12.167 -12.167,12.167 z m 0,-22.334 c -5.606,0 -10.167,4.561 -10.167,10.167 0,5.606 4.561,10.167 10.167,10.167 5.606,0 10.167,-4.561 10.167,-10.167 0,-5.606 -4.561,-10.167 -10.167,-10.167 z"
       id="path14"
       style="fill:#484a4c;fill-opacity:0.28502419;stroke:#484a4c;stroke-opacity:0.50222222"
       inkscape:connector-curvature="0" /><rect
       x="32.999001"
       y="14.92"
       width="14"
       height="2.1600001"
       id="rect16"
       style="fill:#484a4c;fill-opacity:0.28502419;stroke:#484a4c;stroke-opacity:0.50222222" /><rect
       x="1.499"
       y="14.949"
       width="13.25"
       height="2.102"
       id="rect18"
       style="fill:#484a4c;fill-opacity:0.28502419;stroke:#484a4c;stroke-opacity:0.50222222" /><path
       d="m 41.333,10.133 c 0,1.215 -0.986,2.201 -2.202,2.201 h -3.264 c -1.216,0 -2.202,-0.986 -2.202,-2.201 V 6.867 c 0,-1.215 0.986,-2.201 2.202,-2.201 h 3.264 c 1.216,0 2.202,0.986 2.202,2.201 v 3.266 z"
       id="path20"
       style="opacity:0.22916667;fill:#484a4c;fill-opacity:0.28502419;stroke:#484a4c;stroke-opacity:0.50222222"
       inkscape:connector-curvature="0" /><path
       style="fill:#484a4c;fill-opacity:0.28627452;stroke:#484a4c;stroke-width:0.20338982000000000;stroke-opacity:0.50196081000000004"
       d="m 35.183973,11.93172 c -0.985417,-0.500462 -1.197532,-1.111614 -1.197532,-3.4503641 0,-3.1735066 0.366661,-3.5894645 3.282378,-3.7236856 3.529495,-0.1624755 4.139384,0.4080009 4.14059,3.8730191 7.33e-4,2.1248356 -0.0151,2.2009986 -0.592296,2.8474576 l -0.593056,0.664226 -2.203554,0.05541 c -1.691155,0.04252 -2.350741,-0.01934 -2.83653,-0.266061 z"
       id="path3837"
       inkscape:connector-curvature="0" /><path
       style="fill:#484a4c;fill-opacity:0.28502419;stroke:#484a4c;stroke-width:0.20338982;stroke-opacity:0.50222222"
       d="m 22.857045,30.333928 c -2.450873,-0.398462 -4.602861,-2.058992 -5.696151,-4.3953 -0.539859,-1.153651 -0.625301,-1.565844 -0.625301,-3.016594 0,-1.450751 0.08544,-1.862943 0.625301,-3.016595 2.466117,-5.269971 9.145209,-6.062936 12.801192,-1.519802 1.991335,2.474546 2.00781,6.54568 0.0366,9.043721 -1.746618,2.213422 -4.501403,3.333818 -7.14164,2.90457 z m 2.355154,-3.695148 c 1.168314,-0.350035 2.245374,-1.491468 2.550398,-2.702827 0.793727,-3.152174 -2.276161,-5.89549 -5.220591,-4.665229 -3.313332,1.384399 -3.257491,6.128559 0.08617,7.320737 0.984603,0.351059 1.536498,0.361166 2.584025,0.04732 l 0,0 z"
       id="path3839"
       inkscape:connector-curvature="0" /></g><g
     id="g22" /><g
     id="g24" /><g
     id="g26" /><g
     id="g28" /><g
     id="g30" /><g
     id="g32" /><g
     id="g34" /><g
     id="g36" /><g
     id="g38" /><g
     id="g40" /><g
     id="g42" /><g
     id="g44" /><g
     id="g46" /><g
     id="g48" /><g
     id="g50" /><path
     style="fill:#484a4c;fill-opacity:0.28888891;stroke:#484a4c;stroke-width:0.20338982;stroke-opacity:0.50222222"
     d="m 21.90389,29.712892 c -1.94905,-0.587342 -3.940772,-2.53223 -4.604581,-4.496308 -0.406566,-1.20295 -0.410718,-3.446713 -0.0085,-4.58492 0.71024,-2.009771 2.480434,-3.770256 4.465191,-4.4407 1.489555,-0.503167 3.971388,-0.319228 5.372963,0.398212 1.4224,0.728099 2.60707,1.943787 3.268045,3.353611 0.457512,0.97585 0.538568,1.424235 0.538568,2.979247 0,1.555012 -0.08106,2.003397 -0.538568,2.979246 -1.159017,2.472122 -3.367842,3.894027 -6.173296,3.973987 -0.894915,0.02551 -1.938843,-0.04756 -2.319839,-0.162375 z m 4.386545,-3.148965 c 1.346678,-0.832587 2.173516,-2.397306 2.054036,-3.887085 -0.196873,-2.454766 -2.287629,-4.263408 -4.693619,-4.06029 -2.82055,0.238116 -4.683261,3.052917 -3.79712,5.73795 0.316408,0.958727 1.781941,2.447651 2.676957,2.719683 1.173778,0.35676 2.690272,0.150948 3.759746,-0.510258 l 0,0 z"
     id="path3855"
     inkscape:connector-curvature="0" /><path
     style="fill:#484a4c;fill-opacity:0.28888891;stroke:#48d34c;stroke-width:0.20338982;stroke-opacity:0.03111112"
     d="m 21.657981,29.466819 c -0.978705,-0.365493 -1.759978,-0.93935 -2.768601,-2.033577 -1.295518,-1.40547 -1.544639,-2.033996 -1.643036,-4.14533 -0.08144,-1.747565 -0.0471,-1.956191 0.518938,-3.152542 0.769175,-1.625687 1.843408,-2.699553 3.470618,-3.469434 1.176424,-0.556601 1.422159,-0.599639 2.949153,-0.516515 2.059421,0.112107 3.34394,0.645525 4.654582,1.932894 1.40368,1.378754 1.875105,2.591575 1.881205,4.839719 0.0042,1.55202 -0.07561,2.003372 -0.524679,2.966742 -1.125017,2.413469 -3.154153,3.678901 -6.074127,3.788014 -1.104675,0.04128 -1.994251,-0.03453 -2.464053,-0.209971 z m 4.201281,-2.554208 c 1.534124,-0.696856 2.533958,-2.312968 2.533958,-4.09584 0,-3.243961 -3.61082,-5.331655 -6.48095,-3.747137 -1.810721,0.999648 -2.772616,3.085207 -2.275103,4.932829 0.252701,0.938459 1.357109,2.309931 2.349274,2.917366 0.814716,0.498796 2.766843,0.495158 3.872821,-0.0072 l 0,0 z"
     id="path3865"
     inkscape:connector-curvature="0" /><path
     style="fill:none;stroke:#48d34c;stroke-width:0.20338982;stroke-opacity:0.03111112"
     d="m -30.189026,49.985413 c -2.200945,-1.105793 -2.200945,-4.486795 0,-5.592588 1.529467,-0.768431 3.391594,-0.242294 4.212939,1.190348 0.603292,1.052299 0.589363,2.164687 -0.04057,3.239576 -0.838839,1.431371 -2.639074,1.93302 -4.172374,1.162664 l 0,0 z"
     id="path3871"
     inkscape:connector-curvature="0" /><path
     style="fill:none;stroke:#48d34c;stroke-width:0.20338982;stroke-opacity:0.03111112"
     d="m -72.464074,113.42491 c -2.366128,-0.5193 -4.208429,-1.74423 -5.233603,-3.47978 -0.999843,-1.69266 -1.088191,-2.80525 -1.092012,-13.75191 l -0.0035,-10.118644 4.865962,0 4.865963,0 -0.421643,1.169492 c -0.590481,1.63779 -0.732979,5.170389 -0.281155,6.96997 0.600199,2.390547 1.642026,4.19809 3.460314,6.003562 2.586643,2.5684 5.42575,3.75871 8.949873,3.75228 3.565381,-0.007 6.421981,-1.20125 8.973956,-3.75322 1.888523,-1.888525 2.96038,-3.811097 3.477376,-6.237319 0.495433,-2.325028 0.231742,-5.466077 -0.633722,-7.548833 -0.138475,-0.333247 0.165527,-0.355932 4.7699,-0.355932 l 4.917802,0 -0.07647,10.423729 c -0.07294,9.942115 -0.09604,10.478355 -0.500062,11.606015 -0.854819,2.38588 -2.525134,4.16211 -4.785718,5.08917 -1.063336,0.43607 -1.216021,0.44078 -15.514583,0.47835 -11.735336,0.0308 -14.683842,-0.0154 -15.73865,-0.24693 l 0,0 z"
     id="path3873"
     inkscape:connector-curvature="0" /><path
     style="fill:none;stroke:#48d34c;stroke-width:0.20338982;stroke-opacity:0.03111112"
     d=""
     id="path3875"
     inkscape:connector-curvature="0" /><path
     style="fill:none;stroke:none;stroke-width:0.20338982000000000;stroke-opacity:0.03111112000000000"
     d="m 34.784445,11.331748 c -0.319766,-0.319766 -0.433162,-0.617605 -0.360404,-0.946613 0.0844,-0.381659 0.0615,-0.4175197 -0.111758,-0.174966 -0.160997,0.225395 -0.218732,-0.2128992 -0.221033,-1.6779656 -0.0018,-1.145748 0.08007,-1.9830509 0.193892,-1.9830509 0.108354,0 0.148553,-0.1262688 0.08933,-0.2805973 -0.05956,-0.1551973 0.137348,-0.4733323 0.440592,-0.7118644 0.47855,-0.3764277 0.816339,-0.4312671 2.656432,-0.4312671 1.269849,0 2.108164,0.080878 2.108164,0.2033899 0,0.1118644 0.06864,0.1925512 0.152542,0.1793041 0.394696,-0.06232 0.673827,0.042203 0.568372,0.2128322 -0.06416,0.1038106 0.06906,0.2476882 0.296035,0.3197281 0.226978,0.07204 0.352227,0.2288068 0.278333,0.3483709 -0.0739,0.1195641 -0.132141,1.1802243 -0.129435,2.3570224 0.0046,2.0071957 -0.02564,2.1679587 -0.488864,2.5972567 -0.450584,0.417587 -0.691147,0.457508 -2.74971,0.456304 -2.080169,-0.0012 -2.292275,-0.03767 -2.722489,-0.467884 z"
     id="path3879"
     inkscape:connector-curvature="0" /></svg>