<?xml version="1.0" encoding="UTF-8" standalone="no"?>
<!-- Created with Inkscape (http://www.inkscape.org/) -->

<svg
   xmlns:dc="http://purl.org/dc/elements/1.1/"
   xmlns:cc="http://creativecommons.org/ns#"
   xmlns:rdf="http://www.w3.org/1999/02/22-rdf-syntax-ns#"
   xmlns:svg="http://www.w3.org/2000/svg"
   xmlns="http://www.w3.org/2000/svg"
   xmlns:sodipodi="http://sodipodi.sourceforge.net/DTD/sodipodi-0.dtd"
   xmlns:inkscape="http://www.inkscape.org/namespaces/inkscape"
   width="320.02505"
   height="110.32451"
   id="svg5367"
   version="1.1"
   inkscape:version="0.48.5 r10040"
   sodipodi:docname="arrival.svg">
  <defs
     id="defs5369">
    <filter
       color-interpolation-filters="sRGB"
       id="filter3776"
       inkscape:collect="always">
      <feGaussianBlur
         id="feGaussianBlur3778"
         stdDeviation="0.62526606"
         inkscape:collect="always" />
    </filter>
  </defs>
  <sodipodi:namedview
     id="base"
     pagecolor="#ffffff"
     bordercolor="#666666"
     borderopacity="1.0"
     inkscape:pageopacity="0.0"
     inkscape:pageshadow="2"
     inkscape:zoom="4.6765869"
     inkscape:cx="258.836"
     inkscape:cy="54.056516"
     inkscape:document-units="px"
     inkscape:current-layer="layer7"
     showgrid="false"
     fit-margin-top="0"
     fit-margin-left="0"
     fit-margin-right="0"
     fit-margin-bottom="0"
     inkscape:window-width="1440"
     inkscape:window-height="852"
     inkscape:window-x="0"
     inkscape:window-y="0"
     inkscape:window-maximized="0" />
  <metadata
     id="metadata5372">
    <rdf:RDF>
      <cc:Work
         rdf:about="">
        <dc:format>image/svg+xml</dc:format>
        <dc:type
           rdf:resource="http://purl.org/dc/dcmitype/StillImage" />
      </cc:Work>
    </rdf:RDF>
  </metadata>
  <g
     inkscape:label="Layer 1"
     inkscape:groupmode="layer"
     id="layer1"
     transform="translate(-161.18927,-128.7082)" />
  <g
     inkscape:groupmode="layer"
     id="layer3"
     inkscape:label="car"
     style="display:inline"
     transform="translate(-161.18927,-128.7082)">
    <g
       id="g6553"
       transform="translate(135.52028,104.95003)">
      <title
         id="title6555">Layer 1</title>
      <path
         d="m 193.93765,112.56984 -7.97998,0 c -0.44623,0 -0.81,0.30499 -0.81,0.68127 l 0,2.49246 c 0,0.37625 0.36377,0.68125 0.81,0.68125 l 7.97998,0 c 0.45007,0 0.8125,-0.305 0.8125,-0.68125 l 0,-2.49246 c 0,-0.37628 -0.36243,-0.68127 -0.8125,-0.68127"
         id="path302"
         inkscape:connector-curvature="0"
         style="fill:#505256;fill-rule:nonzero;stroke:#000000;stroke-opacity:0.71372548999999996;fill-opacity:0.72888887" />
      <path
         d="m 249.31765,109.16984 c -5.47125,0 -9.92376,4.45255 -9.92376,9.9238 0,5.46997 4.45251,9.91998 9.92376,9.91998 5.46875,0 9.91999,-4.45001 9.91999,-9.91998 0,-5.47125 -4.45124,-9.9238 -9.91999,-9.9238"
         id="path304"
         inkscape:connector-curvature="0"
         style="fill:#505256;fill-rule:nonzero;stroke:#000000;stroke-opacity:0.71372548999999996;fill-opacity:0.43137255" />
      <path
         d="m 249.31765,123.09608 c -2.20874,0 -4.00622,-1.79498 -4.00622,-4.0025 0,-2.21002 1.79748,-4.00623 4.00622,-4.00623 2.2063,0 4.00507,1.79621 4.00507,4.00623 0,2.20752 -1.79877,4.0025 -4.00507,4.0025"
         id="path306"
         inkscape:connector-curvature="0"
         style="fill:#ffffff;fill-rule:nonzero;stroke:#000000;stroke-opacity:0.71372549" />
      <path
         d="m 208.22513,109.17106 c -5.46998,0 -9.92249,4.45124 -9.92249,9.92252 0,5.47003 4.45252,9.92004 9.92249,9.92004 5.46875,0 9.92126,-4.45001 9.92126,-9.92004 0,-5.47128 -4.45251,-9.92252 -9.92126,-9.92252"
         id="path308"
         inkscape:connector-curvature="0"
         style="fill:#505256;fill-rule:nonzero;stroke:#000000;stroke-opacity:0.71372548999999996;fill-opacity:0.43137255" />
      <path
         d="m 208.22513,123.09608 c -2.20752,0 -4.00623,-1.79498 -4.00623,-4.0025 0,-2.21002 1.79871,-4.00623 4.00623,-4.00623 2.20629,0 4.00506,1.79621 4.00506,4.00623 0,2.20752 -1.79877,4.0025 -4.00506,4.0025"
         id="path310"
         inkscape:connector-curvature="0"
         style="fill:#ffffff;fill-rule:nonzero;stroke:#000000;stroke-opacity:0.71372549" />
      <path
         d="m 275.99148,105.04982 c -1.32751,0 -2.40381,1.16745 -2.40381,2.60626 0,1.43869 1.0763,2.60629 2.40381,2.60629 0.35126,0 0.68122,-0.0851 0.98242,-0.23132 -0.0225,-1.75629 -0.14495,-3.50128 -0.45373,-4.91251 -0.16998,-0.0425 -0.34497,-0.0687 -0.52869,-0.0687"
         id="path312"
         inkscape:connector-curvature="0"
         style="fill:#d5e9e3;fill-rule:nonzero;stroke:#000000;stroke-opacity:0.71372549" />
      <path
         d="m 273.58767,107.65608 c 0,-1.43875 1.0763,-2.60626 2.40381,-2.60626 0.18372,0 0.35871,0.0262 0.52869,0.0688 -0.16126,-0.73129 -0.36877,-1.37634 -0.64124,-1.88385 -2.03747,-3.786253 -22.89251,-5.904937 -22.89251,-5.904937 0,0 -11.55493,-14.192505 -13.36872,-15.235046 -1.81378,-1.043732 -7.61755,-1.478729 -13.60253,-1.478729 -5.98621,0 -14.09748,0.40625 -15.46619,1.776245 -1.37,1.370026 -11.1875,10.873718 -13.29498,15.365021 -0.30384,0.647491 -4.80255,0.40625 -6.96625,0.40625 -2.1651,0 -2.57257,19.918766 -2.57386,19.918766 -0.0912,0.25 -0.0575,0.52997 0.095,0.74622 0.15124,0.21875 0.40124,0.34875 0.66632,0.34875 l 7.92492,0 -0.005,-0.0837 c 0,-6.52374 5.30743,-11.83002 11.82996,-11.83002 6.52124,0 11.82757,5.30628 11.82757,11.83002 l -0.003,0.0837 17.4425,0 -0.006,-0.0837 c 0,-6.52374 5.30749,-11.83002 11.83124,-11.83002 6.52124,0 11.82751,5.30628 11.82751,11.83002 l -0.002,0.0837 14.53998,0 c 0.44885,0 0.8125,-0.36377 0.8125,-0.8125 0,0 0.52508,-4.19373 0.47876,-8.33377 -0.30121,0.14624 -0.63117,0.23132 -0.98242,0.23132 -1.32752,0 -2.40381,-1.1676 -2.40381,-2.60629"
         id="path314"
         inkscape:connector-curvature="0"
         style="fill:#d54425;fill-opacity:0.5688889;fill-rule:nonzero;stroke:#000000;stroke-opacity:0.71372548999999996" />
      <path
         d="m 223.98648,97.588571 c 0,0.223755 -0.1825,0.40625 -0.40631,0.40625 l -21.72748,0 c -0.16004,0 -0.30628,-0.09628 -0.36994,-0.241302 -0.0663,-0.148712 -0.0387,-0.318695 0.0712,-0.437469 l 10.7663,-12.949982 c 0.075,-0.08499 0.18371,-0.133759 0.29999,-0.133759 l 11.00744,-0.01627 c 0.22376,0 0.40625,0.181274 0.40625,0.406281 l -0.0474,12.966248"
         id="path316"
         inkscape:connector-curvature="0"
         style="fill:#ffffff;fill-rule:nonzero;stroke:#000000;stroke-opacity:0.71372548999999996;fill-opacity:1" />
      <path
         d="m 248.34268,97.766031 c -0.0662,0.140076 -0.20752,0.22879 -0.36377,0.22879 l -20.89996,0 c -0.22254,0 -0.40625,-0.182495 -0.40625,-0.40625 l -0.14997,-12.918793 c 0,-0.223755 0.18128,-0.404968 0.40369,-0.404968 l 11.45874,0.09872 c 0.125,0 0.24377,0.05624 0.31879,0.153748 l 9.59375,12.819977 c 0.0962,0.122528 0.11377,0.288757 0.045,0.428772"
         id="path318"
         inkscape:connector-curvature="0"
         style="fill:#ffffff;fill-rule:nonzero;stroke:#000000;stroke-opacity:0.71372548999999996;fill-opacity:1" />
      <path
         d="m 275.9114,119.73732 -14.80749,0 c 0.0262,-1.71503 -0.26123,-3.3125 -0.26123,-3.3125 l 15.8512,0 c 0,0 -0.0325,3.3125 -0.78248,3.3125"
         id="path320"
         inkscape:connector-curvature="0"
         style="fill:#d5e9e3;fill-rule:nonzero;stroke:#000000;stroke-opacity:0.71372549" />
    </g>
  </g>
  <g
     inkscape:groupmode="layer"
     id="layer7"
     inkscape:label="sign"
     transform="translate(-161.18927,-128.7082)">
    <g
       id="g6767"
       transform="matrix(0.17818481,0,0,0.17818481,415.71513,175.30762)">
      <g
         style="display:none"
         inkscape:label="background2"
         id="layer4">
        <rect
           y="-1.9333578"
           x="0"
           height="281.01004"
           width="353.50247"
           id="rect3906"
           style="fill:#ff0000;fill-opacity:1;stroke:none" />
        <path
           inkscape:connector-curvature="0"
           id="path3908"
           d="M 25.314851,117.77204 C 12.584583,116.42825 7.6350982,114.51659 5.3262762,110.05183 3.8976471,107.28916 3.8165517,105.78876 3.7888541,81.606973 3.7520678,49.490175 3.7797163,48.931424 5.6447947,44.099994 7.1936768,40.087661 12.119512,32.270025 12.700774,32.901673 c 0.122105,0.132689 -0.13056,10.137692 -0.561476,22.233341 -0.430916,12.095649 -0.666613,26.970039 -0.52377,33.0542 0.25047,10.668415 0.347047,11.203292 2.713638,15.029046 4.758799,7.69293 2.019472,7.30214 51.304515,7.31904 52.722339,0.0181 63.709179,0.25229 60.153739,1.28228 -1.41043,0.4086 -3.7361,2.07737 -5.16814,3.70837 l -2.60371,2.96546 -7.45694,-0.71211 c -8.89457,-0.84938 -32.157467,-0.93507 -61.215385,-0.22547 -11.647662,0.28443 -22.460439,0.38173 -24.028394,0.21621 l 0,0 z"
           style="fill:#ff0000;fill-opacity:1;stroke:none" />
      </g>
      <g
         inkscape:label="background"
         id="layer3-4"
         transform="matrix(0.97094363,0.23930829,-0.23930829,0.97094363,38.412456,-38.102934)">
        <path
           inkscape:connector-curvature="0"
           id="path3883"
           d="m 131.40632,272.61978 c -2.63863,-1.14686 -2.64722,-1.16984 -2.65388,-7.09519 -0.004,-3.26953 -0.35923,-9.06015 -0.79011,-12.86804 -2.11123,-18.65769 -2.47969,-28.78851 -2.88878,-79.42694 -0.37912,-46.92811 -0.27503,-54.81097 0.74212,-56.20201 1.00219,-1.37058 2.1374,-1.61797 7.42448,-1.61797 6.00508,0 6.33036,0.0996 8.59144,2.63017 l 2.35006,2.63017 -0.49786,36.05962 c -0.53047,38.42119 0.17093,56.56373 3.06303,79.22927 2.1389,16.76255 2.10505,29.23468 -0.0891,32.83352 -2.79834,4.58982 -9.58105,6.29197 -15.2514,3.8274 z"
           style="fill:#ffffff;fill-opacity:1;stroke:none" />
        <path
           inkscape:connector-curvature="0"
           id="path3885"
           d="m 175.7126,107.9259 c -0.30817,-0.30817 -34.18209,-0.76633 -75.2754,-1.01815 -72.602294,-0.44491 -74.80722,-0.50393 -77.973175,-2.08691 -2.151272,-1.07563 -3.913253,-2.82651 -5.186673,-5.153993 -2.249664,-4.111805 -2.314579,-5.666016 -1.808689,-43.304101 l 0.322884,-24.022445 2.382189,-2.225297 c 5.225395,-4.88125 16.319429,-6.105047 39.644586,-4.373246 25.820158,1.917045 44.049138,2.783852 78.678758,3.741256 17.0235,0.470648 38.09926,1.206693 46.835,1.635654 20.48712,1.006002 50.24837,0.988384 68.81173,-0.04073 22.11557,-1.226047 29.03101,0.04691 39.92694,7.34951 3.1359,2.101731 9.19231,6.170931 13.45867,9.042668 4.26637,2.871736 14.08673,9.253221 21.82304,14.181078 7.7363,4.927857 14.99051,9.695554 16.12047,10.594882 l 2.05446,1.635141 -4.83834,3.412091 c -10.01962,7.066026 -28.52543,15.841743 -48.21104,22.862372 -13.81203,4.92588 -21.81717,6.71485 -33.72512,7.53679 -12.47055,0.86078 -82.21688,1.05683 -83.04029,0.23344 l 0,0 z m 3.02691,-13.693839 c 0.51832,-1.350737 3.77805,-1.702124 3.77805,-0.407261 0,0.447987 0.5332,0.814522 1.18488,0.814522 1.98605,0 2.48693,-5.191001 2.35195,-24.375549 -0.22888,-32.532249 -0.98755,-36.282949 -6.99148,-34.564586 l -2.65426,0.759665 -0.23042,8.651397 -0.23042,8.651398 -2.44779,-1.221118 c -2.97049,-1.481878 -6.33927,-1.922725 -8.04573,-1.052881 -0.69491,0.354222 -2.82272,1.060045 -4.72848,1.568495 -2.24887,0.599992 -3.95754,1.698798 -4.86831,3.130706 -0.77183,1.213439 -1.66436,2.397359 -1.98342,2.630933 -0.86936,0.63643 -1.09709,16.807916 -0.31291,22.220091 0.58653,4.048009 1.22226,5.297992 4.43538,8.720911 3.22149,3.43184 4.29165,4.055114 7.58446,4.417284 2.10857,0.231916 4.03325,0.0989 4.27706,-0.295594 0.24381,-0.394493 1.17599,-0.525654 2.07152,-0.291469 0.91007,0.237988 1.62823,0.02463 1.62823,-0.483728 0,-1.582147 2.23458,-0.982113 2.67957,0.719523 0.50245,1.921356 1.8377,2.138691 2.50212,0.407261 l 0,0 z M 80.702335,93.723898 c 0.67198,0.01399 2.775062,0.197962 4.673514,0.408814 1.898452,0.210851 3.661125,0.04456 3.917049,-0.369534 0.255925,-0.414095 1.305328,-0.752899 2.332006,-0.752899 6.094396,0 10.208586,-4.485459 10.315366,-11.246233 0.0332,-2.102332 0.3157,-5.471828 0.62775,-7.487769 0.35107,-2.268043 0.18643,-4.752141 -0.43189,-6.516175 -0.54959,-1.567954 -1.01534,-3.977225 -1.035,-5.353935 -0.0476,-3.332523 -6.650432,-10.499134 -10.420903,-11.310682 -1.942521,-0.418104 -2.650516,-0.28152 -2.659669,0.513094 -0.01003,0.871424 -0.151301,0.863685 -0.723455,-0.03963 -0.439643,-0.694111 -1.128842,-0.864254 -1.805881,-0.445821 -2.971855,1.836708 -3.763415,1.010546 -4.196076,-4.379502 -0.231939,-2.889474 -0.739662,-5.482281 -1.128273,-5.761794 -0.388611,-0.279513 -0.756351,-1.539972 -0.8172,-2.801021 -0.147723,-3.061438 -0.452383,-3.236237 -3.176885,-1.822749 -2.085899,1.082177 -2.480714,1.070078 -3.791528,-0.116191 -0.804746,-0.728286 -1.735829,-1.052104 -2.069072,-0.719595 -1.042467,1.040166 -1.510562,43.486261 -0.554754,50.304208 1.110581,7.921969 2.058461,9.163981 6.431236,8.426876 1.810535,-0.305198 3.841684,-0.543453 4.513665,-0.529457 z m 52.569155,-0.320449 c 4.54315,-1.156578 5.55518,-1.87352 9.23251,-6.540495 0.36964,-0.469113 0.93056,-4.711941 1.24651,-9.428506 0.45331,-6.767168 0.30981,-9.335547 -0.68044,-12.179416 -0.69019,-1.982114 -1.26022,-4.40298 -1.26675,-5.379704 -0.0149,-2.230139 -7.28342,-10.242586 -9.43544,-10.40113 -0.8806,-0.06488 -2.12282,-0.4404 -2.76048,-0.834499 -0.75578,-0.467096 -1.28134,-0.350697 -1.50969,0.334355 -0.26943,0.808272 -0.49103,0.823205 -0.95982,0.06468 -0.46364,-0.750179 -0.87292,-0.704255 -1.71002,0.191879 -0.60528,0.647954 -1.75277,1.007528 -2.54998,0.799054 -0.7972,-0.208474 -1.44946,0.03024 -1.44946,0.530477 0,0.500236 -0.6645,0.90952 -1.47666,0.90952 -1.55811,0 -5.0571,3.313964 -6.52851,6.183259 -1.71406,3.342503 -3.31885,8.839081 -2.70525,9.265821 0.3433,0.238753 0.60273,4.309019 0.57653,9.045037 -0.0556,10.057784 1.49299,14.367506 5.45038,15.167995 1.23197,0.249198 2.23994,0.763326 2.23994,1.142505 0,0.813302 4.41337,2.186835 7.3632,2.291579 1.13784,0.0404 4.25339,-0.482683 6.92343,-1.162413 l 0,0 z m 84.24572,-0.904557 c 2.26789,-1.908316 2.65007,-2.000622 3.5242,-0.851198 1.29524,1.703148 4.89765,2.991628 8.36418,2.991628 2.65977,0 2.7978,-0.142054 2.7978,-2.879483 0,-1.583717 -0.5,-3.691292 -1.11111,-4.683501 -0.89038,-1.445627 -0.97952,-4.231236 -0.44874,-14.021844 0.89433,-16.496437 0.13995,-18.987283 -6.75311,-22.297968 -4.36593,-2.096919 -9.02281,-1.865211 -15.08911,0.750774 -5.69637,2.456466 -10.78114,12.196171 -6.93887,13.291156 0.78398,0.22342 3.25809,0.339754 5.49803,0.25852 3.99583,-0.144916 4.07756,-0.199477 4.33525,-2.894228 0.25857,-2.703884 0.31336,-2.739725 3.52899,-2.308419 3.92139,0.525969 3.67678,0.309297 4.32736,3.833164 0.47555,2.575901 0.30582,2.941375 -1.76004,3.789768 -1.25749,0.516418 -3.70598,1.182927 -5.44108,1.481133 -5.08401,0.873771 -9.49529,3.909746 -11.62247,7.998932 -1.03508,1.989796 -1.03333,2.854519 0.014,6.923435 2.28823,8.88942 2.46175,9.129518 6.59782,9.129518 2.02702,0 3.6855,0.366534 3.6855,0.814521 0,1.594666 3.98872,0.779943 6.49139,-1.325908 l 0,0 z"
           style="fill:#ffffff;fill-opacity:1;stroke:none" />
        <path
           inkscape:connector-curvature="0"
           id="path3887"
           d="m 85.280251,86.048634 c -0.265928,-0.692996 -1.129846,-1.151164 -1.919819,-1.018152 -1.287948,0.216858 -1.436865,-0.557468 -1.44164,-7.496118 -0.0029,-4.255876 0.341373,-9.999337 0.765116,-12.763246 0.680726,-4.440108 1.007305,-5.070568 2.804527,-5.414128 4.992719,-0.954419 6.103113,2.02797 5.664153,15.213269 -0.263739,7.922125 -0.619832,10.355003 -1.669228,11.404399 -1.680052,1.680051 -3.574009,1.713385 -4.203109,0.07398 z"
           style="fill:#ffffff;fill-opacity:1;stroke:none" />
        <path
           inkscape:connector-curvature="0"
           id="path3889"
           d="m 125.20648,86.086843 c -0.56621,-1.475511 -2.94253,-1.635997 -3.01516,-0.20363 -0.0284,0.559984 -0.40674,0.129597 -0.84077,-0.956416 -0.81086,-2.02893 -0.33515,-16.562217 0.73504,-22.456366 0.4344,-2.392458 1.15853,-3.525512 2.73648,-4.281804 4.10382,-1.96691 6.38388,0.75904 6.99417,8.361953 0.46308,5.769016 -0.99796,18.036569 -2.34083,19.654627 -1.22165,1.471998 -3.68486,1.403701 -4.26893,-0.118364 z"
           style="fill:#ffffff;fill-opacity:1;stroke:none" />
        <path
           inkscape:connector-curvature="0"
           id="path3891"
           d="m 165.34126,84.370045 c -1.62905,-1.965424 -1.70592,-19.449279 -0.10318,-23.467647 1.2353,-3.09712 3.67571,-3.951459 4.57715,-1.602364 0.31986,0.833564 1.09646,1.15934 2.12344,0.890777 1.01334,-0.264993 1.61915,-0.02021 1.61915,0.654234 0,0.592708 0.42195,1.2183 0.93766,1.390203 1.97096,0.656987 1.77379,10.422683 -0.44046,21.815291 -0.36236,1.864402 -7.22471,2.116022 -8.71376,0.319506 z"
           style="fill:#ffffff;fill-opacity:1;stroke:none" />
        <path
           inkscape:connector-curvature="0"
           id="path3893"
           d="m 212.37238,86.660255 c -1.82829,-0.228319 -2.2321,-0.621124 -1.90893,-1.856907 0.22542,-0.862032 0.0318,-1.567331 -0.43022,-1.567331 -1.5452,0 0.12022,-5.025671 2.45772,-7.416518 1.25462,-1.28326 3.50892,-2.578757 5.00954,-2.878882 l 2.72841,-0.545682 -0.57388,4.326134 c -0.97303,7.335043 -3.25012,10.442775 -7.28264,9.939186 z"
           style="fill:#ffffff;fill-opacity:1;stroke:none" />
        <path
           inkscape:connector-curvature="0"
           id="path3895"
           d="m 228.53804,120.27234 c -7.8344,-1.49134 -69.41803,-2.71813 -76.84337,-1.53077 -2.87436,0.45963 -3.38702,0.32874 -3.38702,-0.86474 0,-0.77349 -1.17945,-2.50811 -2.62098,-3.85471 l -2.62098,-2.44837 23.18765,0.68558 c 32.6625,0.9657 94.12656,0.67849 102.44589,-0.47872 8.95736,-1.24596 20.30781,-4.68382 36.75449,-11.13233 14.56415,-5.710392 28.61878,-12.43177 34.5994,-16.546542 5.05039,-3.474764 4.73624,-1.864139 -0.53648,2.750409 -5.44033,4.76124 -12.6776,8.510449 -32.43109,16.800663 -38.27042,16.06148 -39.27528,16.33607 -61.03529,16.67918 -8.73574,0.13775 -16.61624,0.1109 -17.51222,-0.0597 l 0,0 z"
           style="fill:#ffffff;fill-opacity:1;stroke:none" />
        <path
           inkscape:connector-curvature="0"
           id="path3899"
           d="m 120.81931,164.28094 c 0.009,-1.79195 0.17584,-2.42911 0.37067,-1.41592 0.19483,1.01319 0.18743,2.47933 -0.0164,3.25809 -0.20387,0.77875 -0.36328,-0.0502 -0.35424,-1.84217 z"
           style="fill:#ffffff;fill-opacity:1;stroke:none" />
        <path
           inkscape:connector-curvature="0"
           id="path3901"
           d="m 114.91225,23.518258 c 0,-1.831667 1.75342,-10.686839 2.31646,-11.698672 0.2939,-0.528162 0.53437,2.129215 0.53437,5.905283 0,5.995631 -0.18062,6.865577 -1.42542,6.865577 -0.78397,0 -1.42541,-0.482484 -1.42541,-1.072188 z"
           style="fill:#ffffff;fill-opacity:1;stroke:none" />
        <path
           inkscape:connector-curvature="0"
           id="path3903"
           d="m 129.26097,24.796425 -8.05063,-0.2676 0.40809,-5.083908 c 0.85346,-10.6323288 6.38479,-16.0014797 14.30038,-13.8810822 3.0601,0.8197281 4.24362,4.297531 4.24362,12.4699882 0,6.542065 -0.16033,7.351971 -1.42542,7.200674 -0.78397,-0.09376 -5.04819,-0.290891 -9.47604,-0.438072 z"
           style="fill:#ffffff;fill-opacity:1;stroke:none" />
        <path
           inkscape:connector-curvature="0"
           id="path3910"
           d="M 25.314851,117.77204 C 12.584583,116.42825 7.6350982,114.51659 5.3262762,110.05183 3.8976471,107.28916 3.8165517,105.78876 3.7888541,81.606973 3.7520678,49.490175 3.7797163,48.931424 5.6447947,44.099994 7.1936768,40.087661 12.119512,32.270025 12.700774,32.901673 c 0.122105,0.132689 -0.13056,10.137692 -0.561476,22.233341 -0.430916,12.095649 -0.666613,26.970039 -0.52377,33.0542 0.25047,10.668415 0.347047,11.203292 2.713638,15.029046 4.758799,7.69293 2.019472,7.30214 51.304515,7.31904 52.722339,0.0181 63.709179,0.25229 60.153739,1.28228 -1.41043,0.4086 -3.7361,2.07737 -5.16814,3.70837 l -2.60371,2.96546 -7.45694,-0.71211 c -8.89457,-0.84938 -32.157467,-0.93507 -61.215385,-0.22547 -11.647662,0.28443 -22.460439,0.38173 -24.028394,0.21621 l 0,0 z"
           style="fill:#ff0000;fill-opacity:1;stroke:none" />
        <path
           inkscape:connector-curvature="0"
           id="path3912"
           d="M 25.314851,117.76787 C 17.848386,116.99065 11.501904,115.57542 9.1968762,114.17365 4.0713498,111.05663 3.9994288,110.56394 3.9229438,78.045381 3.8562594,49.693671 3.9182995,48.453785 5.6214688,44.099994 7.1630899,40.159167 12.149766,32.227933 12.66229,32.901673 c 0.100939,0.132689 -0.191405,13.579385 -0.649652,29.881548 -0.91001,32.373689 -0.627441,36.112651 3.161947,41.838799 3.990236,6.02966 2.860038,5.89813 50.866357,5.91964 52.496478,0.0235 63.280358,0.25418 59.746478,1.27792 -1.41043,0.4086 -3.73547,2.07665 -5.16674,3.70678 l -2.60231,2.96386 -7.86561,-0.7217 c -9.2879,-0.8522 -29.608342,-0.92566 -59.994993,-0.21687 -12.095649,0.28213 -23.274961,0.37944 -24.842916,0.21622 z"
           style="fill:#ffffff;fill-opacity:1;stroke:none" />
        <path
           inkscape:connector-curvature="0"
           id="path3914"
           d="m 120.85799,158.17202 c 0,-2.46392 0.15269,-3.4719 0.33932,-2.23993 0.18663,1.23196 0.18663,3.2479 0,4.47987 -0.18663,1.23196 -0.33932,0.22399 -0.33932,-2.23994 z"
           style="fill:#ffffff;fill-opacity:1;stroke:none" />
        <path
           inkscape:connector-curvature="0"
           id="path3916"
           d="m 125.20104,268.50091 c -1.96166,-3.82813 -2.83049,-8.84622 -3.70081,-21.37489 -0.45312,-6.52273 -0.99888,-13.78381 -1.21281,-16.13575 -0.86192,-9.47594 -1.29948,-36.62632 -0.88935,-55.18385 0.26957,-12.19766 0.26884,-20.64217 -0.002,-25.25018 -0.55199,-9.3846 -0.61381,-18.54387 -0.14844,-21.99208 l 0.38475,-2.85083 0.31184,2.23993 c 0.17152,1.23197 0.58799,19.92524 0.92549,41.54062 0.75382,48.278 0.92133,51.72486 4.12341,84.84476 0.7976,8.24974 1.3771,15.2139 1.28779,15.47592 -0.0893,0.26201 -0.57516,-0.32913 -1.07967,-1.31365 l 0,0 z"
           style="fill:#ffffff;fill-opacity:1;stroke:none" />
        <rect
           y="29.018471"
           x="34.209915"
           height="84.710266"
           width="244.76381"
           id="rect3918"
           style="fill:#ffffff;fill-opacity:1;stroke:none" />
        <path
           inkscape:connector-curvature="0"
           id="path3920"
           d="m 117.74265,12.3642 c -0.30594,-1.395313 0.17071,-2.7258655 1.81339,-5.0619793 1.39739,-1.987289 1.4279,-1.1933517 0.0622,1.618978 -0.73153,1.5064203 -1.38608,3.2016433 -1.45456,3.7671633 -0.11278,0.931391 -0.15243,0.900865 -0.42103,-0.324162 z"
           style="fill:#ffffff;fill-opacity:1;stroke:none" />
      </g>
      <g
         transform="translate(-213.1716,-393.23112)"
         id="layer1-8"
         inkscape:label="Layer 1">
        <path
           d="m 526.69291,520.98386 c -16.52753,2.40727 -32.80463,4.66256 -49.58324,1.25581 -36.40855,-7.39267 -72.98151,-17.30155 -108.6824,-27.54264 -35.10457,-10.06837 -70.49446,-17.64898 -105.85677,-26.59774 -9.5742,-2.42412 -18.81191,-3.9169 -19.12456,-14.77342 -0.15668,-5.46376 1.72824,-11.04227 3.1101,-16.24526 3.98889,-15.02448 9.01754,-30.05533 11.65113,-45.37909 0.0167,-0.10532 0.004,-0.19853 -0.01,-0.29075 7.22593,-11.94021 38.93807,0.78476 49.13658,4.09787 29.11573,9.45743 58.75698,17.73767 88.35394,25.59502 17.4884,4.64252 34.67865,10.37536 52.12385,15.18747 16.82494,4.63991 33.84691,7.32647 50.89278,10.83128 8.57849,1.76288 16.6801,4.49994 23.31518,10.16873 5.63404,4.81313 9.7646,11.26404 14.75307,16.65574 11.0992,11.9998 23.203,23.19797 33.67275,35.68247 -13.7002,6.2557 -28.6057,9.14772 -43.75281,11.35451 z m -0.42827,8.47373 c -19.55554,2.93163 -37.89806,7.75733 -57.95693,3.76095 -18.13037,-3.61246 -35.87313,-10.56548 -53.73953,-15.37969 -10.37781,-2.79599 -21.77594,-6.70473 -33.01069,-8.56485 -4.45556,-1.70452 -9.89179,-1.99387 -14.49995,-2.53357 0.0288,-0.40101 0.049,-0.80155 0.0414,-1.20254 -0.15262,-8.71474 -12.15098,-11.42736 -19.90274,-11.48536 -0.89498,-0.007 -1.67785,0.18511 -2.385,0.49617 -0.30837,-0.10175 -0.66527,-0.0919 -1.02868,0.0979 -2.34251,1.22759 -4.16544,2.7403 -5.64307,4.44369 -1.42879,-1.20056 -4.17734,-1.12229 -5.94536,-1.45815 -14.91172,-7.82074 -34.46506,-10.13346 -50.86012,-13.76624 -14.74371,-3.26697 -32.57085,-5.87004 -45.95057,-13.14196 -10.45262,-5.68148 -4.07638,-19.35284 -1.47348,-27.18502 2.2307,-6.7086 3.40371,-13.51439 4.51135,-20.47533 2.22447,-13.98785 5.71389,-28.04887 19.64702,-34.4879 -0.45148,0.60967 -0.83408,1.28653 -1.12872,2.04429 -0.28693,0.067 -0.54086,0.25034 -0.64219,0.6103 -4.40004,15.7149 -8.88129,31.38404 -13.17801,47.12312 -2.22179,8.13338 -5.35244,18.39099 0.75115,26.02855 3.10966,3.89098 9.47289,4.86454 13.99489,6.12326 10.33088,2.8784 20.83463,5.16343 31.30495,7.46469 21.10696,4.63834 41.93833,9.77522 62.71215,15.74245 42.0904,12.09141 84.77677,24.09541 127.68664,32.9643 15.88342,3.28138 32.27448,0.39889 47.90448,-1.60134 14.21399,-1.82011 28.15919,-4.56775 41.17563,-9.81142 -8.78011,10.38433 -29.45713,12.25552 -42.3845,14.19319 z M 336.9145,628.43134 c -0.6575,6.02149 -1.75952,11.91386 -3.59402,17.68001 -3.35135,10.52778 -14.25541,10.91857 -22.08287,3.83469 4.21906,-14.41211 4.33922,-29.65088 7.5616,-44.29397 3.27095,-14.86284 6.68719,-29.68988 10.35425,-44.46024 3.56362,-14.35042 7.13773,-28.69825 10.69465,-43.05032 1.47046,-5.93686 2.03854,-12.69349 4.50678,-18.31877 1.80639,-4.11735 8.23092,-1.80651 11.22419,-1.00181 5.40207,1.45117 8.26482,5.53105 7.06198,10.68418 -2.72337,11.66342 -6.85679,23.18143 -9.75924,34.87796 -3.68657,14.84924 -7.36436,29.66331 -10.33259,44.67929 -2.58482,13.07381 -4.18741,26.12451 -5.63461,39.36902 z m -27.29715,20.76132 c -3.83944,-9.79222 0.51837,-22.28883 1.85483,-32.02581 1.81807,-13.24849 4.72802,-26.35674 7.76326,-39.35945 3.19932,-13.70252 7.12044,-27.20139 10.67621,-40.80962 2.45277,-9.38317 3.17349,-24.90418 9.29676,-34.3431 -2.35397,6.81083 -3.02862,14.94832 -4.69901,21.76542 -5.05068,20.59988 -10.10225,41.18668 -14.58872,61.91919 -4.52006,20.8916 -6.91359,41.74446 -10.15575,62.83438 -0.0515,-0.002 -0.0977,0.0156 -0.14757,0.0189 z M 356.80108,405.946 c 1.79135,-4.97718 3.83191,-10.26629 7.68517,-14.15594 1.70085,-1.7166 3.45142,-2.53779 5.26859,-2.8675 -6.13422,3.67377 -9.6147,12.22431 -8.60392,18.7135 -1.51835,-0.44498 -3.03148,-0.90551 -4.54862,-1.3554 0.0782,-0.0953 0.1504,-0.2011 0.19878,-0.33466 z m 25.34227,7.65711 c -6.37087,-1.74403 -12.72355,-3.55052 -19.06192,-5.40369 0.0328,-0.0705 0.0713,-0.13562 0.0868,-0.22709 1.36317,-8.02058 6.96238,-21.18825 18.3871,-15.86968 8.41219,3.91563 0.0125,15.03613 0.58803,21.50045 z m 193.48384,95.47906 C 564.99712,495.36086 551.97847,483.56 539.94313,470.91879 529.08739,459.51713 523.1262,449.61922 506.93329,444.57506 c -8.26907,-2.57493 -17.132,-3.35996 -25.64274,-4.69288 -11.01483,-1.72352 -21.80699,-4.37316 -32.57731,-7.24787 -21.171,-5.65187 -42.05043,-12.32746 -63.19421,-18.08977 0.71293,-2.27293 0.91982,-4.80062 1.56241,-7.11792 0.71713,-2.59118 1.49624,-5.22372 1.65395,-7.92703 0.31971,-5.48666 -2.23117,-9.38797 -7.77541,-11.45609 -4.87333,-3.76693 -12.5384,-3.12505 -17.19958,0.10324 -5.69186,3.94245 -8.12726,10.93017 -9.12679,17.26505 -0.0154,0.10434 0.002,0.19225 0.009,0.28555 -19.95476,-5.93658 -39.83007,-12.13295 -59.87974,-17.72988 -7.64997,-2.13653 -25.17533,-6.75983 -33.70652,-1.96716 -13.97849,1.62067 -19.7658,12.88554 -23.05618,24.46199 -2.14059,7.53673 -3.18737,15.40485 -4.79315,23.06824 -2.01828,9.63831 -6.66474,18.43446 -7.00964,28.42342 -0.43082,12.48595 18.47465,16.00622 27.97062,18.7136 12.48712,3.56047 25.0258,6.82082 37.57769,10.15265 12.57565,3.33769 26.29852,5.44286 38.10694,10.91006 0.64761,0.29995 1.26363,0.33586 1.80453,0.21046 1.21105,0.49803 2.44835,0.94074 3.67531,1.36288 -2.73698,5.43159 -3.45878,11.98683 -4.88214,18.18248 -4.27983,18.63219 -9.40816,37.07455 -13.77901,55.68945 -3.8611,16.43866 -6.63183,33.06353 -8.69135,49.83833 -0.90274,7.35763 -5.31095,16.75038 0.23746,23.19569 -0.21041,0.50687 -0.16332,1.11738 0.3633,1.65245 5.33665,5.42859 16.97754,10.84782 23.62961,4.61254 10.52889,-9.86808 9.4543,-28.83163 10.87884,-41.88758 2.27277,-20.81195 7.19576,-41.45104 11.73551,-61.83698 2.1563,-9.68669 4.68266,-19.30019 7.04137,-28.93828 1.08505,-4.43161 3.51833,-8.94288 4.64264,-13.53861 18.26693,4.26922 36.47821,8.76419 54.56852,13.74431 20.97697,5.77398 41.59996,13.8141 63.41352,15.50593 8.52646,0.6609 17.14145,-2.06156 25.30155,-3.56368 10.59646,-1.95087 21.38325,-3.01414 31.93977,-5.13835 13.15715,-2.64834 28.65054,-5.52678 33.60006,-18.45162 0.11058,-0.28944 0.11155,-0.56085 0.0601,-0.81813 0.70591,-0.56756 0.99467,-1.48898 0.23455,-2.46937"
           style="fill:#000000;fill-opacity:0.71497581;fill-rule:nonzero;stroke:none"
           id="path74"
           inkscape:connector-curvature="0" />
      </g>
      <g
         transform="matrix(1.5938953,0.39284708,-0.26131111,1.0602155,-89.19879,-243.87276)"
         style="font-size:42.37361908px;font-style:normal;font-variant:normal;font-weight:normal;font-stretch:normal;text-align:start;line-height:125%;letter-spacing:0px;word-spacing:0px;writing-mode:lr-tb;text-anchor:start;fill:#d54425;fill-opacity:1;stroke:none;font-family:DJB This Font is Worn;-inkscape-font-specification:DJB This Font is Worn"
         id="text2989">
        <g
           transform="scale(0.91126594,1.0973745)"
           style="font-size:40px;line-height:100%;opacity:0.77999998;fill:#d54425;fill-opacity:1;filter:url(#filter3776);font-family:Jump Start;-inkscape-font-specification:Jump Start"
           id="text2988" />
      </g>
      <g
         style="font-size:110.58666229px;font-style:normal;font-variant:normal;font-weight:bold;font-stretch:normal;text-align:start;line-height:125%;letter-spacing:0px;word-spacing:0px;writing-mode:lr-tb;text-anchor:start;fill:#4093aa;fill-opacity:0.78222219;stroke:none;font-family:HandVetica;-inkscape-font-specification:HandVetica Bold"
         id="text3865"
         transform="matrix(0.84048065,0.20715311,-0.20715311,0.84048065,-46.390716,-400.04248)">
        <path
           d="m 288.53772,444.50005 c 0.23873,4e-5 0.38795,0.0598 0.44766,0.17906 0.11937,0.0598 0.23875,0.0896 0.35814,0.0895 0.11936,4e-5 0.26858,-0.0895 0.44767,-0.2686 0.11936,-0.83561 0.23873,-1.34296 0.35813,-1.52208 0.11936,-0.23871 0.32827,-0.35808 0.62673,-0.35813 0.11936,5e-5 0.29843,0.0299 0.5372,0.0895 0.23874,5e-5 0.50734,5e-5 0.8058,0 l 0,0.5372 c 0.29843,0.29849 0.4775,0.47757 0.53721,0.5372 0.11936,0.0597 0.32827,0.0896 0.62673,0.0895 0.17905,-0.41777 0.29842,-0.74607 0.35813,-0.98487 0.11936,-0.2984 0.23874,-0.50731 0.35814,-0.62673 0.17905,-0.17902 0.38795,-0.2984 0.62674,-0.35814 0.23873,-0.11933 0.59686,-0.2387 1.0744,-0.35813 l 0,1.16393 0.5372,0.5372 c 0.59686,-0.29839 0.92516,-0.50731 0.98487,-0.62673 0.11935,-0.11933 0.17904,-0.47747 0.17906,-1.0744 l 1.25347,0 1.16393,1.16393 c 0.4178,-0.41777 0.86547,-0.62668 1.34301,-0.62673 0.53717,5e-5 1.07438,0.20896 1.6116,0.62673 0.59686,0.41787 1.13406,0.92523 1.6116,1.52208 0.47749,0.53724 0.86547,1.10428 1.16394,1.70113 0.35811,0.59693 0.59686,1.10429 0.71627,1.52207 0.71623,0.11942 1.28328,0.29849 1.70114,0.5372 0.41779,0.17911 0.74607,0.44771 0.98486,0.80581 0.29841,0.29848 0.53717,0.68646 0.71628,1.16393 0.23871,0.47755 0.50732,1.01475 0.8058,1.6116 0.65654,4e-5 0.98482,0.65662 0.98486,1.96974 -4e-5,0.35817 -0.0299,0.77599 -0.0895,1.25347 -3e-5,0.41786 -3e-5,0.86552 0,1.343 -3e-5,0.77599 0.0597,1.49226 0.17907,2.1488 0.17903,0.65662 0.59685,1.16397 1.25347,1.52208 -4e-5,0.89536 0.0298,1.61163 0.0895,2.1488 0.11934,0.47754 0.47747,1.13411 1.07441,1.96973 -0.2985,0.7163 -0.47756,1.49225 -0.5372,2.32788 -5e-5,0.83567 -5e-5,1.70116 0,2.59647 l 0,1.6116 -0.62674,0.62674 c -0.29849,1.91006 -0.47755,3.25307 -0.5372,4.02901 -0.0598,0.71628 -0.0896,1.19379 -0.0895,1.43253 l 0,0.44767 0.62674,0 -0.62674,5.28248 -0.5372,0 -0.71627,1.43253 -0.5372,0.98487 -0.71626,1.16394 c -0.11942,0.23876 -0.26864,0.50736 -0.44768,0.8058 -0.11941,0.23876 -0.29847,0.53721 -0.5372,0.89533 -1.01475,0.29846 -2.26821,0.74612 -3.7604,1.34301 -1.43257,0.5372 -2.77557,0.8058 -4.02901,0.8058 -0.71629,0 -1.28334,-0.11938 -1.70113,-0.35814 l -1.79068,1.79068 c -0.29847,0 -0.59691,-0.11938 -0.89533,-0.35814 -0.23878,-0.17906 -0.50738,-0.2686 -0.8058,-0.2686 -3e-5,0.29844 -0.23878,0.50736 -0.71628,0.62674 -0.41783,0.11938 -0.77597,0.32828 -1.0744,0.62673 -0.89535,-0.89533 -1.731,-1.40269 -2.50693,-1.52207 -0.71629,-0.11938 -1.37287,-0.20891 -1.96974,-0.2686 -0.53722,-0.11938 -1.04458,-0.35813 -1.52207,-0.71627 -0.41784,-0.41782 -0.77597,-1.37284 -1.0744,-2.86507 l 0,4.11854 c -1.1938,0.29844 -2.38757,0.50736 -3.58134,0.62674 -1.19379,0.11938 -2.38757,0.32828 -3.58134,0.62673 -0.5969,-0.65658 -1.07441,-1.34301 -1.43254,-2.05927 -0.35814,-0.77595 -0.86549,-1.49223 -1.52207,-2.14881 l 0,-5.28247 c -0.65658,-0.89533 -1.10425,-2.17864 -1.343,-3.84994 -0.17907,-1.73097 -0.26861,-3.61117 -0.2686,-5.64062 -1e-5,-2.68598 0.11937,-5.37198 0.35813,-8.05801 0.23876,-2.74567 0.47751,-4.984 0.71627,-6.71502 -0.29845,-0.83561 -0.47751,-1.73094 -0.5372,-2.686 -0.0597,-0.95499 -0.0895,-2.02939 -0.0895,-3.22321 0.0597,-0.77592 0.0895,-1.55187 0.0895,-2.32787 0.0597,-0.8356 0.0895,-1.67125 0.0895,-2.50694 0,-1.96969 -0.0597,-3.99912 -0.17906,-6.08828 -0.0597,-2.08906 -0.0895,-4.17817 -0.0895,-6.26735 0,-2.08905 0.0895,-4.05878 0.2686,-5.90921 0.17906,-1.90998 0.50736,-3.64096 0.98487,-5.19294 0.89533,7e-5 1.55191,0.35821 1.96974,1.0744 0.4775,0.71634 1.0147,1.52214 1.6116,2.41741 l 0,-1.16394 c 0.59689,-0.29838 1.16393,-0.47744 1.70114,-0.5372 0.59688,-0.0596 1.22361,-0.0895 1.8802,-0.0895 -1e-5,-0.29837 0.11937,-0.56698 0.35814,-0.8058 0.23874,-0.29837 0.50734,-0.59682 0.8058,-0.89533 l 1.16393,0 c -10e-6,0.29851 0.0299,0.71633 0.0895,1.25347 0.0597,0.47758 0.23874,1.04462 0.5372,1.70114 -0.6566,1.19384 -1.28333,2.38762 -1.8802,3.58133 -0.53722,1.13416 -1.10427,2.2981 -1.70114,3.49181 l 0.62673,0.5372 c 0.59688,-1.19371 1.13408,-2.17859 1.61161,-2.9546 0.4775,-0.7759 1.31314,-1.16388 2.50694,-1.16393 0.29842,2.08916 0.56703,4.17828 0.8058,6.26734 0.23873,2.02948 0.35811,4.08875 0.35813,6.17781 -0.29846,5e-5 -0.47753,0.14927 -0.5372,0.44767 -0.0597,0.2388 -0.0896,0.68647 -0.0895,1.34301 m 6.53594,40.11101 c 0.29843,-0.17906 0.50733,-0.29844 0.62674,-0.35814 0.11935,-0.11937 0.4178,-0.17905 0.89533,-0.17906 l 1.43254,0 0,-1.16394 0.62673,0 0,-0.62673 1.16393,0 0,-1.16394 c -2e-5,-0.65657 -2e-5,-1.2833 0,-1.8802 0.0597,-0.65657 0.23874,-1.22361 0.53721,-1.70114 l 0.62673,0 0,-4.74528 c -2e-5,-0.59687 0.0298,-1.19375 0.0895,-1.79066 0.0597,-0.65657 0.23872,-1.43252 0.5372,-2.32787 -0.23879,-0.47749 -0.38801,-0.95501 -0.44767,-1.43254 -0.0598,-0.53718 -0.0896,-1.10422 -0.0895,-1.70114 -3e-5,-1.07438 0.0895,-2.17862 0.2686,-3.31274 0.17903,-1.19375 0.26857,-2.38753 0.2686,-3.58134 -0.29848,-0.89531 -0.50739,-1.67126 -0.62674,-2.32787 -0.1194,-0.71623 -0.32832,-1.52203 -0.62673,-2.4174 l -1.16393,-1.16394 0,-1.79067 c -1.2535,-0.41779 -2.38759,-0.6267 -3.40228,-0.62674 -0.83567,4e-5 -1.61162,0.11942 -2.32787,0.35814 -0.71629,0.23879 -1.55194,0.53723 -2.50694,0.89533 -2e-5,2.08915 -0.23878,4.05889 -0.71627,5.90921 -0.41784,1.7907 -0.77597,3.55153 -1.0744,5.28248 -2e-5,0.59692 0.0298,1.28334 0.0895,2.05927 0.0597,0.77599 0.23874,1.46241 0.53721,2.05927 l 0.5372,0 c -0.83567,1.61163 -1.37287,3.1337 -1.61161,4.56621 -0.17909,1.37287 -0.26861,2.8054 -0.2686,4.29761 -10e-6,0.6566 -10e-6,1.34302 0,2.05927 0.0597,0.65659 0.0895,1.37286 0.0895,2.1488 l 0.62673,0 c 0.29843,0.59691 0.4775,1.07442 0.5372,1.43254 0.11936,0.35815 0.32827,0.86551 0.62674,1.52207 l 0.62673,0 0,-0.62673 0.53721,0 0,-1.16394 c 0.29841,-0.29843 0.50733,-0.44766 0.62672,-0.44766 0.11937,0 0.2089,0.0597 0.2686,0.17906 0.0597,0.0597 0.17905,0.14923 0.35814,0.2686 l 0.5372,0.5372 c 0.29842,0.29845 0.47749,0.62675 0.5372,0.98487 0.0597,0.35814 0.0895,0.83566 0.0895,1.43254 0.29843,1e-5 0.47749,0.0299 0.5372,0.0895 0.11937,10e-6 0.32827,0.14923 0.62674,0.44767 m -12.98235,-38.40988 c 0.17905,5e-5 0.29843,-0.0298 0.35812,-0.0895 l 0.35814,-0.17907 c 0.11936,-0.11933 0.26859,-0.20887 0.44767,-0.2686 -1e-5,-0.59685 0.0895,-1.07436 0.2686,-1.43253 0.23875,-0.41779 0.35812,-0.92514 0.35813,-1.52208 l 1.70114,0 0,2.32788 0.62673,0 c -10e-6,-1.19374 -0.0299,-2.35767 -0.0895,-3.49181 -0.0597,-1.19373 -0.23877,-2.38751 -0.5372,-3.58134 -0.83566,2.08916 -1.55192,3.7903 -2.1488,5.10341 -0.5969,1.25351 -1.04457,2.29807 -1.343,3.13367 m -1.16394,40.82728 c 0.29843,10e-6 0.68641,-0.0895 1.16394,-0.2686 0.47749,-0.23875 0.86547,-0.35813 1.16393,-0.35813 l 0.62673,-6.44642 c -0.5969,0.83566 -1.1341,1.91007 -1.6116,3.22321 -0.41783,1.25348 -1.07441,2.32788 -1.96974,3.22321 -10e-6,0.41783 0.20891,0.62674 0.62674,0.62673 m 1.16394,-20.68224 c 0.29843,-0.29842 0.59687,-0.6864 0.89533,-1.16393 0.35812,-0.53718 0.83563,-0.955 1.43253,-1.25348 l 0,-3.4918 c -10e-6,-0.17903 0.0597,-0.26857 0.17907,-0.2686 l 0.0895,0 c 0.0597,0.0598 0.11937,0.11941 0.17907,0.17907 0.0597,2e-5 0.11937,0.0299 0.17907,0.0895 l 0,-1.79067 -0.62674,0 c -0.47752,1.31318 -0.8655,2.3279 -1.16393,3.04414 -0.23877,0.71629 -0.41783,1.34303 -0.53721,1.88021 -0.11938,0.47753 -0.23876,0.9252 -0.35812,1.343 -0.0597,0.35815 -0.14924,0.83567 -0.2686,1.43253 m 1.16393,-13.60909 c 0.89532,-0.59686 1.43252,-0.95499 1.6116,-1.0744 0.17906,-0.17904 0.41781,-0.41779 0.71627,-0.71627 l 0,-3.49181 c -0.29846,0.59693 -0.50737,1.07445 -0.62673,1.43253 -0.0597,0.35818 -0.23877,0.86554 -0.53721,1.52208 l -0.5372,0 -0.62673,2.32787 m 22.47291,32.50067 c 0.8953,-0.89533 1.61157,-1.73098 2.1488,-2.50695 0.53717,-0.77595 0.80577,-1.91003 0.8058,-3.40227 -0.35817,0.89535 -0.86552,1.70115 -1.52206,2.41741 -0.59693,0.71627 -0.89537,1.6713 -0.89534,2.86507 l -0.5372,0 0,0.62674 m 2.32787,-20.05551 c 0.41779,-0.77594 0.74608,-1.37282 0.98487,-1.79068 0.23872,-0.41779 0.41779,-0.77592 0.5372,-1.0744 0.17903,-0.3581 0.32825,-0.68639 0.44767,-0.98486 0.11934,-0.35811 0.26856,-0.86547 0.44767,-1.52207 l -0.62674,0 0,0.62673 -0.62674,0 c -3e-5,0.59692 -0.0896,1.19381 -0.2686,1.79067 -0.17909,0.53723 -0.26863,1.10427 -0.2686,1.70113 l -0.62673,0 0,1.25348 m -20.68224,-8.86382 0.62674,0 c -2e-5,-0.29841 0.0895,-0.6267 0.2686,-0.98487 0.17905,-0.3581 0.26857,-0.83562 0.2686,-1.43253 l -0.5372,0 0,-2.32788 c -0.29847,0.89538 -0.47753,1.70118 -0.5372,2.4174 -0.0598,0.65662 -0.0896,1.43258 -0.0895,2.32788 m 21.57757,21.04037 c 0.11935,-0.35812 0.17904,-0.65656 0.17908,-0.89533 0.0597,-0.29843 0.0895,-0.56703 0.0895,-0.80581 l 0,-1.07439 c -0.29847,0.29846 -0.47754,0.92519 -0.5372,1.8802 l 0,2.05927 c 0.0597,-0.59688 0.14919,-0.98486 0.2686,-1.16394 m -26.32284,-21.66711 0.62673,0 0,-1.16393 c -0.29846,4e-5 -0.47753,0.0598 -0.53721,0.17907 -0.0597,0.0598 -0.0895,0.38801 -0.0895,0.98486 m 21.30897,10.02776 0.62674,-1.79068 -0.62674,0 0,1.79068 m -1.79067,15.93696 0.62673,0 0,-1.43254 c -0.0598,0.1194 -0.1194,0.23877 -0.17906,0.35814 -0.0598,0.0597 -0.11941,0.14923 -0.17907,0.2686 -0.17909,0.29846 -0.26863,0.56705 -0.2686,0.8058 m -3.49181,5.90921 c 0.59687,-0.29844 0.92515,-0.4775 0.98487,-0.5372 0.11935,-0.11937 0.17904,-0.32828 0.17906,-0.62673 -0.29846,0 -0.50738,0.11938 -0.62672,0.35813 -0.0598,0.23876 -0.23879,0.50736 -0.53721,0.8058 m -20.0555,-39.84241 c -10e-6,0.0598 0.0597,-0.0895 0.17906,-0.44767 -0.17907,0.17911 -0.26861,0.38802 -0.2686,0.62674 l 0.0895,-0.17907"
           id="path3870"
           inkscape:connector-curvature="0"
           style="fill:#4093aa;fill-opacity:0.78222219" />
        <path
           d="m 339.46185,491.86327 c -0.89536,-0.89533 -1.70116,-1.37284 -2.41741,-1.43254 -0.71628,-0.11937 -1.37286,-0.2089 -1.96974,-0.2686 -0.53721,-0.11937 -1.04457,-0.38797 -1.52207,-0.8058 -0.41783,-0.41781 -0.77596,-1.34299 -1.0744,-2.77553 l -0.62673,0 0,1.16393 c -1.731,10e-6 -3.07399,-0.41782 -4.02901,-1.25347 -0.89534,-0.83564 -1.49223,-1.99957 -1.79067,-3.4918 -0.41783,0 -0.77596,-0.29844 -1.0744,-0.89534 -0.23876,-0.65657 -0.44768,-1.49221 -0.62673,-2.50694 -0.17908,-1.07439 -0.29845,-2.23832 -0.35814,-3.4918 -0.0597,-1.31315 -0.0895,-2.62631 -0.0895,-3.93948 0,-1.73096 0.0299,-3.31271 0.0895,-4.74528 0.0597,-1.4922 0.14921,-2.53676 0.2686,-3.13367 0.0597,-0.11935 0.11937,-0.26857 0.17907,-0.44766 0.0597,-0.17904 0.11937,-0.35812 0.17907,-0.5372 l 0.17906,-0.80581 c 0.0597,-0.11935 0.0895,-0.41779 0.0895,-0.89533 l 0,-1.43254 c -0.29845,-0.29841 -0.5969,-0.56701 -0.89534,-0.8058 -0.29845,-0.23873 -0.59689,-0.35811 -0.89534,-0.35813 0,-0.59687 0.11938,-1.07437 0.35814,-1.43254 0.23875,-0.41779 0.50735,-0.92515 0.8058,-1.52207 -10e-6,-1.01468 0.29844,-2.23831 0.89534,-3.67088 0.59688,-1.43249 1.31314,-2.83519 2.1488,-4.20807 0.89533,-1.43249 1.85035,-2.71581 2.86507,-3.84995 1.0147,-1.13404 1.96973,-1.90999 2.86507,-2.32787 0.59688,5e-5 1.07439,0.0896 1.43254,0.26861 0.35812,0.17911 0.68641,0.26864 0.98487,0.2686 -2e-5,-0.71622 0.0298,-1.19374 0.0895,-1.43254 0.0597,-0.2984 0.17905,-0.47746 0.35813,-0.5372 0.17906,-0.0597 0.41782,-0.0895 0.71628,-0.0895 0.29842,5e-5 0.6864,-0.0895 1.16393,-0.2686 l 0,1.16393 1.16394,0 c 0.29842,-0.8356 0.59687,-1.34295 0.89533,-1.52207 0.35812,-0.2387 0.83562,-0.5073 1.43253,-0.8058 l 0,1.79067 1.16394,0 c 0.59687,-0.2984 0.92516,-0.50731 0.98487,-0.62673 0.11935,-0.17902 0.17905,-0.567 0.17907,-1.16394 l 1.16393,0 c 0.29843,0.59694 0.47749,0.98492 0.5372,1.16394 0.11936,0.11942 0.32827,0.32833 0.62674,0.62673 0.59686,-0.59684 1.2236,-0.89528 1.8802,-0.89533 0.59687,5e-5 1.19375,0.20895 1.79067,0.62673 0.59686,0.35818 1.13407,0.80585 1.61161,1.343 0.53716,0.53725 1.01468,1.10429 1.43253,1.70114 0.41779,0.53725 0.74608,0.98491 0.98487,1.343 1.19375,0.59694 2.08909,1.22367 2.68601,1.8802 0.59685,0.65663 1.04452,1.58181 1.343,2.77555 0.53717,4e-5 0.8953,0.20894 1.0744,0.62673 0.17903,0.35817 0.26857,0.86553 0.2686,1.52207 -3e-5,0.47755 -0.0299,0.95506 -0.0895,1.43253 -4e-5,0.47755 -4e-5,0.95507 0,1.43254 -4e-5,0.83568 0.0895,1.61164 0.2686,2.32787 0.23872,0.65661 0.71623,1.13413 1.43254,1.43254 -4e-5,0.89536 0.0298,1.67132 0.0895,2.32787 0.0597,0.59692 0.23872,1.19381 0.5372,1.79067 l 0,7.07315 -0.62673,0.5372 c -0.11942,1.49225 -0.20895,2.65618 -0.26861,3.49181 -0.0597,0.77597 -0.14926,1.37286 -0.2686,1.79067 -0.0598,0.41783 -0.14926,0.68643 -0.2686,0.80579 -0.0598,0.1194 -0.1791,0.23878 -0.35812,0.35814 l 0.62672,0 0,5.28248 -0.62672,0 c -0.47756,0.71628 -0.86554,1.31316 -1.16394,1.79067 -0.23879,0.41783 -0.47755,0.80581 -0.71627,1.16393 -0.1791,0.35815 -0.38802,0.77597 -0.62674,1.25348 -0.23879,0.41782 -0.56708,0.98487 -0.98486,1.70113 -0.65662,0.11939 -1.34305,0.32829 -2.05928,0.62674 -0.7163,0.23875 -1.46241,0.50735 -2.23833,0.8058 -0.77599,0.29844 -1.55195,0.56704 -2.32788,0.8058 -0.71629,0.23876 -1.40271,0.35814 -2.05927,0.35814 -0.53722,0 -0.98489,-0.0895 -1.343,-0.2686 -0.29847,0.29844 -0.6566,0.59688 -1.0744,0.89533 -0.41785,0.29845 -0.62676,0.59689 -0.62674,0.89533 -0.59691,0 -1.07442,-0.14922 -1.43253,-0.44766 -0.29847,-0.23876 -0.59691,-0.50736 -0.89534,-0.8058 -2e-5,0.29844 -0.32831,0.56704 -0.98486,0.8058 -0.65661,0.29844 -1.13412,0.44766 -1.43254,0.44766 m 1.16394,-7.07315 c 0.11935,-0.11937 0.23873,-0.17905 0.35812,-0.17906 0.11937,-0.0597 0.23875,-0.11937 0.35814,-0.17907 l 0.62674,-0.17907 c 0.11935,-0.0597 0.38795,-0.0895 0.8058,-0.0895 l 1.43253,0 0,-1.16393 1.16394,0 0,-1.16394 0.5372,0 c -2e-5,-0.83564 0.11936,-1.61159 0.35814,-2.32787 0.29842,-0.71626 0.59686,-1.49221 0.89533,-2.32787 l 0.5372,0 c -3e-5,-0.89532 -0.0896,-1.67128 -0.2686,-2.32787 -0.17909,-0.71626 -0.26863,-1.52206 -0.2686,-2.41741 -3e-5,-0.59687 0.11935,-1.25345 0.35813,-1.96974 0.23873,-0.77593 0.50733,-1.46235 0.80581,-2.05926 -0.35817,-1.13408 -0.53723,-2.32786 -0.53721,-3.58135 -2e-5,-1.19375 0.0895,-2.35768 0.26861,-3.4918 0.17904,-1.13407 0.26857,-2.298 0.2686,-3.49181 -0.29848,-1.19375 -0.59692,-2.2383 -0.89534,-3.13367 -0.29847,-0.95499 -0.59691,-1.88017 -0.89533,-2.77554 l -1.16394,-1.16394 0,-1.79067 c -1.25349,-0.3581 -2.35774,-0.53716 -3.31274,-0.5372 -1.731,4e-5 -3.55151,0.59693 -5.46154,1.79067 -2e-5,1.73102 -0.23878,3.58137 -0.71628,5.55108 -0.47752,1.96976 -1.04456,3.82013 -1.70113,5.55108 0.29843,0.89536 0.4775,1.70116 0.5372,2.4174 0.0597,0.6566 0.0895,1.40271 0.0895,2.23834 0.29844,3e-5 0.4775,0.0299 0.5372,0.0895 0.0597,0.0598 0.0895,0.23878 0.0895,0.5372 -0.6566,1.25349 -1.07442,2.41743 -1.25347,3.49181 -0.17908,1.01473 -0.26861,2.05929 -0.2686,3.13368 -1e-5,1.01472 0.0298,2.05928 0.0895,3.13367 0.11937,1.07441 0.17906,2.32788 0.17907,3.76041 l 0.62673,0 c -10e-6,0.29845 0.0895,0.71627 0.2686,1.25346 0.23874,0.47753 0.35812,1.01473 0.35814,1.61161 l 1.16394,0 0,-0.53721 0.5372,0 0,-1.79066 1.79067,0 0,1.16393 0.5372,0 c -2e-5,0.29846 0.0298,0.5969 0.0895,0.89533 0.0597,0.29846 0.23874,0.5969 0.5372,0.89534 0.29842,0.29845 0.44765,0.50736 0.44767,0.62673 0.0597,0.0597 0.0895,0.23877 0.0895,0.5372 m -9.93823,-26.41238 c 0.29844,-0.59685 0.4775,-1.16391 0.53721,-1.70114 0.11936,-0.59685 0.32827,-1.19374 0.62673,-1.79067 l 1.16393,0 c 0.29844,-0.59685 0.4775,-1.04452 0.5372,-1.343 0.11937,-0.3581 0.32828,-0.68639 0.62674,-0.98487 l -0.5372,0 c -2e-5,-0.59685 -0.11939,-1.07437 -0.35814,-1.43254 -0.17908,-0.41778 -0.2686,-0.92514 -0.2686,-1.52206 -0.29846,0.47754 -0.47752,0.80584 -0.5372,0.98486 -10e-6,0.17911 -10e-6,0.5074 0,0.98487 l 0,0.98487 c -0.5969,0.89537 -1.07441,1.5818 -1.43254,2.05927 -0.29845,0.47755 -0.53721,0.89537 -0.71626,1.25347 -0.17907,0.35817 -0.3283,0.7163 -0.44767,1.0744 -0.0597,0.35817 -0.17908,0.83569 -0.35813,1.43254 l 1.16393,0 m -2.9546,24.62172 c 0.29843,-0.29844 0.59688,-0.56704 0.89534,-0.80581 0.29843,-0.23875 0.59687,-0.35812 0.89533,-0.35813 -1e-5,-0.83564 0.0299,-1.58175 0.0895,-2.23834 0.0597,-0.65657 0.23874,-1.2833 0.5372,-1.8802 -0.47752,-0.23874 -0.83566,-0.35812 -1.0744,-0.35814 -0.23876,2e-5 -0.44768,0.0896 -0.62674,0.2686 -0.11938,0.1194 -0.35814,0.35815 -0.71626,0.71627 l 0,4.65575 m 27.03912,-18.71251 c 0.59685,-0.71624 1.04452,-1.28328 1.343,-1.70114 0.29841,-0.41779 0.56701,-0.80577 0.8058,-1.16393 0.23872,-0.4178 0.44764,-0.83562 0.62674,-1.25347 0.17903,-0.47749 0.41778,-1.07437 0.71627,-1.79067 l -0.62674,0 0,0.62674 -1.16393,0 c -4e-5,0.59692 -0.0896,1.1938 -0.2686,1.79066 -0.17911,0.53724 -0.26864,1.10428 -0.2686,1.70114 l -0.62674,0 -0.5372,1.79067 m -0.89534,19.60784 c 0.71623,-0.65657 1.22359,-1.31315 1.52208,-1.96974 0.35809,-0.71625 0.53716,-1.73096 0.5372,-3.04414 -0.29849,0.89535 -0.80584,1.82053 -1.52208,2.77554 -0.65661,0.89535 -1.13412,1.9399 -1.43253,3.13367 0.17903,-0.11937 0.32826,-0.26859 0.44767,-0.44766 0.17903,-0.17906 0.32825,-0.32829 0.44766,-0.44767 m 2.32788,-6.71501 c 0.17903,-0.65656 0.2984,-1.13408 0.35813,-1.43254 0.0597,-0.29843 0.23872,-0.80579 0.5372,-1.52207 -0.41786,0.29846 -0.7163,0.80582 -0.89533,1.52207 -0.17911,0.71628 -0.26864,1.4027 -0.2686,2.05927 l 0,0.98487 c 0.0597,-0.59688 0.14918,-1.13408 0.2686,-1.6116 m -23.72639,-15.2207 0,-1.25347 c -0.29846,3e-5 -0.50736,0.0598 -0.62673,0.17907 -0.0597,0.0597 -0.23877,0.41785 -0.53721,1.0744 l 1.16394,0 m 17.01137,19.33924 0,-1.79067 c -0.29847,0.29846 -0.47754,0.62674 -0.5372,0.98486 -0.0598,0.29846 -0.0896,0.74613 -0.0895,1.34301 l 0.62673,-0.5372 m 1.70114,-18.80204 -0.53721,0 0,2.32787 0.53721,-2.32787 m -5.81968,25.24845 c 0.29842,-0.29844 0.44764,-0.47751 0.44766,-0.5372 0.0597,-0.11937 0.0895,-0.32829 0.0895,-0.62673 -0.0598,0.0597 -0.1194,0.11938 -0.17906,0.17906 -3e-5,0.0597 -0.0299,0.11938 -0.0895,0.17907 -0.17909,0.17907 -0.26862,0.44767 -0.2686,0.8058 m 10.56496,-18.80203 c 0.2984,1e-5 0.44763,-0.0298 0.44766,-0.0895 0.0597,-0.0597 0.0895,-0.32827 0.0895,-0.8058 -0.0598,0.0597 -0.0896,0.1194 -0.0895,0.17906 l -0.17906,0.35814 c -0.0598,0.0597 -0.11942,0.1194 -0.17907,0.17907 -4e-5,0.0597 -0.0299,0.1194 -0.0895,0.17907 m -3.58135,16.47416 0.62674,-0.62674 -0.62674,0 0,0.62674"
           id="path3872"
           inkscape:connector-curvature="0"
           style="fill:#4093aa;fill-opacity:0.78222219" />
        <path
           d="m 398.37395,488.37147 c -0.23879,0.11938 -0.50739,0.32829 -0.8058,0.62673 -0.29848,0 -0.59692,-0.0895 -0.89534,-0.2686 -0.29847,-0.23875 -0.59692,-0.35813 -0.89534,-0.35813 -0.1194,0.59689 -0.23878,1.04456 -0.35812,1.343 -0.0598,0.23876 -0.1791,0.41782 -0.35814,0.5372 -0.1194,0.0597 -0.32832,0.11938 -0.62674,0.17906 -0.23877,0.0597 -0.56707,0.14923 -0.98486,0.26861 -3e-5,-0.29845 -0.0299,-0.47751 -0.0895,-0.53721 -0.0597,-0.11937 -0.23877,-0.32828 -0.5372,-0.62673 l -0.5372,0 c -0.29847,0.59689 -0.62676,1.04456 -0.98487,1.34301 -0.35815,0.29844 -0.83567,0.44766 -1.43254,0.44766 l 0,-1.16394 -0.5372,-0.62673 c -0.6566,0.59689 -1.04458,0.95503 -1.16393,1.07441 -0.11939,0.17906 -0.32831,0.41782 -0.62674,0.71626 l -0.62673,0 -1.16393,-1.16394 c -0.41784,0.41783 -0.89536,0.62674 -1.43254,0.62674 -0.53722,0 -1.10426,-0.17906 -1.70114,-0.5372 -0.53721,-0.35813 -1.07441,-0.77596 -1.61161,-1.25347 -0.47751,-0.5372 -0.92519,-1.0744 -1.343,-1.6116 -0.41783,-0.5372 -0.74612,-0.98487 -0.98487,-1.343 -1.19378,-0.59689 -2.02943,-1.13409 -2.50694,-1.61161 -0.47751,-0.53719 -1.01471,-1.40268 -1.6116,-2.59647 -0.5969,1e-5 -0.89534,-0.50735 -0.89533,-1.52207 -10e-6,-0.53719 0.0299,-1.16392 0.0895,-1.8802 0.11938,-0.77595 0.17906,-1.52206 0.17907,-2.23835 -10e-6,-0.59687 -0.0895,-1.13407 -0.2686,-1.61159 -0.11939,-0.4775 -0.41783,-0.80579 -0.89534,-0.98487 0,-1.19376 -0.0597,-2.02941 -0.17906,-2.50694 -0.0597,-0.4775 -0.38798,-1.0147 -0.98488,-1.6116 0,-0.83563 0.0299,-1.61159 0.0895,-2.32788 0.11938,-0.77593 0.17906,-1.55188 0.17906,-2.32787 0,-0.77593 -0.0895,-1.58173 -0.2686,-2.4174 l 0.5372,0 c 0.17907,-1.4922 0.29845,-2.62629 0.35814,-3.40227 0.11938,-0.83562 0.20891,-1.43251 0.2686,-1.79068 0.0597,-0.3581 0.11938,-0.56701 0.17907,-0.62673 0.11938,-0.0597 0.23875,-0.0895 0.35813,-0.0895 l -0.5372,-0.62674 0,-4.74528 1.16394,0 c 0.29844,-0.71622 0.53719,-1.28327 0.71627,-1.70114 0.17906,-0.47746 0.35812,-0.86544 0.5372,-1.16393 0.17906,-0.35809 0.38797,-0.68638 0.62673,-0.98487 0.23875,-0.35809 0.59688,-0.8356 1.07441,-1.43253 0.4775,-0.23872 1.04455,-0.50732 1.70113,-0.8058 0.65657,-0.29841 1.34299,-0.56701 2.05927,-0.8058 0.71626,-0.29841 1.43253,-0.53717 2.14881,-0.71628 0.71625,-0.23871 1.40267,-0.35808 2.05927,-0.35813 0.53718,5e-5 1.04454,0.0896 1.52206,0.2686 -10e-6,-0.2984 0.11937,-0.567 0.35814,-0.8058 0.23874,-0.2984 0.50734,-0.59684 0.8058,-0.89534 1.19377,5e-5 1.79065,0.38803 1.79067,1.16394 0.29843,-0.2984 0.68641,-0.567 1.16394,-0.8058 0.47749,-0.23871 0.86547,-0.35809 1.16394,-0.35814 0.71624,0.89539 1.40266,1.40274 2.05927,1.52207 0.65655,0.0598 1.25344,0.11943 1.79066,0.17907 0.59687,4e-5 1.10422,0.17912 1.52208,0.5372 0.47748,0.2985 0.86546,1.10429 1.16393,2.41741 l 0.5372,0 0,-1.16394 0.62674,0 c -3e-5,-3.22316 -0.11941,-6.56573 -0.35814,-10.02776 -0.1791,-3.4619 -0.26862,-6.80448 -0.2686,-10.02774 1.19375,-0.29838 2.35769,-0.59683 3.49181,-0.89534 1.13406,-0.29838 2.14877,-0.59682 3.04414,-0.89534 0.59685,0.8954 1.1639,1.67136 1.70114,2.32788 0.59685,0.59695 1.19374,1.19383 1.79067,1.79066 -4e-5,0.8954 -0.0896,1.79074 -0.2686,2.68601 -0.17911,0.89539 -0.26864,1.79073 -0.2686,2.68601 0.65654,1.07445 1.07436,2.56668 1.25346,4.47667 0.23872,1.9101 0.3581,3.96937 0.35814,6.17781 -4e-5,2.68606 -0.0896,5.31237 -0.2686,7.87895 -0.11942,2.56667 -0.17911,4.65578 -0.17907,6.26735 -4e-5,0.89537 0.0895,1.7907 0.2686,2.68601 0.23871,0.83567 0.35809,1.70116 0.35813,2.59647 -0.11942,1.01474 -0.1791,1.99961 -0.17906,2.95461 -4e-5,0.95504 -4e-5,1.93991 0,2.9546 -4e-5,1.49224 -4e-5,3.01432 0,4.56621 0.0597,1.49224 0.0895,2.98447 0.0895,4.47667 -3e-5,2.50695 -0.11941,4.9542 -0.35813,7.34176 -0.17911,2.38756 -0.62678,4.62589 -1.343,6.71501 -0.89537,-0.29845 -1.55195,-0.74612 -1.96974,-1.343 -0.35817,-0.5969 -0.68646,-1.34301 -0.98487,-2.23834 -3e-5,0.29845 -0.11941,0.50735 -0.35814,0.62673 -0.17909,0.0597 -0.26863,0.23876 -0.2686,0.5372 l -2.9546,0 c -0.29848,0.59689 -0.50739,1.07441 -0.62673,1.43254 -0.0598,0.35813 -0.23879,0.68642 -0.5372,0.98487 l -1.16394,0 c -3e-5,-0.65658 -0.11941,-1.25347 -0.35814,-1.79068 -0.1791,-0.59688 -0.26862,-1.19377 -0.2686,-1.79066 l 0,-0.44767 c -0.0597,0.23876 -0.1791,0.38798 -0.35813,0.44767 m -0.8058,-11.81843 c -3e-5,0.29846 0.0895,0.44768 0.2686,0.44767 0.23873,10e-6 0.35811,-0.14921 0.35813,-0.44767 0.0597,-0.0597 0.0895,-0.1492 0.0895,-0.2686 l 0,-0.0895 -0.17907,-0.2686 c -0.11941,-0.23873 -0.1791,-0.32827 -0.17907,-0.2686 -3e-5,-0.0597 0.0895,-0.1492 0.2686,-0.26859 l -0.62673,-1.16394 c 0.11935,-0.0597 0.20888,-0.0895 0.2686,-0.0895 0.11935,10e-6 0.23873,-0.0298 0.35813,-0.0895 l 0,-4.02901 0.5372,0 0,-1.16394 c 0.3581,-0.53718 0.53718,-1.61158 0.5372,-3.22321 -2e-5,-0.89531 -0.0598,-1.85033 -0.17906,-2.86507 -0.0598,-1.07437 -0.14926,-2.14878 -0.2686,-3.2232 -0.11941,-1.13407 -0.23879,-2.20847 -0.35814,-3.22321 -0.1194,-1.01468 -0.20894,-1.93986 -0.2686,-2.77554 -0.47754,0.23879 -0.89536,0.35817 -1.25347,0.35814 -0.35816,3e-5 -0.53722,-0.32826 -0.5372,-0.98488 l -0.62674,0 0,-0.44766 c -2e-5,-0.3581 -0.0299,-0.74608 -0.0895,-1.16394 -0.0598,-0.41778 -0.20894,-0.86545 -0.44768,-1.343 l -0.62673,0 0,1.16393 -0.62673,-0.5372 0,1.70114 -1.70114,0 c 0.17905,-0.17903 0.26858,-0.32825 0.2686,-0.44767 -2e-5,-0.11934 -0.0598,-0.20887 -0.17907,-0.2686 -0.0598,-0.0597 -0.0895,-0.20887 -0.0895,-0.44767 l -0.62673,0 c -3e-5,-0.2984 -0.0299,-0.59685 -0.0895,-0.89533 -0.0597,-0.29841 -0.23877,-0.59685 -0.5372,-0.89533 -0.29847,4e-5 -0.47753,-0.0298 -0.5372,-0.0895 -3e-5,-0.0597 -3e-5,-0.41778 0,-1.0744 -0.59691,0.29848 -1.01473,0.47755 -1.25347,0.5372 -0.23877,0.0598 -0.80582,0.0896 -1.70114,0.0895 l -0.62673,1.16393 -0.53721,0 0,1.16393 -0.62672,0 c -2e-5,0.59693 -0.1194,1.28335 -0.35814,2.05927 -0.17908,0.776 -0.26862,1.46242 -0.2686,2.05928 -0.29846,0.29847 -0.50738,0.4477 -0.62674,0.44766 -0.11939,4e-5 -0.29846,-0.14919 -0.5372,-0.44766 0.29843,0.89537 0.4775,1.70116 0.5372,2.4174 0.0597,0.65661 0.0895,1.43257 0.0895,2.32787 -2e-5,0.59692 -0.1194,1.22366 -0.35814,1.88021 -0.17908,0.6566 -0.26861,1.40272 -0.2686,2.23834 0.17906,1.01473 0.26859,1.9996 0.2686,2.9546 -10e-6,1.13412 -0.0895,2.32789 -0.2686,3.58134 -0.11939,1.1938 -0.29846,2.38758 -0.5372,3.58134 0.29843,0.83566 0.56703,1.70115 0.8058,2.59647 0.29844,0.89535 0.59688,1.79069 0.89534,2.68601 0.29842,10e-6 0.50734,0.11938 0.62674,0.35813 0.11936,0.23877 0.32827,0.50737 0.62672,0.80581 l 1.16394,1.16393 c 1.07439,0.29846 2.23832,0.44768 3.49181,0.44767 0.89531,10e-6 1.79064,-0.0597 2.68601,-0.17907 0.955,-0.17906 1.85033,-0.44766 2.686,-0.8058 l 1.16394,-1.16393 -0.62674,-1.25348 -0.5372,0 c 0.29842,-0.29843 0.47748,-0.59687 0.5372,-0.89533 0.11936,-0.35812 0.32826,-0.83564 0.62674,-1.43254 m 7.07314,-48.43763 c -0.29847,0.29851 -0.71629,0.50742 -1.25346,0.62673 -0.53724,0.0597 -1.10428,0.23882 -1.70114,0.5372 l 0,6.53595 c 0.59686,-1.19372 1.10421,-2.35765 1.52207,-3.49181 0.47748,-1.13403 1.1639,-2.14874 2.05927,-3.04414 -3e-5,-0.29838 -0.11941,-0.47745 -0.35814,-0.5372 -0.17909,-0.11931 -0.26863,-0.32822 -0.2686,-0.62673 m -4.74527,43.15516 c -0.1791,0.53721 -0.26863,1.13411 -0.2686,1.79066 -3e-5,0.59692 0.0298,1.22364 0.0895,1.88021 0.11935,0.65659 0.17904,1.4027 0.17907,2.23834 0.65655,-1.79066 1.34297,-3.31273 2.05927,-4.56621 0.71624,-1.31314 1.22359,-2.56661 1.52207,-3.76041 -0.29848,0.29847 -0.50739,0.47753 -0.62673,0.5372 -0.0598,0.0597 -0.2388,0.0896 -0.53721,0.0895 -0.29847,0.5969 -0.50739,1.16395 -0.62673,1.70113 -0.0597,0.53723 -0.23879,0.95505 -0.5372,1.25347 -4e-5,0.29846 -0.14926,0.47753 -0.44767,0.53721 -0.23879,1e-5 -0.50739,1e-5 -0.8058,0 l 0,-1.70114 m -22.38338,-3.58135 c -0.47752,0.71629 -0.83566,1.31319 -1.07441,1.79068 -0.23875,0.41784 -0.44767,0.80582 -0.62673,1.16393 -0.17907,0.35815 -0.35814,0.77597 -0.5372,1.25347 -0.17907,0.41784 -0.41783,0.98489 -0.71627,1.70114 l 0.5372,0 0,-0.62673 0.62674,0 c 0.29844,-0.59688 0.47751,-1.16393 0.5372,-1.70114 0.11937,-0.59687 0.32829,-1.19377 0.62674,-1.79067 0.11937,1e-5 0.2089,-0.0298 0.2686,-0.0895 0.23875,-0.0597 0.35812,-0.23873 0.35813,-0.5372 l 0,-1.16394 m 2.32787,-20.0555 c -0.89534,1.19382 -1.61161,2.17868 -2.1488,2.9546 -0.53721,0.776 -0.80581,1.76087 -0.8058,2.95461 0.29843,-0.65654 0.7461,-1.37281 1.343,-2.14881 0.65657,-0.8356 0.98486,-1.70109 0.98487,-2.59646 l 0.62673,0 0,-1.16394 m 19.51831,36.6192 0,2.32788 c 0.59686,-0.89533 1.04453,-1.76083 1.343,-2.59648 0.35811,-0.89532 0.68639,-1.79066 0.98487,-2.686 l -0.5372,-0.62673 c -4e-5,1.73099 -0.59692,2.92476 -1.79067,3.58133 m -22.47291,-30.17279 c -0.47753,0.83569 -0.80581,1.49226 -0.98488,1.96974 -0.11938,0.41785 -0.17907,0.89536 -0.17906,1.43253 l 0,1.343 c 0.59688,-0.59685 0.92517,-1.37281 0.98486,-2.32786 0.11937,-1.01468 0.17907,-1.82048 0.17908,-2.41741 m 24.26358,9.49056 c -0.23879,0.41784 -0.4477,0.74613 -0.62673,0.98486 -0.11941,0.17909 -0.20895,0.29847 -0.2686,0.35814 -0.11942,0.1194 -0.20895,0.20893 -0.2686,0.2686 -4e-5,0.0597 -0.0299,0.1194 -0.0895,0.17906 -3e-5,0.35817 0.20888,0.53723 0.62674,0.53721 l 0,-1.16394 0.62673,0 0.5372,-2.32787 c -0.23879,0.23878 -0.38801,0.50738 -0.44767,0.8058 -0.0598,0.0598 -0.0896,0.1791 -0.0895,0.35814 m -20.14505,3.4918 0,2.41741 0.62674,0 c -10e-6,-0.29843 -0.0299,-0.59687 -0.0895,-0.89534 -0.0597,-0.35811 -0.23876,-0.86547 -0.5372,-1.52207 m 21.84619,-7.07315 -0.53721,-0.5372 0,1.70114 c 0.29841,3e-5 0.44764,-0.0298 0.44767,-0.0895 0.0597,-0.0597 0.0895,-0.41779 0.0895,-1.0744 m 3.58134,6.53595 0,2.32787 c 0.2984,-0.59687 0.44762,-0.98485 0.44766,-1.16394 -4e-5,-0.11935 -0.0598,-0.26857 -0.17906,-0.44766 -0.0598,-0.17905 -0.14926,-0.4178 -0.2686,-0.71627 m -24.08452,-14.1463 0.44767,1.16394 0,-1.79067 c -0.29846,0.29849 -0.44768,0.50739 -0.44767,0.62673 m 4.029,-7.16268 c -0.29845,0.29849 -0.47752,0.53725 -0.5372,0.71627 -0.0597,0.11942 -0.0895,0.32833 -0.0895,0.62673 -2e-5,-0.11933 0.0895,-0.26856 0.2686,-0.44766 0.23873,-0.23872 0.35811,-0.53716 0.35812,-0.89534"
           id="path3874"
           inkscape:connector-curvature="0"
           style="fill:#4093aa;fill-opacity:0.78222219" />
        <path
           d="m 442.35763,491.77374 c -0.77598,-0.29845 -1.64147,-0.5372 -2.59647,-0.71627 -2e-5,0 -0.14924,-0.0895 -0.44767,-0.2686 -0.29846,-0.17906 -0.53722,-0.59689 -0.71627,-1.25347 -0.17908,-0.0597 -0.47753,-0.11937 -0.89533,-0.17907 -0.23878,0.5969 -0.74613,0.8058 -1.52208,0.62674 -0.71627,-0.23876 -1.22363,-0.29844 -1.52206,-0.17906 -0.29846,0.29844 -0.83566,0.29844 -1.61161,0 -0.77596,-0.35814 -1.61161,-0.68643 -2.50694,-0.98488 -0.29845,-0.83563 -0.59689,-1.67129 -0.89533,-2.50693 -0.53721,-1.55191 -1.13409,-3.28289 -1.79067,-5.19295 -0.65658,-1.96972 -1.13409,-4.14837 -1.43254,-6.53594 0.17907,-1.31314 0.47751,-2.3577 0.89533,-3.13368 0.41783,-0.83563 1.52207,-2.05925 3.31275,-3.67087 1.79066,-1.61158 2.71584,-2.44722 2.77554,-2.50694 0.0597,-0.0597 0.2089,0.0598 0.44766,0.35813 1.55191,-1.4922 3.16351,-2.41738 4.83481,-2.77554 1.67129,-0.41779 3.7007,-0.6267 6.08828,-0.62673 0.59687,-0.29842 0.92517,-0.50733 0.98488,-0.62673 0.11935,-0.11935 0.17904,-0.32827 0.17906,-0.62674 0.59687,-0.29841 1.16391,-0.56701 1.70114,-0.8058 0.59686,-0.23873 1.2236,-0.35811 1.8802,-0.35813 l 0,-1.79068 c -0.29847,-1.79063 -0.44769,-3.19332 -0.44767,-4.20807 0.0597,-1.07436 -0.388,-1.7011 -1.343,-1.8802 -0.89536,-0.23872 -1.79069,-0.44764 -2.68601,-0.62674 -0.83566,-0.17903 -1.91006,-0.47747 -3.2232,-0.89533 -0.29846,4e-5 -0.59691,0.0896 -0.89533,0.2686 -0.29847,0.1791 -0.59692,0.26864 -0.89534,0.2686 -0.1194,0.59693 -0.23878,1.16397 -0.35814,1.70113 -0.11939,0.53724 -0.20892,1.19382 -0.2686,1.96974 -0.0597,0.71631 -0.23877,1.67133 -0.5372,2.86507 -0.41783,3e-5 -1.25348,0.0299 -2.50693,0.0895 0.4775,-0.0597 0.35812,-0.29841 -0.35814,-0.71627 -0.23877,-0.17904 -0.77597,-0.23872 -1.6116,-0.17907 -0.77597,0.47755 -1.76084,0.71631 -2.95461,0.71627 -1.19379,-0.0597 -2.65616,-0.23872 -4.38715,-0.5372 0,-1.31313 0.0895,-2.44721 0.2686,-3.40228 0.23876,-0.95498 0.56705,-1.82047 0.98488,-2.59647 0.41781,-0.8356 0.92517,-1.6414 1.52207,-2.4174 0.59688,-0.83561 1.25346,-1.76079 1.96974,-2.77554 0.83563,-0.89529 1.73097,-1.6414 2.686,-2.23834 0.95501,-0.65653 2.02941,-1.28327 3.22321,-1.8802 1.67127,-0.29839 3.37241,-0.65653 5.10341,-1.0744 1.79065,-0.47747 3.55147,-0.71622 5.28247,-0.71628 0.65656,6e-5 1.28329,0.0299 1.88021,0.0895 0.59686,0.0597 1.2236,0.20896 1.8802,0.44767 l 0,0.62673 6.53595,2.95461 c 0.11934,0.59693 0.26856,1.07445 0.44767,1.43254 0.23871,0.29848 0.47747,0.59693 0.71626,0.89533 0.29841,0.2388 0.59686,0.5074 0.89534,0.8058 0.29841,0.2388 -0.35817,0.29849 -1.96974,0.17907 2.14877,1.37289 3.1038,2.41745 2.86508,3.13367 0.59684,1.43257 0.86545,2.74573 0.8058,3.93947 -4e-5,0.47755 -0.0896,1.40273 -0.2686,2.77555 -0.11942,1.31319 -0.41786,1.93992 -0.89534,1.8802 -4e-5,3.04417 -0.0896,4.14841 -0.2686,3.31274 0.41779,3.46198 0.6267,5.96893 0.62674,7.52082 -4e-5,1.49224 0.0298,2.56664 0.0895,3.22321 -4e-5,0.89534 -0.14926,1.6713 -0.44767,2.32786 -0.0598,2e-5 0.0895,0.0896 0.44767,0.26861 -0.11941,1.79068 -0.26864,2.17866 -0.44767,1.16393 -0.1791,2.14882 -0.47755,3.49182 -0.89534,4.029 l 0.5372,1.52208 0.71628,1.79067 1.16393,0 c -3e-5,1.19379 -3e-5,2.38756 0,3.58134 0.0597,1.13409 0.23872,2.29803 0.5372,3.49181 l -3.76041,0 c -0.95505,0 -1.91008,-0.0597 -2.86507,-0.17907 -0.95505,-0.11938 -1.88023,-0.32829 -2.77554,-0.62673 -0.83567,-0.35814 -1.58178,-0.83565 -2.23833,-1.43254 -0.59692,-0.65658 -1.04459,-1.49223 -1.34301,-2.50694 l -1.79067,0 c -0.59691,0.59689 -1.10427,1.16393 -1.52207,1.70114 -0.41784,0.47751 -0.83567,0.95502 -1.25346,1.43253 -0.35817,0.41783 -0.80583,0.80581 -1.34301,1.16394 -0.47753,0.41782 -1.07442,0.77595 -1.79067,1.0744 m -1.70114,-8.32662 c 0.35812,-0.17906 0.68641,-0.26859 0.98487,-0.2686 0.29843,10e-6 0.56703,0.0597 0.8058,0.17907 0.29843,0.0597 0.68641,0.0895 1.16394,0.0895 0.29843,-0.29844 0.6864,-0.68641 1.16393,-1.16393 0.53719,-0.47751 1.13407,-0.86549 1.79068,-1.16394 0.71624,-1.19376 1.28328,-2.3577 1.70113,-3.49181 0.4178,-1.19376 0.71625,-2.41739 0.89534,-3.67087 0.17904,-1.25345 0.26857,-2.53677 0.2686,-3.84994 0.0597,-1.37282 0.0895,-2.83521 0.0895,-4.38714 -0.1194,3e-5 -0.23878,3e-5 -0.35813,0 -0.11941,-0.0597 -0.26863,-0.0895 -0.44767,-0.0895 -0.6566,3e-5 -1.43256,0.11941 -2.32788,0.35814 -0.89535,0.17909 -1.79068,0.47753 -2.686,0.89533 -0.89535,0.35816 -1.70115,0.86551 -2.41741,1.52208 -0.65659,0.59691 -1.07441,1.28333 -1.25346,2.05926 -1.37286,0.71629 -2.23835,1.4624 -2.59647,2.23835 -0.29846,0.71628 -0.44768,1.70114 -0.44767,2.95459 -1e-5,0.41784 -1e-5,0.89536 0,1.43254 0.0597,0.47753 0.0895,1.01473 0.0895,1.61161 0.29844,1e-5 0.4775,0.0299 0.5372,0.0895 0.11937,0.0597 0.32828,0.23877 0.62674,0.5372 -0.29846,0.59691 -0.56706,1.07441 -0.8058,1.43253 -0.23878,0.29846 -0.35815,0.59691 -0.35814,0.89534 l 0.62674,0.62674 c 1.13407,0.29845 1.82049,0.50737 2.05927,0.62673 0.29842,0.11939 0.59688,0.29846 0.89533,0.5372 m 7.61035,-38.94707 c 0.65655,4e-5 1.13407,-0.23871 1.43254,-0.71628 0.3581,-0.53715 0.6864,-1.10419 0.98486,-1.70113 -0.59691,5e-5 -1.16395,-0.0895 -1.70113,-0.2686 -0.53722,-0.17902 -0.95505,-0.26855 -1.25347,-0.2686 l 0,0.89533 c -3e-5,0.47756 -3e-5,0.83569 0,1.0744 0.0597,0.17911 0.23873,0.50741 0.5372,0.98488 m 5.90921,43.06561 c 0.29842,0 0.59686,-0.0895 0.89534,-0.2686 0.29841,-0.17906 0.59686,-0.26859 0.89534,-0.2686 -0.29848,-0.29844 -0.47755,-0.59688 -0.5372,-0.89533 -4e-5,-0.35813 -4e-5,-0.86548 0,-1.52207 -0.65662,0.29845 -1.16397,0.47751 -1.52208,0.5372 -0.29847,0.0597 -0.59692,0.0895 -0.89533,0.0895 l 0,1.16393 c -3e-5,0.29845 0.11935,0.50736 0.35813,0.62673 0.23873,0.0597 0.50733,0.23876 0.8058,0.5372 m 0.62674,-21.21944 c 0.29841,-0.29842 0.59686,-0.47748 0.89534,-0.5372 0.29841,-0.0597 0.59685,-0.0895 0.89533,-0.0895 -4e-5,-0.59687 0.23872,-1.40267 0.71627,-2.4174 0.53716,-1.0147 0.98483,-2.56661 1.343,-4.65575 -2.08915,2.98448 -3.28293,4.77515 -3.58134,5.37201 -0.29848,0.53723 -0.59692,1.10427 -0.89534,1.70114 0.11935,3e-5 0.20888,0.0299 0.2686,0.0895 0.23873,0.0597 0.35811,0.23878 0.35814,0.5372 m -11.19169,-19.51831 0.5372,-1.16393 c -0.59691,5e-5 -1.07442,0.0299 -1.43254,0.0895 -0.29846,5e-5 -0.59691,0.14927 -0.89533,0.44767 l 0,0.62673 1.79067,0 m 14.14629,41.36449 0,-0.62674 c -0.23879,-0.23875 -0.47754,-0.38797 -0.71626,-0.44766 -0.17911,-0.0597 -0.32833,-0.20891 -0.44767,-0.44767 l 0,1.52207 1.16393,0 m -0.62673,-13.87769 c 0.8953,-0.89532 1.4325,-1.40268 1.6116,-1.52208 0.17903,-0.17904 0.41779,-0.26858 0.71627,-0.2686 l 0.44767,-3.84993 c -3e-5,-1.73096 -0.26863,-1.76081 -0.8058,-0.0895 -0.53724,1.61162 -0.80584,2.71587 -0.8058,3.31274 l -1.16394,0 0,2.41741 m -0.62673,2.32787 1.16393,0 -0.5372,-1.16394 c -0.29848,2e-5 -0.47754,0.0597 -0.5372,0.17906 -0.0597,0.0598 -0.0896,0.388 -0.0895,0.98488 m -22.47292,-8.59522 c -0.5969,0.29847 -1.19379,0.68645 -1.79067,1.16394 -0.53721,0.41784 -1.13409,0.62675 -1.79067,0.62673 l -1.16394,2.9546 4.74528,-4.74527 m -0.44767,4.83481 -0.62673,-0.62674 -0.62673,0 c -0.41783,1.1938 -0.74613,2.14882 -0.98488,2.86508 -0.23875,0.65659 -0.41782,1.22363 -0.5372,1.70113 -0.11938,0.47753 -0.23876,0.95504 -0.35813,1.43254 -0.11938,0.41783 -0.26861,0.98488 -0.44767,1.70113 0.59689,-0.59688 0.98487,-1.16392 1.16394,-1.70113 0.17906,-0.53719 0.56703,-0.95501 1.16394,-1.25347 l 0,-3.58134 1.25346,0 0,-0.5372"
           id="path3876"
           inkscape:connector-curvature="0"
           style="fill:#4093aa;fill-opacity:0.78222219" />
      </g>
    </g>
  </g>
  <g
     inkscape:groupmode="layer"
     id="layer5"
     inkscape:label="bus"
     style="display:inline"
     transform="translate(-161.18927,-128.7082)">
    <path
       transform="translate(135.52028,102.95003)"
       d="m 32.144892,93.064972 102.260078,0 0,-17.60379 -102.260078,0 0,17.60379 z m 2.72498,14.787448 18.38006,0 0,-12.074893 -18.38006,0 0,12.074893 z m 20.96881,0 18.381286,0 0,-12.074893 -18.381286,0 0,12.074893 z m 20.971251,0 18.380005,0 0,-12.074893 -18.380005,0 0,12.074893 z m 39.350037,-50.419925 -18.380005,0 0,12.073669 18.380005,0 0,-12.073669 z m -20.96875,0 -18.380005,0 0,12.073669 18.380005,0 0,-12.073669 z m -20.970032,0 -18.381226,0 0,12.073669 18.381226,0 0,-12.073669 z m -20.971256,0 -18.37872,0 0,12.073669 18.37872,0 0,-12.073669 z m -12.88,-6.131287 84.915038,0 c 4.21246,0 7.83496,2.517456 9.45252,6.131287 l -16.12378,0 0,12.073669 17.02502,0 0,26.271362 -18.38129,0 0,12.074894 18.38129,0 0,11.36007 -3.12878,0.0112 c -1.24128,-3.76001 -4.79377,-6.48248 -8.97748,-6.48248 -4.21253,0 -7.77625,2.7525 -8.99878,6.55368 l -1.35748,0.01 0,-22.95752 -15.873783,0 0,23.0188 -41.422485,0.17749 c -1.13873,-3.92627 -4.77246,-6.80249 -9.07123,-6.80249 -4.32751,0 -7.97131,2.90875 -9.08002,6.875 l -7.71496,0.0299 0,-57.989993 c 0,-5.726257 4.62872,-10.35498 10.3562,-10.35498"
       id="path418"
       inkscape:connector-curvature="0"
       style="fill:#d54425;fill-rule:nonzero;stroke:#000000;stroke-opacity:0.71372548999999996;fill-opacity:0.5688889" />
    <path
       d="m 118.61371,57.432495 0,12.073669 17.02502,0 0,-7.849976 c 0,-1.51001 -0.32379,-2.940002 -0.90125,-4.223694 l -16.12377,0"
       id="path420"
       inkscape:connector-curvature="0"
       style="fill:#ffffff;fill-rule:nonzero;stroke:#000000;stroke-opacity:0.71372548999999996;fill-opacity:1"
       transform="translate(135.52028,102.95003)" />
    <path
       transform="translate(135.52028,102.95003)"
       d="m 40.854912,122.18494 c 0,3.29251 2.67133,5.95376 5.9538,5.95376 3.2937,0 5.95373,-2.66125 5.95373,-5.95376 0,-0.94248 -0.21624,-1.83371 -0.61877,-2.63001 -0.96374,-1.96872 -2.99377,-3.32498 -5.33496,-3.32498 -2.34875,0 -4.39008,1.3775 -5.35382,3.36627 -0.39246,0.78626 -0.59998,1.66495 -0.59998,2.58872"
       id="path422"
       inkscape:connector-curvature="0"
       style="fill:#ffffff;fill-rule:nonzero;stroke:#000000;stroke-opacity:0.71372549" />
    <path
       d="m 258.36403,231.08879 c -3.2937,0 -5.95373,-2.66128 -5.95373,-5.95373 0,-0.94251 0.21624,-1.83374 0.61877,-2.63132 0.96374,-1.96747 2.99377,-3.3237 5.33496,-3.3237 2.34875,0 4.39008,1.3775 5.35382,3.36499 0.39246,0.78754 0.59998,1.66754 0.59998,2.59003 0,3.29245 -2.67133,5.95373 -5.9538,5.95373 m 9.08002,-8.52252 c -1.10871,-3.96625 -4.7525,-6.875 -9.08002,-6.875 -4.29877,0 -7.93249,2.8775 -9.07123,6.80255 -0.24872,0.83875 -0.38379,1.71875 -0.38379,2.64124 0,5.22876 4.23511,9.45373 9.45502,9.45373 5.21625,0 9.44257,-4.22497 9.44257,-9.45373 0,-0.89124 -0.12256,-1.75128 -0.36255,-2.56879"
       id="path424"
       inkscape:connector-curvature="0"
       style="fill:#182533;fill-rule:nonzero;stroke:#000000;stroke-opacity:0.71372548999999996;fill-opacity:0.4311111" />
    <path
       d="m 181.68276,231.08879 c -3.29377,0 -5.95374,-2.66128 -5.95374,-5.95373 0,-0.94251 0.21497,-1.83374 0.61749,-2.63132 0.96375,-1.96747 2.995,-3.3237 5.33625,-3.3237 2.34997,0 4.38873,1.3775 5.35247,3.36499 0.39252,0.78754 0.60126,1.66754 0.60126,2.59003 0,3.29245 -2.67126,5.95373 -5.95373,5.95373 m 9.08001,-8.52252 c -1.10876,-3.96625 -4.75128,-6.875 -9.08001,-6.875 -4.29749,0 -7.9325,2.8775 -9.07251,6.80255 -0.24872,0.83875 -0.38373,1.71875 -0.38373,2.64124 0,5.22876 4.23498,9.45373 9.45624,9.45373 5.21753,0 9.44122,-4.22497 9.44122,-9.45373 0,-0.89124 -0.1225,-1.75128 -0.36121,-2.56879"
       id="path426"
       inkscape:connector-curvature="0"
       style="fill:#182533;fill-rule:nonzero;stroke:#000000;stroke-opacity:0.71372548999999996;fill-opacity:0.42666668" />
    <path
       transform="translate(135.52028,102.95003)"
       d="m 97.301205,96.347504 0,23.020016 0.609985,0 15.26502,-0.0613 0,-22.958706 -15.875005,0"
       id="path428"
       inkscape:connector-curvature="0"
       style="fill:#182533;fill-rule:nonzero;stroke:#000000;stroke-opacity:0.71372548999999996;fill-opacity:0.42666668" />
    <path
       transform="translate(135.52028,102.95003)"
       d="m 135.63873,107.85248 -18.38135,0 0,-12.075197 18.38135,0 0,12.075197 z"
       id="path432"
       inkscape:connector-curvature="0"
       style="fill:#ffffff;fill-rule:nonzero;stroke:#000000;stroke-opacity:0.71372548999999996;fill-opacity:1" />
    <path
       style="fill:#ffffff;fill-opacity:1;stroke:#000000;stroke-width:0.30240291;stroke-opacity:0.71372549"
       d="m 94.640468,100.95205 c -1.697179,-0.970496 -2.372554,-2.033069 -2.534655,-3.987798 -0.168046,-2.026413 0.263144,-3.185434 1.632309,-4.387577 2.594033,-2.277591 6.111687,-1.674135 7.993908,1.37136 0.8759,1.417237 0.73992,4.08978 -0.28105,5.523596 -1.488035,2.089749 -4.572433,2.760209 -6.810512,1.480419 l 0,0 z"
       id="path7606"
       inkscape:connector-curvature="0"
       transform="translate(161.18927,128.7082)" />
    <path
       style="fill:#ffffff;fill-opacity:1;stroke:#000000;stroke-width:0.30240291;stroke-opacity:0.71372549"
       d="m 18.881606,101.10775 c -2.605215,-1.328433 -3.68866,-4.301302 -2.478583,-6.800988 1.566151,-3.235236 5.227103,-3.979974 7.710162,-1.568457 2.013016,1.955017 2.18855,4.780384 0.429572,6.914329 -1.586516,1.924716 -3.683284,2.463666 -5.661151,1.455116 z"
       id="path7608"
       inkscape:connector-curvature="0"
       transform="translate(161.18927,128.7082)" />
  </g>
  <g
     inkscape:groupmode="layer"
     id="layer8"
     inkscape:label="road"
     transform="translate(-161.18927,-128.7082)">
    <path
       d="m 161.68927,238.53271 13.80501,0 0,-3.39249 -13.80501,0 z m 27.61005,0 13.805,0 0,-3.39249 -13.805,0 z m 27.60992,0 13.80507,0 0,-3.39249 -13.80507,0 z"
       id="path296"
       inkscape:connector-curvature="0"
       style="fill:#ffffff;fill-rule:nonzero;stroke:#000000;stroke-opacity:0.71372549;display:inline"
       sodipodi:nodetypes="ccccccccccccccc" />
    <path
       sodipodi:nodetypes="ccccccccccccccc"
       style="fill:#ffffff;fill-rule:nonzero;stroke:#000000;stroke-opacity:0.71372549;display:inline"
       inkscape:connector-curvature="0"
       id="path7579"
       d="m 245.68927,238.53271 13.80501,0 0,-3.39249 -13.80501,0 z m 27.61005,0 13.805,0 0,-3.39249 -13.805,0 z m 27.60992,0 13.80507,0 0,-3.39249 -13.80507,0 z" />
    <path
       sodipodi:nodetypes="ccccccccccccccc"
       style="fill:#ffffff;fill-rule:nonzero;stroke:#000000;stroke-opacity:0.71372549;display:inline"
       inkscape:connector-curvature="0"
       id="path7581"
       d="m 327.68927,238.53271 13.80501,0 0,-3.39249 -13.80501,0 z m 27.61005,0 13.805,0 0,-3.39249 -13.805,0 z m 27.60992,0 13.80507,0 0,-3.39249 -13.80507,0 z" />
    <path
       d="m 411.68927,238.53271 13.80501,0 0,-3.39249 -13.80501,0 z m 27.61005,0 13.805,0 0,-3.39249 -13.805,0 z m 27.60992,0 13.80507,0 0,-3.39249 -13.80507,0 z"
       id="path7583"
       inkscape:connector-curvature="0"
       style="fill:#ffffff;fill-rule:nonzero;stroke:#000000;stroke-opacity:0.71372549;display:inline"
       sodipodi:nodetypes="ccccccccccccccc" />
  </g>
</svg>
