<?xml version="1.0" encoding="UTF-8" standalone="no"?>
<svg
   xmlns:dc="http://purl.org/dc/elements/1.1/"
   xmlns:cc="http://creativecommons.org/ns#"
   xmlns:rdf="http://www.w3.org/1999/02/22-rdf-syntax-ns#"
   xmlns:svg="http://www.w3.org/2000/svg"
   xmlns="http://www.w3.org/2000/svg"
   xmlns:sodipodi="http://sodipodi.sourceforge.net/DTD/sodipodi-0.dtd"
   xmlns:inkscape="http://www.inkscape.org/namespaces/inkscape"
   width="226"
   height="163.25"
   id="svg3107"
   version="1.1"
   inkscape:version="0.48.4 r9939"
   sodipodi:docname="rings.svg"
   viewBox="0 0 100 100">
  <metadata
     id="metadata3123">
    <rdf:RDF>
      <cc:Work
         rdf:about="">
        <dc:format>image/svg+xml</dc:format>
        <dc:type
           rdf:resource="http://purl.org/dc/dcmitype/StillImage" />
        <dc:title></dc:title>
      </cc:Work>
    </rdf:RDF>
  </metadata>
  <defs
     id="defs3121" />
  <sodipodi:namedview
     pagecolor="#ffffff"
     bordercolor="#666666"
     borderopacity="1"
     objecttolerance="10"
     gridtolerance="10"
     guidetolerance="10"
     inkscape:pageopacity="0"
     inkscape:pageshadow="2"
     inkscape:window-width="1208"
     inkscape:window-height="688"
     id="namedview3119"
     showgrid="false"
     inkscape:zoom="1.3584071"
     inkscape:cx="252.50163"
     inkscape:cy="19.848393"
     inkscape:window-x="74"
     inkscape:window-y="34"
     inkscape:window-maximized="0"
     inkscape:current-layer="g3109" />
  <!-- Created with Method Draw - http://github.com/duopixel/Method-Draw/ -->
  <g
     id="g3109">
    <title
       id="title3111">Layer 1</title>
    <g
       transform="matrix(0.75832571,0,0,-0.75832571,-16.938683,610.33653)"
       id="g436">
      <path
         d="m 154.84114,768.53815 c -8.39999,8.393 -20.008,13.58404 -32.82599,13.58404 -12.82101,0 -24.427,-5.19104 -32.827024,-13.58404 -8.401001,-8.39301 -13.596985,-19.98902 -13.596985,-32.79401 0,-12.81 5.195984,-24.40497 13.596985,-32.797 8.400024,-8.393 20.006014,-13.58398 32.827024,-13.58398 12.81799,0 24.426,5.19098 32.82599,13.58398 8.39899,8.39203 13.59601,19.987 13.59601,32.797 0,12.80499 -5.19702,24.401 -13.59601,32.79401 m -32.82599,22.54901 c 15.29599,0 29.14398,-6.19501 39.16998,-16.211 10.02402,-10.01502 16.22501,-23.85101 16.22501,-39.13202 0,-15.284 -6.20099,-29.12 -16.22501,-39.13599 -10.026,-10.01599 -23.87399,-16.20996 -39.16998,-16.20996 -15.297,0 -29.145994,6.19397 -39.171019,16.20996 -10.024994,10.01599 -16.225983,23.85199 -16.225983,39.13599 0,15.28101 6.200989,29.117 16.225983,39.13202 10.025024,10.01599 23.874019,16.211 39.171019,16.211"
         id="svg_1"
         inkscape:connector-curvature="0"
         style="fill:#4093a0;fill-rule:evenodd" />
    </g>
    <g
       transform="matrix(0.75832571,0,0,-0.75832571,-16.938683,610.33653)"
       id="g440">
      <path
         d="m 28.657597,803.40094 24.849979,-9.521 -13.272984,-29.90301 -27.648015,18.15601 16.071019,21.268 z"
         id="svg_3"
         inkscape:connector-curvature="0"
         style="fill:#4093a0;fill-rule:evenodd" />
    </g>
    <g
       transform="matrix(0.75832571,0,0,-0.75832571,-16.938683,610.33653)"
       id="g444">
      <path
         d="m 79.07402,753.12353 c -7.187988,7.17896 -17.114979,11.62 -28.082943,11.62 -10.965988,0 -20.894974,-4.44104 -28.081985,-11.62 -7.184999,-7.17901 -11.630987,-17.09997 -11.630987,-28.05499 0,-10.95703 4.445989,-20.87799 11.630987,-28.05597 7.187012,-7.17901 17.115997,-11.62005 28.081985,-11.62005 10.966957,0 20.894955,4.44104 28.082943,11.62005 7.186005,7.17798 11.631012,17.09894 11.631012,28.05597 0,10.95502 -4.445007,20.87598 -11.631012,28.05499 m -28.082943,20.17701 c 13.331936,0 25.401943,-5.39905 34.137936,-14.12799 8.737,-8.72797 14.141022,-20.78504 14.141022,-34.10401 0,-13.32001 -5.404022,-25.37805 -14.141022,-34.10699 -8.735992,-8.72699 -20.807007,-14.12702 -34.137936,-14.12702 -13.330978,0 -25.400986,5.40003 -34.137985,14.12702 -8.734995,8.72894 -14.139999,20.78698 -14.139999,34.10699 0,13.31897 5.403997,25.37604 14.139999,34.10401 8.737,8.72894 20.807007,14.12799 34.137985,14.12799"
         id="svg_5"
         inkscape:connector-curvature="0"
         style="fill:#52a5b1;fill-rule:evenodd" />
    </g>
  </g>
</svg>
