<?xml version="1.0"?>
<svg width="232" height="270" xmlns="http://www.w3.org/2000/svg">
 <!-- Created with Method Draw - http://github.com/duopixel/Method-Draw/ -->
 <g>
  <title>Layer 1</title>
  <path fill="#ddbc97" fill-rule="nonzero" id="path734" d="m140.147507,125.648758c0,-0.027542 -0.027496,-0.027542 -0.027496,-0.083771c-0.926254,-3.199997 -1.543732,-9.742508 -4.828751,-11.455002c-3.397491,-1.77002 -4.942505,3.986282 -4.744995,6.232452c0.279999,2.86377 1.178741,5.756302 2.751236,8.198776c0.645004,-0.36499 1.291275,-0.702515 1.9375,-1.011276c1.543777,-0.72998 3.200012,-1.347427 4.912506,-1.88118zm38.830002,125.108719c-1.263733,-0.476227 -2.498749,-1.038727 -3.706253,-1.627502c-2.189987,1.852509 -3.312485,5.558685 -3.453751,8.366241c-0.056244,1.431274 -0.167496,3.59375 1.236252,4.492584c1.009995,0.617432 1.768753,0.673676 2.413773,-0.421295c1.881226,-3.285095 1.684982,-7.55249 3.509979,-10.810028zm18.951263,10.136261c6.878723,-6.878723 12.494995,-16.060028 12.213745,-26.111298c-0.308746,-10.864944 -4.80127,-21.449966 -12.633743,-29.087448c-7.243759,-7.103729 -16.341248,-9.686279 -24.398758,-15.386276c-0.197495,0 -0.393753,0 -0.618759,-0.027466c-1.375,-0.196228 -0.78624,-2.273788 0.590012,-2.07756l0.028748,0c0.196259,-0.083694 0.420013,-0.083694 0.673737,0c2.920013,-0.308685 6.570023,-4.661255 8.255005,-6.542435c4.098755,-4.520035 4.968765,-12.352524 5.053757,-18.221283c0.139999,-8.843765 -1.123734,-18.951187 -7.497513,-25.606232c-1.011246,0.253677 -1.79747,-1.318741 -0.757492,-2.021255c0.027496,0 0.055008,-0.027542 0.111252,-0.056305c0.084991,-0.139999 0.224991,-0.223694 0.36499,-0.308685c3.090012,-2.638779 8.03125,-11.961212 3.005005,-14.150009c-4.801254,-2.078781 -10.416229,5.362473 -12.073746,9.039993c-0.111252,0.281219 -0.308731,0.421219 -0.505005,0.477524c-0.36499,0.393753 -1.009995,0.561218 -1.543747,0.112457c-8.732498,-7.496262 -26.082504,-6.008682 -35.179977,0.36499c-7.243774,5.08255 -12.016266,13.111267 -13.365021,21.871262c-2.891235,18.952484 8.479996,35.995026 28.44249,36.387558c1.403778,0.027466 1.403778,2.190018 0,2.162476c-6.121246,-0.112534 -11.623734,-1.797485 -16.199982,-4.605026c-0.056244,0.112534 -0.139999,0.196228 -0.281265,0.281296c-1.516251,1.038742 -2.331253,2.891235 -3.087494,4.491196c-0.197495,0.449982 -0.787506,0.590057 -1.20874,0.477524c-6.54126,-1.431274 -13.645004,0.702438 -16.53624,7.131271c-0.421265,0.954971 -0.871277,1.993713 -1.038757,3.032532c-0.477509,2.779922 2.947479,2.919922 4.407501,1.094971c1.15123,-1.460037 2.246246,-3.510056 3.762482,-4.632568c2.891266,-2.133713 8.086273,-2.021179 11.286255,-0.589905c3.875,1.74118 6.233749,5.026245 8.536255,8.478699c1.796265,-0.841293 3.649994,-1.318741 5.502487,-1.318741c1.403778,-0.028763 1.403778,2.133713 0,2.133713c-4.884995,0.027542 -9.631241,4.127502 -12.184998,8.05748c-1.348724,2.078781 -2.751236,4.521332 -2.808746,7.103806c-0.027481,2.275009 1.685013,8.05748 4.212494,3.902512c3.733749,-6.063766 5.980011,-15.695038 15.24501,-13.532562c1.347488,0.337524 0.78624,2.415085 -0.588745,2.07756c-1.768753,-0.392532 -3.201263,-0.337524 -4.380005,0.112457c0.139999,0.083771 0.279999,0.196304 0.392517,0.392532c4.74498,8.872452 12.157471,16.621246 20.018723,22.798767c8.562515,6.709991 19.82251,14.149933 31.248749,12.156219c0.253754,-0.027557 0.450012,0.028748 0.646255,0.112518c0.730011,-1.29126 1.291245,-2.413757 1.376251,-3.172516c0.196259,-1.374969 2.273758,-0.786224 2.077499,0.561218c-0.308731,2.331238 -1.684998,4.380035 -2.836243,6.37381c-0.955002,1.543762 -1.993744,3.11615 -2.72374,4.801208c-1.768768,4.043732 2.94873,3.537506 4.997498,1.460022zm25.831238,-46.073761c0.786255,-9.124985 -3.622498,-16.452484 -9.068756,-23.387527c-3.566254,-4.576187 -8.282501,-9.293747 -7.917511,-15.469971c0.167511,-3.059998 0.757507,-6.121216 0.813751,-9.181213c0.027527,-1.151276 -0.28125,-9.995041 -5.193726,-3.622513c-1.347488,1.712418 -1.824997,3.874969 -1.797516,6.008682c0.112518,13.64502 9.882507,21.310043 15.834991,32.652588c5.08252,9.742432 5.868774,19.373703 -4.857483,25.184937c-0.054993,0.028763 -0.111267,0.028763 -0.167511,0.056229c0.336243,1.516357 0.561249,3.032532 0.730011,4.576355c0.167511,-0.055023 0.336243,-0.055023 0.561249,0.028656c8.086243,2.695007 10.584991,-11.398682 11.0625,-16.846222zm2.246246,-5.082474c0.588745,7.413712 -2.386261,27.656265 -13.757507,24.033737c0.223755,5.418762 -0.758728,10.837463 -3.397491,15.863708c-2.386261,4.548737 -10.501251,19.288818 -17.491241,15.190063c-3.482513,-2.05011 -0.281235,-7.412567 2.386246,-11.821289c-4.296249,0.533752 -8.619995,-0.139984 -12.746246,-1.516266c-1.909988,3.201202 -1.742508,14.347534 -7.272507,13.112488c-6.851257,-1.488739 -4.127502,-12.662415 -0.477478,-16.537476c-2.976273,-1.628815 -5.783752,-3.509979 -8.367523,-5.446228c-9.264984,-6.963806 -18.079987,-15.413757 -23.611237,-25.718704c-0.112518,-0.196304 -0.141266,-0.421295 -0.112518,-0.588837c-3.67749,2.835007 -4.492493,9.798737 -7.973724,13.027481c-3.14502,2.891235 -6.205017,-0.141205 -6.851257,-3.734955c-1.15126,-6.428757 3.453751,-13.982544 9.48999,-17.716217c-2.975006,-4.46373 -6.428757,-8.787537 -12.466232,-8.255005c-5.081253,0.449982 -5.840027,4.379959 -9.377502,6.96373c-3.172516,2.302475 -6.681274,-0.139999 -6.485001,-3.59375c0.252487,-4.576263 3.873734,-9.658737 8.029984,-11.51123c3.481262,-1.572495 6.822495,-2.077484 10.639999,-1.545029c1.207504,0.141296 2.667496,-2.778778 3.931244,-4.042511c-10.556229,-7.55249 -15.638748,-21.478729 -12.016251,-35.741272c2.021255,-8.002472 6.513763,-15.722427 13.392502,-20.467453c-2.218735,-3.313751 -3.369995,-7.666245 -3.032486,-11.596222c0.224991,-2.807541 2.413742,-6.092529 5.475006,-6.373825c5.811234,-0.561218 7.159988,9.350052 8.282486,13.28125c0,0.027542 0,0.055008 0,0.083771c8.899994,-2.217484 19.456253,-1.768723 26.503754,3.509979c2.471252,-4.773712 9.996246,-13.139954 15.44249,-8.676224c4.857498,3.95874 1.320007,12.634964 -2.80748,16.593781c7.944992,8.478699 9.264999,22.937469 7.27124,33.860016c-1.178757,6.513672 -3.22876,11.736221 -8.366257,16.031189c-1.319977,1.094971 -2.723755,2.387543 -4.296249,3.172531c5.896271,3.73497 12.551254,6.037521 18.193756,10.220032c5.082504,3.789978 9.658752,9.012451 12.606232,14.628677c1.768768,3.284988 3.201263,6.82251 4.154999,10.472488c20.131256,-11.399918 -6.709991,-31.727448 -10.696213,-44.726181c-1.685028,-5.475006 -3.00502,-12.157516 -0.168762,-17.46376c1.741257,-3.341293 6.709976,-4.127502 8.956253,-1.123734c1.797485,2.359924 0.617493,7.188721 0.337494,9.743729c-0.646271,5.783768 -0.056244,9.348755 3.537506,14.150009c5.446228,7.356262 12.352478,14.656219 13.139984,24.257507"/>
  <path fill="#6ecb89" fill-rule="nonzero" id="path736" d="m214.691254,191.432449c5.446259,6.935043 9.855011,14.262543 9.068756,23.387527c-0.477509,5.44754 -2.976257,19.541229 -11.0625,16.846222c-0.225006,-0.083679 -0.393768,-0.083679 -0.561249,-0.028656c-0.168762,-1.543823 -0.393768,-3.059998 -0.730011,-4.576355c0.056244,-0.027466 0.112518,-0.027466 0.167511,-0.056229c10.726257,-5.811234 9.940002,-15.442505 4.857483,-25.184937c-5.952484,-11.342545 -15.722473,-19.007568 -15.834991,-32.652588c-0.027481,-2.133713 0.449997,-4.296265 1.797516,-6.008682c4.912476,-6.372528 5.221222,2.471237 5.193726,3.622513c-0.056244,3.059998 -0.64624,6.121216 -0.813751,9.181213c-0.36499,6.176224 4.351257,10.893784 7.917511,15.469971"/>
  <path fill="#6ecb89" fill-rule="nonzero" id="path738" d="m126.923752,167.73494c6.429993,-3.031235 0.78627,-11.28624 -4.548752,-11.538696c-0.196243,-0.028763 -0.36499,0.027466 -0.505005,0.112457c-0.617477,-0.224991 -1.51622,0.083771 -1.599991,0.953827c-0.449982,4.212418 0.083771,13.562469 6.653748,10.472412zm6.429993,-15.637512c3.368759,-1.347427 3.312515,-7.131195 3.312515,-10.136185c0,-1.375046 -2.161255,-1.375046 -2.161255,0c0,2.442474 -0.028748,5.306168 -1.264999,7.468719c-0.841248,1.460037 -2.637497,0.36499 -3.058762,-0.86998c-0.64624,-2.050018 0.251266,-4.886322 1.122513,-6.738739c0.590012,-1.263733 -1.263748,-2.35878 -1.852509,-1.094971c-1.20874,2.526245 -1.993744,5.614929 -1.34874,8.394928c0.477509,2.077484 3.173737,3.81752 5.251236,2.976227zm18.530029,21.702576c1.263733,-1.206284 1.094986,-3.08754 0.72998,-4.660034c-0.308746,-1.348724 -2.386246,-0.786209 -2.077484,0.589981c0.139999,0.561295 0.533752,2.021255 -0.112518,2.498779c-0.505005,0.36499 -1.291245,-0.112534 -1.684982,-0.421219c-2.217514,-1.797485 -1.347504,-4.548798 -1.262497,-7.020035c0.056229,-0.336227 0.083725,-0.646286 0.139999,-0.955048c1.038742,-0.083694 2.049988,-0.448685 3.003723,-1.291199c0.450027,-0.421219 0.365021,-1.095047 0,-1.516266c-1.796234,-2.105026 -4.351227,-2.695007 -6.962479,-2.021255c-0.196259,0.056305 -0.337509,0.139999 -0.448746,0.281219c-0.730011,0.22377 -1.067505,0.730057 -1.123749,1.543808c-0.027527,0.533752 0.112488,1.0112 0.477478,1.431274c0,0 0,0 0.027496,0c0.056259,0.168686 0.225021,0.337448 0.450012,0.449905c0.224991,0.11261 0.477509,0.225067 0.701248,0.308838c0.084991,0.056229 0.168747,0.112457 0.281265,0.139999c0.421234,0.168762 0.842499,0.281219 1.263733,0.393753c0.08374,0.561218 0.056244,1.122437 0.027496,1.656189c-0.252487,2.275085 -0.701248,4.521255 -2.470001,6.121216c-0.562485,0.505066 -1.657501,1.066284 -2.414978,0.701294c-1.038757,-0.448761 -0.056274,-2.161255 0.281235,-2.751236c0.673752,-1.207504 -1.180008,-2.302475 -1.881256,-1.094971c-0.814987,1.459961 -1.488739,3.313675 -0.477493,4.830017c0.842499,1.262436 2.442505,1.431198 3.790009,1.094971c1.712494,-0.450058 2.836243,-1.460037 3.59375,-2.752533c0.561234,1.151276 1.459991,2.162476 2.611237,2.72377c1.122513,0.561218 2.582504,0.617523 3.537521,-0.281219zm24.033737,-24.230042c0.196243,-1.374969 -1.881256,-1.965027 -2.078766,-0.589981c-0.419998,2.72377 -0.308746,5.924988 -1.879974,8.282547c-0.337524,0.477448 -0.78627,0.533752 -1.263748,0.309982c-0.982498,-0.450058 -1.123764,-1.236267 -1.178772,-2.218781c-0.112488,-2.050018 0.476273,-4.042511 0.532501,-6.092529c0.028763,-1.37619 -2.133728,-1.37619 -2.161255,0c-0.084991,2.527542 -0.758743,4.913788 -0.36499,7.440033c0.308762,2.049942 2.498764,3.537445 4.492493,3.059998c3.621246,-0.841293 3.481247,-7.440033 3.902512,-10.191269zm-1.85376,28.048706c3.482498,-0.50499 6.73877,-4.492493 3.931244,-7.523727c-2.386246,-2.61116 -7.384995,-3.678665 -10.78125,-3.482437c-0.36499,0.027466 -0.646225,0.224915 -0.814972,0.449982c-2.58252,0.561218 -2.919998,3.256226 -1.543777,5.6987c1.796249,3.172531 5.531265,5.418777 9.208755,4.857483zm36.078766,57.163773c0.28125,10.05127 -5.335022,19.232574 -12.213745,26.111298c-2.048767,2.077484 -6.766266,2.58371 -4.997498,-1.460022c0.729996,-1.685059 1.768738,-3.257538 2.723724,-4.801208c1.15126,-1.993774 2.527527,-4.042572 2.836258,-6.37381c0.196259,-1.347443 -1.881241,-1.936188 -2.077499,-0.561218c-0.085007,0.758759 -0.64624,1.881256 -1.376251,3.172516c-0.196259,-0.083771 -0.392502,-0.140076 -0.646255,-0.112518c-11.426239,1.993713 -22.686234,-5.446228 -31.248749,-12.156219c-7.861252,-6.177612 -15.273743,-13.926315 -20.018753,-22.798767c-0.112488,-0.196228 -0.252502,-0.308762 -0.392502,-0.392532c1.178757,-0.449982 2.611252,-0.50499 4.38002,-0.112457c1.374985,0.337524 1.936234,-1.740036 0.58873,-2.07756c-9.264999,-2.162476 -11.511246,7.468796 -15.244995,13.532562c-2.527481,4.154968 -4.240005,-1.627502 -4.212494,-3.902512c0.05751,-2.58255 1.459991,-5.025024 2.808746,-7.103806c2.553757,-3.929977 7.300003,-8.029938 12.184998,-8.05748c1.403748,0 1.403748,-2.162476 0,-2.133713c-1.852493,0 -3.706253,0.477448 -5.502487,1.318741c-2.302505,-3.452454 -4.661255,-6.737518 -8.536255,-8.478775c-3.200012,-1.431198 -8.394989,-1.543732 -11.286255,0.589981c-1.516235,1.122513 -2.611252,3.172531 -3.762482,4.632568c-1.460022,1.824951 -4.88501,1.684952 -4.407501,-1.095047c0.16748,-1.038742 0.617477,-2.077484 1.038727,-3.032455c2.891266,-6.428833 9.99501,-8.562546 16.53627,-7.131271c0.421234,0.112534 1.01123,-0.027542 1.20874,-0.477524c0.756241,-1.59996 1.571243,-3.45253 3.087494,-4.491196c0.141266,-0.085068 0.225021,-0.168762 0.281265,-0.281296c4.576248,2.807541 10.078735,4.492493 16.199982,4.605026c1.403748,0.027466 1.403748,-2.13501 0,-2.162552c-19.962494,-0.392456 -31.333725,-17.434998 -28.44249,-36.387482c1.34874,-8.759995 6.121246,-16.788712 13.365005,-21.871262c9.097488,-6.373672 26.447495,-7.861252 35.179993,-0.36499c0.533752,0.448761 1.178741,0.281296 1.543747,-0.112457c0.196243,-0.056305 0.393753,-0.196304 0.505005,-0.477524c1.657516,-3.677521 7.272491,-11.118774 12.073746,-9.039993c5.026245,2.188721 0.084991,11.51123 -3.005005,14.150009c-0.139999,0.084991 -0.279999,0.168686 -0.36499,0.308685c-0.056244,0.028763 -0.083755,0.056305 -0.111252,0.056305c-1.040009,0.702438 -0.253754,2.274933 0.757492,2.021255c6.373749,6.654968 7.637512,16.762466 7.497513,25.606232c-0.084991,5.868759 -0.955002,13.701248 -5.053757,18.221283c-1.684982,1.88118 -5.335007,6.233673 -8.255005,6.542435c-0.253754,-0.083694 -0.477478,-0.083694 -0.673752,0l-0.028732,0c-1.376251,-0.196228 -1.965012,1.881256 -0.590012,2.07756c0.224991,0.027466 0.421265,0.027466 0.618744,0.027466c8.057526,5.699997 17.154999,8.282547 24.398773,15.386276c7.832474,7.637482 12.324966,18.222504 12.633743,29.087448"/>
  <path fill="#f4717b" fill-rule="nonzero" id="path740" d="m177.994995,170.09494c2.807495,3.031235 -0.448746,7.018738 -3.931244,7.523727c-3.67749,0.561295 -7.412506,-1.684952 -9.208755,-4.857483c-1.376236,-2.442474 -1.038757,-5.137482 1.543747,-5.6987c0.168747,-0.225067 0.450012,-0.422516 0.815002,-0.449982c3.396255,-0.196304 8.395004,0.871201 10.78125,3.482437"/>
  <path fill="#6ecb89" fill-rule="nonzero" id="path742" d="m174.648743,249.147522c1.207504,0.588745 2.443771,1.151184 3.706268,1.628723c-1.825012,3.256317 -1.627502,7.523804 -3.508774,10.808777c-0.64624,1.094971 -1.403748,1.038757 -2.414978,0.421234c-1.403748,-0.898743 -1.29126,-3.059998 -1.235016,-4.492493c0.139999,-2.807465 1.262497,-6.513733 3.452499,-8.366241"/>
  <path fill="#ddbc97" fill-rule="nonzero" id="path744" d="m173.838745,148.97998c0.19751,-1.375046 2.274994,-0.784988 2.078766,0.589981c-0.421265,2.751236 -0.281265,9.349976 -3.902512,10.191269c-1.993759,0.477448 -4.183762,-1.010056 -4.492493,-3.059998c-0.393753,-2.526245 0.279999,-4.912491 0.36499,-7.440033c0.027496,-1.37619 2.190018,-1.37619 2.161255,0c-0.056259,2.050018 -0.644989,4.042511 -0.532501,6.092529c0.054993,0.982513 0.196243,1.768723 1.178741,2.218781c0.477509,0.223694 0.926254,0.167465 1.263748,-0.310059c1.571259,-2.357483 1.460007,-5.558701 1.880005,-8.282471"/>
  <path fill="#ddbc97" fill-rule="nonzero" id="path746" d="m152.613754,169.139969c0.365005,1.572571 0.533752,3.453751 -0.72998,4.660034c-0.955017,0.898743 -2.415009,0.842514 -3.537521,0.281219c-1.151245,-0.561218 -2.050003,-1.572418 -2.611237,-2.723694c-0.757507,1.292496 -1.881256,2.302475 -3.59375,2.752457c-1.347504,0.336304 -2.94751,0.167542 -3.790009,-1.094971c-1.011246,-1.516266 -0.337494,-3.36998 0.477493,-4.830017c0.701248,-1.207504 2.555008,-0.112534 1.881256,1.095047c-0.337509,0.589905 -1.319992,2.302475 -0.281235,2.75116c0.757477,0.36499 1.852493,-0.196228 2.414978,-0.701218c1.768753,-1.59996 2.217514,-3.846207 2.470001,-6.121292c0.028748,-0.533752 0.056274,-1.094971 -0.027496,-1.656189c-0.421234,-0.112534 -0.842499,-0.224991 -1.263733,-0.393753c-0.112518,-0.027466 -0.196274,-0.083771 -0.281265,-0.139999c-0.22374,-0.083771 -0.476257,-0.196228 -0.701248,-0.308762c-0.224991,-0.112457 -0.393753,-0.281219 -0.449982,-0.449982c-0.027527,0 -0.027527,0 -0.027527,0c-0.36499,-0.419998 -0.50499,-0.897522 -0.477478,-1.431274c0.056244,-0.813751 0.393738,-1.319962 1.123749,-1.543732c0.111237,-0.141296 0.252487,-0.224991 0.448746,-0.281219c2.611252,-0.673752 5.16626,-0.083771 6.962509,2.021255c0.36499,0.421219 0.449997,1.094971 0,1.51619c-0.953766,0.842514 -1.965012,1.207504 -3.003754,1.291275c-0.056274,0.308685 -0.083771,0.618744 -0.139999,0.955048c-0.085007,2.471237 -0.955017,5.222473 1.262497,7.019958c0.393738,0.308762 1.179993,0.786209 1.684982,0.421219c0.646271,-0.477448 0.252518,-1.937485 0.112518,-2.498703c-0.308762,-1.376266 1.768738,-1.938782 2.077484,-0.590057"/>
  <path fill="#6ecb89" fill-rule="nonzero" id="path748" d="m139.982513,125.097458c0,0.056305 0.027481,0.056305 0.027481,0.083771c-1.712494,0.533752 -3.368744,1.151199 -4.912491,1.881256c-0.646255,0.308685 -1.29126,0.64621 -1.937485,1.0112c-1.572525,-2.442474 -2.471268,-5.335007 -2.752518,-8.1987c-0.195007,-2.246246 1.347504,-8.001251 4.74501,-6.232529c3.28624,1.712494 3.903732,8.253784 4.830002,11.455002"/>
  <path fill="#ddbc97" fill-rule="nonzero" id="path750" d="m136.66626,141.961243c0,3.00499 0.056229,8.788757 -3.312515,10.136185c-2.077499,0.841293 -4.773727,-0.898743 -5.251251,-2.976227c-0.644989,-2.779999 0.139999,-5.868683 1.348755,-8.394928c0.588745,-1.263809 2.44249,-0.168762 1.852493,1.094971c-0.871231,1.852493 -1.768753,4.688721 -1.122498,6.738739c0.421249,1.23497 2.217514,2.330017 3.058746,0.86998c1.236252,-2.162476 1.265015,-5.026245 1.265015,-7.468719c0,-1.375046 2.161255,-1.375046 2.161255,0"/>
  <path fill="#f4717b" fill-rule="nonzero" id="path752" d="m122.375,156.196243c5.335022,0.252457 10.978745,8.507462 4.548752,11.538696c-6.569992,3.089981 -7.103729,-6.259995 -6.653748,-10.472488c0.083755,-0.86998 0.982513,-1.178741 1.599991,-0.953751c0.139999,-0.084991 0.308762,-0.14122 0.505005,-0.112457"/>
  <path fill="#ddbc97" fill-rule="nonzero" id="path754" d="m46.512756,233.013702c0.112244,-1.403717 0.280746,-2.807465 0.505386,-4.267487c-11.989395,-3.931198 -10.164146,-16.256256 -8.90052,-26.588745c1.010757,-8.113785 0.89801,-19.036255 -7.637115,-23.359985c-4.969254,-2.526245 -10.753006,-2.245026 -15.525887,0.814972c-1.881371,1.178818 -3.98687,2.498703 -5.61525,4.015045c-2.583,2.413712 -1.095242,9.124985 2.807632,5.19371c2.779243,-2.779999 6.401367,-9.433746 10.86525,-9.517517c4.885246,-0.112457 9.43351,3.733749 10.78125,8.395004c2.414505,8.282547 -1.684631,15.301285 -1.909256,23.554993c-0.224617,7.918777 4.77301,21.985016 14.62851,21.76001zm40.570984,22.039948c6.12001,-2.75116 7.243759,-11.089905 5.418762,-16.873688c-0.141251,-0.421234 0,-0.786194 0.252502,-1.0112c-0.28125,-1.375031 -0.533752,-2.751312 -0.758759,-4.127502c-1.403748,3.173676 -3.621246,6.09375 -6.597504,7.889954c-0.224991,0.112518 -0.421249,0.139984 -0.589996,0.139984c0.083755,2.190033 -0.196243,4.380035 -1.011246,6.513733c-1.516251,3.958832 -5.16626,6.934967 -9.096252,7.693817c1.543747,1.038727 2.723755,2.273682 2.751251,3.622498c2.892502,1.233734 8.142502,3.929993 10.838745,1.233734c2.105011,-2.105011 -4.043747,-3.59375 -5.474991,-3.817505c-1.376251,-0.19754 -0.787506,-2.274994 0.588745,-2.077484c0.898743,0.140015 2.190002,0.448669 3.481247,0.953735c0.056259,-0.056213 0.112503,-0.112518 0.19751,-0.140076l-0.000015,0zm16.283752,-95.712418c3.481262,-13.112488 1.768753,-28.217545 -5.558746,-39.757538c-0.168747,-0.308762 -0.196243,-0.588684 -0.112503,-0.841217c-0.421249,-0.281219 -0.617493,-0.786285 -0.224991,-1.292496c1.684998,-2.246246 2.919998,-4.912491 3.453751,-7.663727c0.533752,-2.696304 0.813751,-8.395004 -3.032501,-9.04129c-4.520004,-0.757523 -8.001251,7.271271 -9.236252,10.584946c-0.365005,0.955048 -1.630005,0.898819 -2.022507,0.225067c-7.018753,-4.688797 -20.63623,-5.026245 -27.655235,-0.281219c-0.561508,0.36499 -1.123009,0.112457 -1.375999,-0.308838c-0.25238,-0.112457 -0.477005,-0.337448 -0.561508,-0.673676c-0.6455,-2.498779 -1.403252,-5.138779 -2.919373,-7.272491c-1.544495,-2.161255 -5.222755,-4.295044 -7.440506,-1.515045c-2.610748,3.312531 0.140137,9.348755 1.909248,12.465057c0,0 0,0.028687 0,0.056152c0.477501,0.252533 0.757751,0.813828 0.336884,1.376343c-13.168503,18.137512 -9.377495,52.306213 12.465874,62.357483c0.252876,0 0.477493,0.084991 0.617622,0.281219c1.712372,0.72998 3.481514,1.347504 5.390617,1.768723c15.32988,3.453751 31.811127,-4.885025 35.966125,-20.467453zm8.928757,89.647446c4.070007,6.598724 4.126251,-4.32373 3.199997,-7.27121c-6.766235,-21.562485 -19.625,-40.711273 -26.559998,-62.16124c-6.008743,2.86377 -12.858749,4.014969 -19.345001,2.891235c-2.554611,-0.448761 -4.941376,-1.178741 -7.159615,-2.105026c0.393616,7.721252 -3.537636,15.076218 -6.064384,22.236252c-3.396996,9.657516 -6.878502,19.570007 -7.636238,29.844955c-0.786133,10.697571 2.161606,18.08139 11.229988,23.9776c3.172752,2.049927 7.300255,4.801178 11.286499,4.492493c9.237503,-0.786285 -2.779251,-6.26123 -4.407631,-6.653748c-0.898483,-0.19751 -0.95462,-1.151276 -0.505363,-1.713806c0.027748,-0.757446 1.095245,-1.431244 1.881371,-0.786194c8.170372,6.767517 15.946632,-5.41748 14.12162,-12.886292c-1.516251,-6.204956 -5.306244,-11.342453 -11.258736,-13.926224c-1.262886,-0.532532 -0.168137,-2.413788 1.094994,-1.85257c6.233749,2.695007 11.231247,8.98378 12.382492,15.806259c3.032501,-1.908722 5.138748,-5.221252 6.205002,-8.562439c0.112503,-0.393768 0.393753,-0.589996 0.702499,-0.702515c-0.477493,-3.256241 -0.871246,-6.40123 -1.403748,-9.152466c-0.253754,-1.34758 1.824997,-1.937485 2.077499,-0.561295c1.516251,7.973785 2.330002,16.227554 5.110001,23.892502c0.757507,2.106262 7.074997,14.402557 5.923752,5.727478c-0.533752,-4.211182 -1.797501,-8.253723 -3.059998,-12.297455c-1.376251,-4.407471 -4.240005,-11.229996 -2.471252,-15.778793c1.403748,-3.564987 4.970001,0.252533 5.783752,1.881256c2.358749,4.688797 2.920013,10.303787 4.576263,15.273819c1.178726,3.508698 2.358734,7.214966 4.296234,10.387421zm3.339996,-13.336243c1.993759,5.138824 4.830002,12.073792 1.067505,17.127502c-1.516251,2.048798 -3.677505,0.673767 -4.969986,-0.786285c-3.172516,-3.593719 -4.743759,-9.377411 -6.148773,-13.869904c-1.459991,-4.661285 -1.824997,-10.753799 -4.576248,-14.768768c-1.73999,-2.553787 -1.038742,4.886261 -0.897491,5.503693c0.252502,1.066284 0.448746,2.161255 0.729996,3.200012c0.785004,3.117523 1.908752,6.121277 2.751251,9.237518c1.122498,4.071259 3.368744,10.303772 0.617493,14.178772c-0.337494,0.448761 -0.982498,0.757507 -1.488739,0.392517c-3.452499,-2.357483 -5.783752,-5.89624 -7.411255,-9.938812c-0.533752,4.267487 -2.471252,8.31131 -6.148743,10.445038c1.572495,1.095032 2.470001,2.553772 1.403748,4.434937c-2.808746,4.886353 -9.996246,1.77002 -13.898758,0.085083c-0.196243,0.252441 -0.421249,0.477448 -0.729996,0.72998c-6.120377,5.109924 -17.07,-2.779999 -21.449883,-6.766266c-6.260735,-5.700012 -8.282249,-12.157532 -8.085983,-19.710022c-6.542,0.112518 -11.147003,-5.502472 -13.786125,-11.006241c-3.986771,-8.311234 -2.554626,-15.273743 -0.842255,-24.033737c0.842255,-4.267502 1.768997,-9.377518 -0.730003,-13.363724c-3.509247,-5.643768 -10.079117,-4.745026 -13.897499,-0.224991c-1.684502,1.993713 -3.537628,4.60495 -5.924248,5.756226c-3.032253,1.487503 -7.776882,0.308762 -7.075253,-4.154968c0.92675,-6.09375 9.79887,-11.652527 15.441883,-12.747498c6.766617,-1.291275 12.550369,0.64621 16.958,6.008682c4.801743,5.783768 4.661118,13.757553 3.734863,20.776291c-1.179626,8.899994 -3.453613,20.721207 7.103127,24.42627c1.348129,-7.580032 3.48188,-14.796295 6.036499,-22.06749c2.667,-7.637558 7.861374,-16.930008 6.766129,-25.185013c-21.899879,-11.061325 -27.318253,-44.6138 -13.532127,-64.407578c-2.190491,-3.902435 -5.952751,-13.561172 0.027748,-16.087418c6.991257,-2.976303 10.585007,4.32373 12.185127,9.966202c7.692871,-4.407501 20.805,-4.042435 28.27375,0.533752c1.992493,-4.660034 6.681244,-13.196259 12.100006,-10.359955c7.10376,3.677521 3.95874,14.206238 0.252487,19.316254c0.056259,0.056229 0.141251,0.112457 0.19751,0.196228c8.366257,13.197479 10.05127,31.531219 4.09874,45.98999c-2.471237,6.037521 -7.216248,10.866241 -12.914993,14.066238c6.261246,19.68132 17.266266,37.847519 24.762497,57.107483"/>
  <path fill="#f9a741" fill-rule="nonzero" id="path756" d="m115.496246,241.717468c0.926254,2.947571 0.87001,13.870026 -3.199997,7.271301c-1.9375,-3.172485 -3.117508,-6.878754 -4.296234,-10.387512c-1.65625,-4.970032 -2.217514,-10.584961 -4.576263,-15.273743c-0.813751,-1.628723 -4.380005,-5.446243 -5.783752,-1.881256c-1.768753,4.548798 1.095001,11.371246 2.471252,15.778717c1.262497,4.043823 2.526245,8.086273 3.059998,12.297546c1.151245,8.674988 -5.16626,-3.621216 -5.923752,-5.727478c-2.779999,-7.665039 -3.59375,-15.918808 -5.110001,-23.892517c-0.252502,-1.376266 -2.331253,-0.786285 -2.077499,0.561295c0.532501,2.75116 0.926254,5.896225 1.403748,9.152451c-0.308746,0.112457 -0.589996,0.308746 -0.702499,0.702515c-1.066254,3.341217 -3.172501,6.653748 -6.205002,8.562469c-1.151245,-6.82251 -6.148743,-13.111267 -12.382507,-15.806274c-1.263115,-0.561218 -2.357864,1.320038 -1.094994,1.85257c5.952507,2.583694 9.7425,7.721252 11.258751,13.926147c1.824997,7.468811 -5.951248,19.653809 -14.12162,12.886353c-0.786125,-0.64505 -1.85363,0.028687 -1.881371,0.786224c-0.449257,0.562531 -0.393135,1.516266 0.505363,1.713806c1.62838,0.392426 13.645134,5.867462 4.407631,6.653717c-3.986244,0.308716 -8.113754,-2.442535 -11.286499,-4.492493c-9.068382,-5.896271 -12.016121,-13.279999 -11.229996,-23.97757c0.757744,-10.274963 4.23925,-20.187454 7.636246,-29.844971c2.526749,-7.160034 6.458,-14.514999 6.064384,-22.236252c2.218239,0.926285 4.604996,1.656265 7.159615,2.10495c6.486252,1.12381 13.336243,-0.027466 19.345001,-2.891235c6.934998,21.450043 19.793762,40.598755 26.559998,62.16124"/>
  <path fill="#f9a741" fill-rule="nonzero" id="path758" d="m60.298393,136.430008c0.196236,-1.71257 0.280724,-4.211273 -0.58989,-5.783768c-0.673874,-1.206284 -2.554741,-0.111313 -1.853004,1.095047c1.038513,1.853638 0.561501,6.402435 -0.870132,8.029938c-1.460487,1.685028 -3.930603,-0.027542 -4.548866,-1.59996c-0.813988,-2.021332 -0.757744,-4.57634 -0.280754,-6.68251c0.336891,-1.347504 -1.768494,-1.936264 -2.077118,-0.588837c-0.617615,2.695007 -0.674377,5.951309 0.533264,8.478775c1.123001,2.413788 3.930618,3.902512 6.54187,2.835007c2.273987,-0.926208 2.919991,-3.564987 3.14463,-5.783691zm-0.449257,20.271225c1.516113,-0.813751 2.779243,-2.470016 2.021492,-4.211273c-1.572235,-3.564987 -7.384262,-3.706207 -10.248116,-2.077484c-0.056129,0.027542 -0.056129,0.083694 -0.112267,0.112457c-1.179237,0.673752 -1.852989,1.825027 -1.796867,3.256302c0.056122,2.077484 2.470749,3.061218 4.155251,3.481293c2.0215,0.477448 4.12751,0.449905 5.980507,-0.561295zm22.23587,6.121292c1.207489,-1.151276 1.236252,-2.976303 1.06749,-4.520035c-0.168747,-1.348801 -2.331238,-1.376266 -2.162491,0c0.084991,0.701218 0.36499,2.386246 -0.336258,2.918777c-0.533752,0.421219 -1.319992,-0.083771 -1.768738,-0.36499c-1.57251,-1.038818 -2.415009,-2.918777 -2.640015,-4.80011c0.506256,-0.056152 1.038757,-0.197449 1.516251,-0.477448c1.15126,-0.64621 1.65625,-1.993713 1.85376,-3.22876c0.111252,-0.64621 -0.141251,-1.094971 -0.729996,-1.347504c-0.141251,-0.028687 -0.253754,-0.084991 -0.393753,-0.084991c-0.139999,-0.36499 -0.448761,-0.644989 -0.955002,-0.644989c-1.768753,-0.028763 -3.593758,-0.252457 -5.277504,0.477524c-1.37587,0.561218 -2.134239,2.553787 -1.263634,3.81752c0.561134,0.814972 1.543633,1.23497 2.554886,1.37619c0.139999,0.730057 0.281258,1.460037 0.421257,2.190018c0.168739,1.095047 0.504997,2.976227 -0.225014,3.929977c-0.7575,0.926285 -1.9375,1.376266 -3.003983,0.730057c-1.178764,-0.673752 -0.757881,-2.302475 -0.25251,-3.256302c0.645248,-1.207428 -1.206993,-2.302475 -1.881371,-1.067505c-0.870132,1.656265 -1.178619,3.650055 0.028366,5.250015c1.038513,1.377487 2.779503,1.825027 4.379501,1.377487c2.106247,-0.591278 2.948746,-2.051239 3.172501,-3.820038c0.673752,0.75882 1.432495,1.403809 2.358749,1.825027c1.123749,0.533752 2.555008,0.646286 3.537506,-0.279922zm10.697495,-21.19751c5.756256,-1.151276 5.138748,-9.208755 2.723755,-13.056335c-0.730011,-1.178665 -2.611252,-0.11116 -1.852509,1.095047c1.514999,2.471237 2.638748,7.777481 -0.421249,9.575043c-4.211243,2.526245 -5.587494,-4.970016 -4.323746,-7.497482c0.617493,-1.235046 -1.236252,-2.330017 -1.853745,-1.095047c-2.050003,4.09996 -0.168762,12.129974 5.727493,10.978775zm7.440002,10.387497c0.337494,-1.908798 -1.514999,-3.08754 -3.059998,-3.733749c-2.077499,-0.84259 -4.576248,-0.702515 -6.68251,-0.056305c-0.36499,0.112534 -0.588745,0.36499 -0.673737,0.617523c-0.421249,0.196228 -0.841263,0.449982 -1.150009,0.72998c-1.404999,1.207504 -1.067505,3.003769 0.223755,4.154968c1.599991,1.403809 4.014999,1.825027 6.092499,1.545105c1.824997,-0.252533 4.884995,-1.038818 5.25,-3.257523zm-2.413757,-32.428818c7.327499,11.539993 9.040009,26.64505 5.558762,39.757538c-4.154999,15.582504 -20.636261,23.92128 -35.966141,20.467453c-1.909103,-0.421219 -3.678238,-1.038666 -5.390617,-1.768723c-0.140121,-0.196228 -0.364738,-0.281219 -0.617607,-0.281219c-21.843384,-10.05127 -25.634392,-44.219971 -12.465889,-62.357483c0.420876,-0.562515 0.140633,-1.12381 -0.336876,-1.376266c0,-0.027542 0,-0.056229 0,-0.056229c-1.769119,-3.116302 -4.519997,-9.152527 -1.909248,-12.465057c2.217751,-2.779999 5.896004,-0.64621 7.440514,1.515045c1.516106,2.133713 2.273857,4.773712 2.919357,7.272491c0.084503,0.336227 0.309128,0.561218 0.561508,0.673676c0.252991,0.421295 0.814491,0.673828 1.375999,0.308838c7.019005,-4.745026 20.636497,-4.407501 27.655251,0.281219c0.392487,0.673752 1.657501,0.72998 2.022491,-0.224991c1.235001,-3.313751 4.716248,-11.342545 9.236252,-10.585022c3.846252,0.646286 3.566254,6.344986 3.032501,9.04129c-0.533752,2.751236 -1.768753,5.41748 -3.453751,7.663727c-0.392502,0.50621 -0.196243,1.011276 0.225006,1.292496c-0.083755,0.252533 -0.056259,0.532532 0.112488,0.841217"/>
  <path fill="#f4717b" fill-rule="nonzero" id="path760" d="m97.162506,148.278763c1.544998,0.64621 3.397507,1.824951 3.059998,3.733749c-0.36499,2.218704 -3.425003,3.00499 -5.25,3.257523c-2.077499,0.279922 -4.492493,-0.141296 -6.092499,-1.545105c-1.291245,-1.151199 -1.628754,-2.947388 -0.223755,-4.154968c0.308762,-0.279999 0.72876,-0.533752 1.150009,-0.72998c0.084991,-0.252457 0.308746,-0.50499 0.673752,-0.617523c2.106247,-0.64621 4.604996,-0.786285 6.682495,0.056305"/>
  <path fill="#ddbc97" fill-rule="nonzero" id="path762" d="m95.506256,128.56868c2.414993,3.847504 3.032501,11.90506 -2.723755,13.056335c-5.89624,1.151199 -7.777496,-6.878815 -5.727493,-10.978775c0.617493,-1.23497 2.471252,-0.139999 1.853745,1.094971c-1.263748,2.527542 0.112503,10.023727 4.323761,7.497482c3.059998,-1.797485 1.936249,-7.103729 0.421249,-9.575043c-0.758759,-1.206207 1.122498,-2.273712 1.852493,-1.094971"/>
  <path fill="#f9a741" fill-rule="nonzero" id="path764" d="m92.502502,238.179962c1.824997,5.783783 0.701248,14.122528 -5.418747,16.873779c-0.085007,0.027466 -0.141251,0.083771 -0.19751,0.139984c-1.291245,-0.505066 -2.582489,-0.813721 -3.481247,-0.953735c-1.376251,-0.19751 -1.964996,1.879944 -0.588745,2.077484c1.431244,0.223755 7.580002,1.712494 5.475006,3.817505c-2.696259,2.696259 -7.946259,0 -10.83876,-1.233734c-0.027496,-1.348816 -1.207504,-2.583771 -2.751251,-3.622498c3.930008,-0.758759 7.580002,-3.734985 9.096252,-7.693726c0.815002,-2.133789 1.095001,-4.323792 1.011246,-6.513824c0.168762,0 0.365005,-0.027466 0.590012,-0.139984c2.976242,-1.796204 5.193741,-4.716278 6.597488,-7.889954c0.225006,1.37619 0.477509,2.752472 0.758759,4.127502c-0.252502,0.225006 -0.393753,0.589966 -0.252502,1.0112"/>
  <path fill="#ddbc97" fill-rule="nonzero" id="path766" d="m83.152496,158.30249c0.168747,1.543732 0.139999,3.368759 -1.067505,4.520035c-0.982498,0.926208 -2.413742,0.813675 -3.537491,0.279922c-0.926254,-0.421219 -1.684998,-1.066208 -2.358749,-1.825027c-0.223755,1.768799 -1.066254,3.22876 -3.172501,3.820038c-1.599998,0.44754 -3.341003,0 -4.379501,-1.377487c-1.207001,-1.59996 -0.898506,-3.59375 -0.028381,-5.250015c0.674385,-1.23497 2.526619,-0.139923 1.881386,1.067505c-0.505371,0.953751 -0.926254,2.58255 0.252495,3.256302c1.066498,0.64621 2.246498,0.196228 3.003998,-0.730057c0.729996,-0.953751 0.393753,-2.83493 0.224991,-3.929977c-0.139984,-0.72998 -0.281235,-1.459961 -0.421234,-2.190018c-1.011253,-0.14122 -1.993752,-0.561218 -2.554886,-1.37619c-0.870621,-1.263809 -0.112236,-3.256302 1.263626,-3.81752c1.683754,-0.72998 3.508759,-0.506287 5.277496,-0.477524c0.506256,0 0.815002,0.279999 0.955002,0.644989c0.139999,0 0.252502,0.056305 0.393753,0.084991c0.588745,0.252533 0.841248,0.701294 0.729996,1.347504c-0.197495,1.23497 -0.702499,2.58255 -1.853745,3.22876c-0.477493,0.279999 -1.009995,0.421295 -1.516251,0.477448c0.225006,1.881332 1.067505,3.761292 2.639999,4.80011c0.448746,0.281219 1.235001,0.786209 1.768753,0.36499c0.701248,-0.532532 0.421249,-2.21756 0.336243,-2.918777c-0.168747,-1.376266 1.993759,-1.348801 2.162506,0"/>
  <path fill="#f4717b" fill-rule="nonzero" id="path768" d="m61.870628,152.48996c0.757751,1.741257 -0.505371,3.397522 -2.021492,4.211273c-1.852997,1.0112 -3.959007,1.038742 -5.980507,0.561295c-1.684502,-0.420074 -4.099129,-1.403809 -4.155251,-3.481293c-0.056122,-1.431274 0.61763,-2.58255 1.796867,-3.256302c0.056137,-0.028763 0.056137,-0.084915 0.112267,-0.112457c2.863853,-1.628723 8.67588,-1.487503 10.248116,2.077484"/>
  <path fill="#ddbc97" fill-rule="nonzero" id="path770" d="m59.708504,130.64624c0.870628,1.572495 0.786125,4.071198 0.58989,5.783768c-0.22464,2.218704 -0.870636,4.857483 -3.144646,5.783691c-2.611237,1.067505 -5.418854,-0.421219 -6.541855,-2.835007c-1.207649,-2.527466 -1.150879,-5.783768 -0.533264,-8.478775c0.308624,-1.347427 2.414009,-0.758667 2.077118,0.588837c-0.47699,2.106171 -0.533234,4.661179 0.280754,6.68251c0.618263,1.572418 3.088379,3.284988 4.548882,1.59996c1.431641,-1.627502 1.90863,-6.1763 0.870125,-8.030014c-0.701759,-1.206284 1.179115,-2.301254 1.852997,-1.094971"/>
  <path fill="#f9a741" fill-rule="nonzero" id="path772" d="m47.018143,228.746277c-0.22464,1.459961 -0.393143,2.8638 -0.505386,4.267517c-9.855499,0.224976 -14.853127,-13.841248 -14.62851,-21.760025c0.22464,-8.253784 4.323761,-15.272522 1.909256,-23.554993c-1.34774,-4.661255 -5.896004,-8.507538 -10.78125,-8.395004c-4.463875,0.083694 -8.086006,6.737442 -10.86525,9.517517c-3.902874,3.931198 -5.390625,-2.780075 -2.807625,-5.193787c1.628372,-1.516266 3.733871,-2.836227 5.61525,-4.014969c4.772873,-3.059998 10.556625,-3.341217 15.525879,-0.814972c8.535126,4.32373 8.647881,15.246201 7.637123,23.359985c-1.263634,10.332489 -3.088867,22.657471 8.900513,26.58873"/>
  <path fill="#f4717b" fill-rule="nonzero" id="path774" d="m142.088745,69.688667c1.96376,-14.563667 30.420013,-28.121254 26.923767,-5.748734c-2.205017,14.083778 -21.126266,24.335014 -31.522507,33.485023c-8.47876,-4.694977 -14.755005,-13.222504 -19.113754,-21.604996c-3.785004,-7.281265 -3.066254,-22.563782 9.006256,-16.575012c4.551239,2.300034 8.383743,6.851204 11.352493,10.875008c0.767502,1.101234 3.11499,1.339966 3.353745,-0.43129"/>
  <path fill="#f4717b" fill-rule="nonzero" id="path776" d="m76.383743,46.772491c1.173752,-8.708725 18.190002,-16.816181 16.100006,-3.4375c-1.318756,8.42247 -12.633759,14.553757 -18.851257,20.023727c-5.069489,-2.806168 -8.822495,-7.906189 -11.429375,-12.918701c-2.263115,-4.355011 -1.833496,-13.493729 5.38575,-9.912491c2.72113,1.374969 5.012383,4.097443 6.789871,6.502457c0.457504,0.660019 1.861252,0.802536 2.005005,-0.257492"/>
  <path fill="#f4717b" fill-rule="nonzero" id="path778" d="m119.59375,14.951199c1.175003,-8.710018 18.191254,-16.816168 16.100006,-3.438717c-1.317505,8.42247 -12.633759,14.55254 -18.850006,20.023727c-5.069992,-2.80624 -8.822495,-7.906189 -11.429993,-12.919998c-2.262512,-4.35371 -1.833755,-13.491211 5.386261,-9.91127c2.721252,1.374969 5.012482,4.096218 6.788727,6.502529c0.458755,0.660019 1.862503,0.80254 2.005005,-0.256271"/>
 </g>
</svg>