<?xml version="1.0" standalone="no"?>
<!DOCTYPE svg PUBLIC "-//W3C//DTD SVG 1.1//EN" "http://www.w3.org/Graphics/SVG/1.1/DTD/svg11.dtd">
<svg width="590px" height="295px" version="1.1" xmlns="http://www.w3.org/2000/svg" xmlns:xlink="http://www.w3.org/1999/xlink" xml:space="preserve" style="fill-rule:evenodd;clip-rule:evenodd;stroke-linejoin:round;stroke-miterlimit:1.41421;">
    <g>
        <g id="Layer1">
            <g>
                <path d="M373.774,224.08C380.71,224.88 384.457,228.277 386.45,231.227C391.294,208.7 398.497,194.244 399.017,193.22C399.684,191.904 401.294,191.38 402.607,192.05C403.924,192.72 404.447,194.327 403.78,195.644C403.567,196.064 382.407,238.46 388.574,291.92C388.744,293.387 387.694,294.714 386.227,294.88C386.124,294.894 386.017,294.897 385.917,294.897C384.577,294.897 383.424,293.894 383.267,292.534C380.964,272.59 382.287,254.31 384.944,239.004C381.634,241.314 376.257,243.94 369.58,243.07C358.237,241.59 350.097,228.767 350.097,228.767C350.097,228.767 360.947,222.6 373.774,224.08Z" style="fill:rgb(11,159,77);fill-rule:nonzero;"/>
            </g>
            <g>
                <path d="M263.774,192.239C275.407,193.757 281.124,199.569 283.744,203.586C283.534,192.768 283.14,181.302 282.557,169.204C280.387,124.265 276.364,86.2774 276.324,85.8986C276.157,84.3296 277.21,82.9071 278.674,82.7284C280.15,82.5462 281.467,83.6755 281.634,85.2481C281.91,87.8321 284.734,114.694 286.88,149.565C288.924,143.997 294.257,134.43 307.18,132.214C325.68,129.04 336.777,139.086 336.777,139.086C336.777,139.086 332.337,153.368 312.114,157.067C297.284,159.787 290.017,156.67 287.194,154.815C290.004,203.121 291.274,264.683 282.974,299.018C282.66,300.308 281.577,301.166 280.387,301.166C280.167,301.166 279.94,301.138 279.717,301.073C278.287,300.676 277.427,299.111 277.8,297.581C282.317,278.904 284.357,248.961 283.847,209.84C281.07,212.364 274.66,216.038 261.06,215.512C240.59,214.719 236.89,202.024 236.89,202.024C236.89,202.024 245.524,189.858 263.774,192.239Z" style="fill:rgb(11,159,77);fill-rule:nonzero;"/>
            </g>
            <g>
                <path d="M153.138,212.568C160.925,215.688 166.35,220.225 169.523,223.445C169.826,217.432 170.423,211.271 171.354,204.966C175.355,177.819 183.611,157.963 183.961,157.133C184.642,155.501 186.517,154.739 188.137,155.425C189.765,156.112 190.525,157.987 189.841,159.615C189.61,160.174 173.213,200.086 176.059,242.643C178.364,237.783 183.714,231.446 196.138,229.69C217.053,226.737 225.297,236.482 225.297,236.482C225.297,236.482 219.704,249.179 203.503,251.538C191.397,253.305 181.103,250.783 176.672,249.395C178.424,264.414 182.783,279.518 191.286,293.117C192.221,294.614 191.771,296.589 190.279,297.527C189.749,297.858 189.164,298.013 188.587,298.013C187.524,298.013 186.485,297.483 185.88,296.517C174.587,278.457 168.994,255.795 169.312,230.057C164.766,233.002 155.997,237.06 143.712,235.301C125.158,232.643 123.685,213.745 123.685,213.745C123.685,213.745 139.883,207.252 153.138,212.568Z" style="fill:rgb(11,159,77);fill-rule:nonzero;"/>
            </g>
            <g>
                <path d="M281.777,98.5438C281.777,98.5438 288.437,113.587 297.07,113.34C305.704,113.094 296.824,93.6105 296.824,93.6105C296.824,93.6105 307.427,109.64 314.827,105.694C322.227,101.75 309.157,86.2105 309.157,86.2105C309.157,86.2105 324.2,97.0605 329.13,90.4038C334.067,83.7438 317.047,71.6605 317.047,71.6605C317.047,71.6605 335.05,76.1005 336.53,66.9738C338.01,57.8471 317.54,56.1205 317.54,56.1205C317.54,56.1205 336.53,48.9705 335.544,40.3371C334.557,31.7038 312.114,40.3371 312.114,40.3371C312.114,40.3371 327.407,29.7305 321.734,21.8405C316.06,13.9471 301.757,29.4838 301.757,29.4838C301.757,29.4838 308.907,7.28714 302.497,4.08047C296.084,0.873809 285.23,21.1005 285.23,21.1005C285.23,21.1005 285.23,0.627135 278.817,0.380461C272.407,0.133818 270.187,22.5805 270.187,22.5805C270.187,22.5805 261.307,0.627135 253.417,4.57382C245.524,8.52048 255.88,29.7305 255.88,29.7305C255.88,29.7305 237.137,15.4272 233.19,20.3605C229.247,25.2938 244.044,43.2971 244.044,43.2971C244.044,43.2971 223.817,35.4038 222.834,42.0638C221.847,48.7238 242.564,58.0938 242.564,58.0938C242.564,58.0938 220.86,58.3405 221.354,65.7405C221.847,73.1405 245.277,74.8672 245.277,74.8672C245.277,74.8672 224.557,82.5105 228.754,90.6505C232.944,98.7905 253.17,86.2105 253.17,86.2105C253.17,86.2105 241.577,105.2 247.99,108.9C254.4,112.6 264.514,96.5705 264.514,96.5705C264.514,96.5705 260.567,118.274 270.68,118.52C280.794,118.767 281.777,98.5438 281.777,98.5438Z" style="fill:rgb(245,139,31);fill-rule:nonzero;"/>
            </g>
            <g>
                <path d="M202.2,166.957C202.2,166.957 212.627,178.6 220.354,175.847C228.08,173.097 214.347,158.09 214.347,158.09C214.347,158.09 228.627,169.47 234.157,163.737C239.687,158.004 223.324,147.794 223.324,147.794C223.324,147.794 240.097,153.19 242.604,145.727C245.11,138.267 226.19,132.33 226.19,132.33C226.19,132.33 243.76,131.067 242.424,122.39C241.087,113.71 222.087,118.147 222.087,118.147C222.087,118.147 237.147,106.12 233.727,98.6105C230.307,91.1005 212.557,105.474 212.557,105.474C212.557,105.474 223.267,91.4105 215.827,85.9405C208.39,80.4738 200.017,98.7038 200.017,98.7038C200.017,98.7038 199.977,76.5505 193.244,75.5338C186.507,74.5138 182.627,95.9705 182.627,95.9705C182.627,95.9705 176.63,77.4705 170.764,79.1271C164.897,80.7838 169.467,101.714 169.467,101.714C169.467,101.714 155.014,84.4805 149.04,90.3605C143.064,96.2372 158.637,112.367 158.637,112.367C158.637,112.367 137.51,104.934 135.39,110.547C133.27,116.16 151.917,128.094 151.917,128.094C151.917,128.094 131.33,126.887 132.39,133.194C133.447,139.5 154.917,141.897 154.917,141.897C154.917,141.897 135.377,148.48 137.99,155.02C140.604,161.56 162.28,156.257 162.28,156.257C162.28,156.257 145.8,169.237 151.974,175.36C158.147,181.487 172.737,164.197 172.737,164.197C172.737,164.197 167.827,184.754 174.704,186.217C181.584,187.68 186.024,170.23 186.024,170.23C186.024,170.23 188.817,191 198.027,188.26C207.234,185.52 202.2,166.957 202.2,166.957Z" style="fill:rgb(245,139,31);fill-rule:nonzero;"/>
            </g>
            <g>
                <path d="M403.37,203.364C403.37,203.364 410.027,218.407 418.66,218.16C427.294,217.914 418.414,198.43 418.414,198.43C418.414,198.43 429.02,214.464 436.42,210.517C443.817,206.57 430.747,191.03 430.747,191.03C430.747,191.03 445.79,201.884 450.724,195.224C455.657,188.564 438.637,176.48 438.637,176.48C438.637,176.48 456.644,180.92 458.124,171.794C459.604,162.667 439.13,160.94 439.13,160.94C439.13,160.94 458.124,153.79 457.137,145.157C456.15,136.524 433.707,145.157 433.707,145.157C433.707,145.157 448.997,134.55 443.324,126.66C437.654,118.767 423.347,134.304 423.347,134.304C423.347,134.304 430.5,112.107 424.087,108.9C417.674,105.694 406.824,125.92 406.824,125.92C406.824,125.92 406.824,105.447 400.41,105.2C393.997,104.954 391.777,127.4 391.777,127.4C391.777,127.4 382.9,105.447 375.007,109.394C367.114,113.34 377.474,134.55 377.474,134.55C377.474,134.55 358.727,120.247 354.784,125.18C350.837,130.11 365.634,148.117 365.634,148.117C365.634,148.117 345.41,140.224 344.424,146.884C343.437,153.544 364.154,162.914 364.154,162.914C364.154,162.914 342.45,163.16 342.944,170.56C343.437,177.96 366.867,179.684 366.867,179.684C366.867,179.684 346.15,187.33 350.344,195.47C354.537,203.61 374.76,191.03 374.76,191.03C374.76,191.03 363.167,210.02 369.58,213.72C375.994,217.42 386.107,201.39 386.107,201.39C386.107,201.39 382.16,223.094 392.27,223.34C402.384,223.587 403.37,203.364 403.37,203.364Z" style="fill:rgb(245,139,31);fill-rule:nonzero;"/>
            </g>
            <g>
                <path d="M238.174,60.0538C238.174,37.1271 256.757,18.5438 279.684,18.5438C302.607,18.5438 321.194,37.1271 321.194,60.0538C321.194,82.9771 302.607,101.56 279.684,101.56C256.757,101.56 238.174,82.9771 238.174,60.0538Z" style="fill:rgb(157,67,56);fill-rule:nonzero;"/>
            </g>
            <g>
                <path d="M359.184,165.587C359.184,142.66 377.767,124.077 400.694,124.077C423.62,124.077 442.204,142.66 442.204,165.587C442.204,188.51 423.62,207.097 400.694,207.097C377.767,207.097 359.184,188.51 359.184,165.587Z" style="fill:rgb(157,67,56);fill-rule:nonzero;"/>
            </g>
            <g>
                <path d="M32.1451,242.758C37.3226,243.355 40.1191,245.89 41.6069,248.092C45.222,231.278 50.5985,220.488 50.9867,219.724C51.4843,218.741 52.686,218.351 53.6663,218.851C54.649,219.351 55.0396,220.55 54.5421,221.533C54.3828,221.846 38.589,253.491 43.1918,293.394C43.3187,294.488 42.535,295.479 41.4402,295.603C41.3631,295.613 41.2835,295.615 41.2089,295.615C40.2087,295.615 39.3478,294.867 39.2309,293.851C37.5117,278.966 38.4994,265.322 40.4824,253.897C38.0118,255.621 33.9986,257.581 29.0152,256.932C20.5485,255.827 14.4728,246.256 14.4728,246.256C14.4728,246.256 22.5712,241.653 32.1451,242.758Z" style="fill:rgb(11,159,77);fill-rule:nonzero;"/>
            </g>
            <g>
                <path d="M54.236,227.295C54.236,227.295 59.2045,238.523 65.6484,238.339C72.0924,238.155 65.4643,223.613 65.4643,223.613C65.4643,223.613 73.3812,235.58 78.9045,232.634C84.4254,229.688 74.6699,218.089 74.6699,218.089C74.6699,218.089 85.8983,226.19 89.5805,221.219C93.2628,216.248 80.559,207.229 80.559,207.229C80.559,207.229 93.9992,210.543 95.1039,203.731C96.2086,196.919 80.9273,195.63 80.9273,195.63C80.9273,195.63 95.1039,190.293 94.3674,183.85C93.631,177.406 76.8793,183.85 76.8793,183.85C76.8793,183.85 88.2917,175.933 84.0572,170.044C79.8251,164.152 69.1466,175.749 69.1466,175.749C69.1466,175.749 74.4858,159.181 69.6989,156.788C64.912,154.394 56.8136,169.491 56.8136,169.491C56.8136,169.491 56.8136,154.21 52.0266,154.026C47.2397,153.842 45.5828,170.596 45.5828,170.596C45.5828,170.596 38.9572,154.21 33.0656,157.156C27.1741,160.102 34.9067,175.933 34.9067,175.933C34.9067,175.933 20.9143,165.257 17.9709,168.939C15.0251,172.619 26.0694,186.059 26.0694,186.059C26.0694,186.059 10.9747,180.167 10.2382,185.138C9.50177,190.109 24.9647,197.103 24.9647,197.103C24.9647,197.103 8.76535,197.287 9.13358,202.811C9.50177,208.334 26.9899,209.62 26.9899,209.62C26.9899,209.62 11.527,215.328 14.6569,221.403C17.7868,227.479 32.8815,218.089 32.8815,218.089C32.8815,218.089 24.2283,232.264 29.0152,235.025C33.8021,237.787 41.3507,225.822 41.3507,225.822C41.3507,225.822 38.4049,242.021 45.951,242.206C53.4996,242.39 54.236,227.295 54.236,227.295Z" style="fill:rgb(245,139,31);fill-rule:nonzero;"/>
            </g>
            <g>
                <path d="M23.2551,200.565C23.2551,184.263 36.4691,171.048 52.7716,171.048C69.0741,171.048 82.2881,184.263 82.2881,200.565C82.2881,216.865 69.0741,230.082 52.7716,230.082C36.4691,230.082 23.2551,216.865 23.2551,200.565Z" style="fill:rgb(157,67,56);fill-rule:nonzero;"/>
            </g>
            <g>
                <path d="M155.154,133.224C155.154,114.57 170.274,99.4505 188.924,99.4505C207.577,99.4505 222.694,114.57 222.694,133.224C222.694,151.874 207.577,166.994 188.924,166.994C170.274,166.994 155.154,151.874 155.154,133.224Z" style="fill:rgb(157,67,56);fill-rule:nonzero;"/>
            </g>
            <g>
                <path d="M555.543,203.152C547.61,206.646 542.083,211.725 538.85,215.33C538.542,208.598 537.934,201.701 536.985,194.642C532.909,164.252 524.497,142.022 524.14,141.093C523.447,139.266 521.537,138.413 519.886,139.181C518.227,139.95 517.453,142.049 518.15,143.872C518.385,144.497 535.091,189.179 532.191,236.822C529.843,231.381 524.392,224.287 511.734,222.321C490.426,219.016 482.026,229.925 482.026,229.925C482.026,229.925 487.725,244.14 504.231,246.78C516.564,248.759 527.052,245.935 531.566,244.381C529.782,261.196 525.341,278.104 516.678,293.329C515.725,295.004 516.183,297.215 517.704,298.265C518.243,298.636 518.84,298.81 519.428,298.81C520.511,298.81 521.569,298.216 522.185,297.135C533.691,276.916 539.39,251.546 539.065,222.732C543.697,226.029 552.631,230.573 565.147,228.602C584.05,225.627 585.551,204.47 585.551,204.47C585.551,204.47 569.049,197.202 555.543,203.152Z" style="fill:rgb(11,159,77);"/>
            </g>
            <g>
                <path d="M539.449,167.971C539.449,167.971 552.135,182.137 561.536,178.787C570.937,175.441 554.228,157.183 554.228,157.183C554.228,157.183 571.603,171.029 578.331,164.053C585.059,157.077 565.15,144.655 565.15,144.655C565.15,144.655 585.558,151.221 588.608,142.14C591.658,133.064 568.638,125.841 568.638,125.841C568.638,125.841 590.015,124.304 588.389,113.747C586.763,103.186 563.645,108.584 563.645,108.584C563.645,108.584 581.969,93.9511 577.808,84.8137C573.647,75.6763 552.05,93.1643 552.05,93.1643C552.05,93.1643 565.081,76.0535 556.029,69.3982C546.981,62.7469 536.793,84.9272 536.793,84.9272C536.793,84.9272 536.744,57.9734 528.552,56.7364C520.355,55.4954 515.635,81.6016 515.635,81.6016C515.635,81.6016 508.339,59.0928 501.201,61.1084C494.063,63.1241 499.623,88.5895 499.623,88.5895C499.623,88.5895 482.038,67.6218 474.77,74.776C467.498,81.9261 486.446,101.551 486.446,101.551C486.446,101.551 460.741,92.5073 458.162,99.337C455.583,106.167 478.27,120.686 478.27,120.686C478.27,120.686 453.222,119.218 454.512,126.891C455.798,134.564 481.92,137.48 481.92,137.48C481.92,137.48 458.146,145.49 461.325,153.447C464.505,161.405 490.879,154.952 490.879,154.952C490.879,154.952 470.828,170.745 478.339,178.195C485.85,185.649 503.602,164.613 503.602,164.613C503.602,164.613 497.628,189.624 505.994,191.404C514.365,193.185 519.767,171.953 519.767,171.953C519.767,171.953 523.166,197.224 534.372,193.89C545.573,190.557 539.449,167.971 539.449,167.971Z" style="fill:rgb(245,139,31);fill-rule:nonzero;"/>
            </g>
            <g>
                <path d="M482.208,126.928C482.208,104.232 500.604,85.8357 523.296,85.8357C545.991,85.8357 564.384,104.232 564.384,126.928C564.384,149.619 545.991,168.015 523.296,168.015C500.604,168.015 482.208,149.619 482.208,126.928Z" style="fill:rgb(157,67,56);fill-rule:nonzero;"/>
            </g>
        </g>
    </g>
</svg>
