<?xml version="1.0" encoding="UTF-8" standalone="no"?>
<svg
   xmlns:dc="http://purl.org/dc/elements/1.1/"
   xmlns:cc="http://creativecommons.org/ns#"
   xmlns:rdf="http://www.w3.org/1999/02/22-rdf-syntax-ns#"
   xmlns:svg="http://www.w3.org/2000/svg"
   xmlns="http://www.w3.org/2000/svg"
   xmlns:sodipodi="http://sodipodi.sourceforge.net/DTD/sodipodi-0.dtd"
   xmlns:inkscape="http://www.inkscape.org/namespaces/inkscape"
   width="279"
   height="224"
   id="svg2"
   version="1.1"
   inkscape:version="0.48.4 r9939"
   sodipodi:docname="sign.svg"
   viewBox="0 0 279 224">
  <sodipodi:namedview
     pagecolor="#ffffff"
     bordercolor="#666666"
     borderopacity="1"
     objecttolerance="10"
     gridtolerance="10"
     guidetolerance="10"
     inkscape:pageopacity="0"
     inkscape:pageshadow="2"
     inkscape:window-width="640"
     inkscape:window-height="480"
     id="namedview48"
     showgrid="false"
     fit-margin-top="0"
     fit-margin-left="0"
     fit-margin-right="0"
     fit-margin-bottom="0"
     inkscape:zoom="0.82900777"
     inkscape:cx="119.52346"
     inkscape:cy="83.479888"
     inkscape:window-x="75"
     inkscape:window-y="34"
     inkscape:window-maximized="0"
     inkscape:current-layer="svg2" />
  <defs
     id="defs4">
    <filter
       color-interpolation-filters="sRGB"
       id="filter3776">
      <feGaussianBlur
         id="feGaussianBlur3778"
         stdDeviation="0.625266" />
    </filter>
  </defs>
  <metadata
     id="metadata3301">image/svg+xml<rdf:RDF>
  <cc:Work
     rdf:about="">
    <dc:format>image/svg+xml</dc:format>
    <dc:type
       rdf:resource="http://purl.org/dc/dcmitype/StillImage" />
  </cc:Work>
</rdf:RDF>
</metadata>
  <g
     id="g9"
     transform="translate(-2.1893625,-1.5761944)">
    <title
       id="title11">background</title>
    <rect
       id="canvas_background"
       height="402"
       width="582"
       y="-1"
       x="-1"
       style="fill:none" />
  </g>
  <g
     id="g14"
     transform="translate(-54.437235,-15.247428)">
    <title
       id="title16">Layer 1</title>
    <g
       transform="matrix(0.96592583,0.25881905,-0.25881905,0.96592583,41.844357,-43.002102)"
       stroke="null"
       display="none"
       id="layer4"
       style="display:none">
      <rect
         y="25.127304"
         x="42.979572"
         height="224.58275"
         width="282.51859"
         id="rect3906"
         style="fill:#ff0000" />
      <path
         id="path3908"
         d="m 63.211159,120.79565 c -10.174011,-1.07394 -14.129631,-2.60174 -15.974831,-6.16998 -1.141762,-2.20791 -1.206573,-3.40703 -1.228714,-22.733077 -0.0294,-25.667694 -0.0073,-26.114243 1.483261,-29.975513 1.237877,-3.206642 5.174591,-9.454491 5.63913,-8.949677 0.09759,0.106041 -0.10434,8.102028 -0.448723,17.768841 -0.344391,9.666824 -0.532753,21.554413 -0.418594,26.416862 0.200172,8.526184 0.277359,8.953654 2.168732,12.011204 3.80323,6.14817 1.61396,5.83584 41.00248,5.84936 42.13562,0.0144 50.91627,0.20163 48.07478,1.0248 -1.12721,0.32655 -2.98588,1.66021 -4.13037,2.96371 l -2.08089,2.37 -5.95956,-0.56912 c -7.10854,-0.67882 -25.70022,-0.7473 -48.923247,-0.1802 -9.308792,0.22731 -17.95034,0.30509 -19.203453,0.1728 l 0,0 z"
         inkscape:connector-curvature="0"
         style="fill:#ff0000" />
    </g>
    <g
       transform="matrix(0.96592583,0.25881905,-0.25881905,0.96592583,41.809203,-42.539836)"
       stroke="null"
       id="layer3">
      <path
         id="path3883"
         d="m 147.9136,244.0941 c -2.10878,-0.91656 -2.11564,-0.93494 -2.12097,-5.67047 -0.003,-2.61301 -0.28709,-7.24085 -0.63145,-10.28412 -1.68729,-14.91119 -1.98177,-23.00772 -2.30872,-63.47786 -0.30298,-37.50488 -0.2198,-43.80484 0.59311,-44.91656 0.80095,-1.09537 1.70821,-1.29308 5.93363,-1.29308 4.79925,0 5.05922,0.0796 6.86627,2.10204 l 1.87816,2.10202 -0.39789,28.81878 c -0.42395,30.70616 0.13661,45.20565 2.44797,63.3199 1.70941,13.39661 1.68236,23.36432 -0.0712,26.24051 -2.23642,3.66816 -7.65715,5.02851 -12.18888,3.05884 z"
         inkscape:connector-curvature="0"
         style="fill:#ffffff" />
      <path
         id="path3885"
         d="m 183.3231,112.47102 c -0.24629,-0.24629 -27.31826,-0.61244 -60.15997,-0.8137 -58.023634,-0.35558 -59.785799,-0.40274 -62.316027,-1.66785 -1.719292,-0.85965 -3.127472,-2.25894 -4.145187,-4.11906 -1.79792,-3.28615 -1.8498,-4.52828 -1.445488,-34.608568 l 0.258041,-19.198696 1.903847,-1.77845 c 4.176117,-3.901085 13.042454,-4.879143 31.68388,-3.495094 20.635424,1.532104 35.204004,2.224854 62.879934,2.990013 13.60515,0.376144 30.44887,0.964386 37.43045,1.307205 16.37326,0.803993 40.15842,0.789917 54.99423,-0.03255 17.67473,-0.979858 23.20156,0.03748 31.90953,5.873711 2.50623,1.679703 7.3465,4.931801 10.75617,7.226887 3.40967,2.29509 11.25809,7.395157 17.44092,11.333496 6.18283,3.938324 11.98041,7.748665 12.88345,8.467407 l 1.64194,1.306801 -3.86679,2.726936 c -8.00766,5.647156 -22.79749,12.660702 -38.53022,18.271572 -11.03851,3.93675 -17.43621,5.3665 -26.95304,6.02339 -9.96647,0.68794 -65.7076,0.84462 -66.36567,0.18657 l 0,0 0,-2e-5 z m 2.4191,-10.94409 c 0.41425,-1.0795 3.01941,-1.36033 3.01941,-0.32548 0,0.35803 0.42615,0.65097 0.94696,0.65097 1.58725,0 1.98755,-4.148646 1.87969,-19.480899 -0.18293,-25.999714 -0.78927,-28.997265 -5.58759,-27.623959 l -2.12129,0.607124 -0.18416,6.914177 -0.18413,6.914181 -1.95628,-0.975914 c -2.37401,-1.184311 -5.06633,-1.536636 -6.43013,-0.841461 -0.55538,0.283096 -2.25591,0.847183 -3.77899,1.25354 -1.79729,0.479515 -3.16288,1.357674 -3.89075,2.502052 -0.61685,0.96978 -1.33015,1.91597 -1.58514,2.102638 -0.6948,0.508629 -0.87681,13.432861 -0.25008,17.758263 0.46875,3.235153 0.97682,4.234146 3.54474,6.969742 2.57461,2.742726 3.42988,3.240846 6.06149,3.530286 1.68517,0.18535 3.22336,0.079 3.41821,-0.23625 0.19486,-0.31528 0.93985,-0.4201 1.65557,-0.23292 0.72732,0.19018 1.30127,0.0197 1.30127,-0.38662 0,-1.264431 1.78589,-0.784893 2.14152,0.57505 0.40155,1.53555 1.46868,1.70924 1.99968,0.32548 l 0,0 z m -78.35115,-0.40613 c 0.53705,0.0112 2.21782,0.15822 3.73506,0.32674 1.51725,0.1685 2.92597,0.0356 3.13051,-0.29533 0.20453,-0.33095 1.04321,-0.60172 1.86374,-0.60172 4.87062,0 8.15868,-3.584777 8.24402,-8.987967 0.0265,-1.680183 0.2523,-4.373077 0.50169,-5.984215 0.28058,-1.812614 0.14901,-3.797905 -0.34517,-5.207718 -0.43922,-1.253113 -0.81144,-3.178589 -0.82716,-4.278854 -0.038,-2.663345 -5.31502,-8.390892 -8.32837,-9.039482 -1.55246,-0.334152 -2.11828,-0.224991 -2.12561,0.410065 -0.008,0.696449 -0.12092,0.690262 -0.57818,-0.03167 -0.35135,-0.554733 -0.90217,-0.690712 -1.44326,-0.3563 -2.37509,1.467896 -3.00772,0.807625 -3.3535,-3.500088 -0.18536,-2.309258 -0.59112,-4.381432 -0.9017,-4.604813 -0.31058,-0.223389 -0.60448,-1.230751 -0.65311,-2.238579 -0.11805,-2.446686 -0.36154,-2.586388 -2.53897,-1.456726 -1.66704,0.864861 -1.98257,0.855194 -3.03017,-0.09287 -0.64316,-0.582039 -1.387271,-0.840836 -1.653605,-0.575089 -0.83313,0.831299 -1.207237,34.754139 -0.443359,40.203037 0.887581,6.331209 1.645114,7.323839 5.139834,6.734719 1.44697,-0.24391 3.07026,-0.43431 3.60731,-0.42314 z m 120.36434,0.15004 c 3.63089,-0.92434 4.43969,-1.49731 7.3786,-5.227161 0.29544,-0.374908 0.74371,-3.76577 0.99621,-7.535248 0.36228,-5.408302 0.24759,-7.460945 -0.54379,-9.733765 -0.55161,-1.584106 -1.00717,-3.518852 -1.01239,-4.299454 -0.0119,-1.782318 -5.82089,-8.185852 -7.5408,-8.312569 -0.70377,-0.05185 -1.69655,-0.351967 -2.20616,-0.666924 -0.60402,-0.373299 -1.02405,-0.280273 -1.20655,0.267212 -0.21533,0.645973 -0.39242,0.657913 -0.76709,0.0517 -0.37054,-0.599548 -0.69763,-0.562836 -1.36663,0.153351 -0.48375,0.517838 -1.40082,0.805214 -2.03795,0.638596 -0.63712,-0.166603 -1.1584,0.02417 -1.1584,0.423958 0,0.399796 -0.53107,0.726891 -1.18015,0.726891 -1.24524,0 -4.04163,2.648514 -5.21757,4.94165 -1.36988,2.671318 -2.65242,7.064178 -2.16204,7.405228 0.27437,0.190804 0.48171,3.443764 0.46077,7.228775 -0.0444,8.03817 1.19319,11.482491 4.35593,12.122231 0.98459,0.199158 1.79016,0.610059 1.79016,0.913099 0,0.64998 3.52716,1.74771 5.88466,1.83142 0.90936,0.0323 3.39929,-0.38576 5.53319,-0.92899 l 0,0 z m 67.32905,-0.72293 c 1.81247,-1.525128 2.11795,-1.598889 2.81653,-0.68028 1.03516,1.36116 3.91418,2.39092 6.68466,2.39092 2.12567,0 2.23599,-0.11355 2.23599,-2.301275 0,-1.265717 -0.39959,-2.950089 -0.888,-3.743057 -0.71161,-1.155342 -0.78283,-3.381592 -0.35864,-11.206238 0.71475,-13.183929 0.11185,-15.174599 -5.39706,-17.820496 -3.48926,-1.675858 -7.21103,-1.490677 -12.05921,0.600021 -4.55252,1.963196 -8.61624,9.747154 -5.54553,10.622261 0.62656,0.178558 2.60385,0.271538 4.39404,0.206612 3.19346,-0.115814 3.25876,-0.159424 3.4647,-2.313065 0.20666,-2.160934 0.25045,-2.189583 2.82037,-1.844887 3.13397,0.420357 2.93848,0.247192 3.45843,3.063469 0.38004,2.058647 0.24439,2.350731 -1.40664,3.02877 -1.00498,0.41272 -2.96183,0.945389 -4.34848,1.183716 -4.06314,0.698318 -7.58863,3.124672 -9.2887,6.392738 -0.82721,1.59024 -0.8258,2.281319 0.0112,5.533203 1.82877,7.104398 1.96744,7.296278 5.27298,7.296278 1.62,0 2.94544,0.29294 2.94544,0.65097 0,1.27446 3.18777,0.62334 5.18792,-1.05966 l 0,0 z"
         inkscape:connector-curvature="0"
         style="fill:#ffffff" />
      <path
         id="path3887"
         d="m 111.04971,94.986755 c -0.21252,-0.553848 -0.90297,-0.920013 -1.53431,-0.813705 -1.02933,0.173309 -1.14834,-0.445526 -1.15215,-5.990883 -0.002,-3.401291 0.27283,-7.991463 0.61148,-10.200371 0.54404,-3.548531 0.80502,-4.052391 2.24137,-4.326958 3.99017,-0.762779 4.87761,1.620743 4.52679,12.158417 -0.21079,6.331352 -0.49538,8.275703 -1.33405,9.11438 -1.34269,1.34269 -2.85635,1.369331 -3.35913,0.05912 z"
         inkscape:connector-curvature="0"
         style="fill:#ffffff" />
      <path
         id="path3889"
         d="m 142.95869,95.017296 c -0.45251,-1.179237 -2.35166,-1.307487 -2.40971,-0.162743 -0.0227,0.447533 -0.32506,0.103569 -0.67194,-0.764366 -0.64804,-1.621521 -0.26785,-13.236504 0.58744,-17.947098 0.34718,-1.912041 0.9259,-2.817581 2.18699,-3.422005 3.27977,-1.571953 5.10199,0.606621 5.58974,6.682854 0.37009,4.610596 -0.79758,14.414795 -1.8708,15.707947 -0.97634,1.176422 -2.94492,1.121834 -3.41172,-0.09459 z"
         inkscape:connector-curvature="0"
         style="fill:#ffffff" />
      <path
         id="path3891"
         d="m 175.03435,93.645226 c -1.30194,-1.570763 -1.36338,-15.543831 -0.0825,-18.755302 0.98724,-2.475212 2.93761,-3.157997 3.65805,-1.280602 0.25563,0.666176 0.8763,0.926544 1.69705,0.711899 0.80986,-0.211777 1.29401,-0.01615 1.29401,0.522873 0,0.473686 0.33723,0.973663 0.74939,1.111038 1.57518,0.52507 1.4176,8.329788 -0.35202,17.434746 -0.2896,1.490028 -5.77397,1.691116 -6.96402,0.255348 z"
         inkscape:connector-curvature="0"
         style="fill:#ffffff" />
      <path
         id="path3893"
         d="m 212.62154,95.475563 c -1.46117,-0.182472 -1.78389,-0.496407 -1.52561,-1.484039 0.18015,-0.688934 0.0254,-1.252609 -0.34384,-1.252609 -1.23491,0 0.0961,-4.016502 1.9642,-5.927269 1.0027,-1.025581 2.80432,-2.060944 4.00362,-2.300797 l 2.18054,-0.436104 -0.45865,3.457436 c -0.77763,5.862144 -2.59747,8.34584 -5.82027,7.943382 z"
         inkscape:connector-curvature="0"
         style="fill:#ffffff" />
      <path
         id="path3895"
         d="m 225.54111,122.33827 c -6.26123,-1.19186 -55.47878,-2.17232 -61.41309,-1.22337 -2.29719,0.36732 -2.70691,0.26273 -2.70691,-0.6911 0,-0.61818 -0.94261,-2.00449 -2.09468,-3.08069 l -2.09468,-1.95673 18.53152,0.54792 c 26.10381,0.77179 75.22582,0.54225 81.87461,-0.3826 7.15869,-0.99576 16.22998,-3.7433 29.37411,-8.89693 11.63968,-4.56374 22.8721,-9.935454 27.6518,-13.223975 4.03625,-2.777031 3.78518,-1.489815 -0.42877,2.198128 -4.34787,3.805176 -10.1319,6.801547 -25.91886,13.427067 -30.58566,12.8363 -31.38873,13.05575 -48.77931,13.32997 -6.9816,0.11009 -13.27968,0.0886 -13.99574,-0.0477 l 0,0 0,3e-5 z"
         inkscape:connector-curvature="0"
         style="fill:#ffffff" />
      <path
         id="path3899"
         d="m 139.45248,157.50989 c 0.007,-1.43215 0.14052,-1.94135 0.29624,-1.13161 0.1557,0.80974 0.14979,1.98148 -0.0131,2.60385 -0.16293,0.62238 -0.29033,-0.0401 -0.28311,-1.47224 l -2e-5,0 z"
         inkscape:connector-curvature="0"
         style="fill:#ffffff" />
      <path
         id="path3901"
         d="m 134.73157,45.012585 c 0,-1.463867 1.40133,-8.540901 1.8513,-9.349564 0.23489,-0.422104 0.42706,1.701668 0.42706,4.719498 0,4.791695 -0.14435,5.486954 -1.13917,5.486954 -0.62656,0 -1.13919,-0.385597 -1.13919,-0.856888 z"
         inkscape:connector-curvature="0"
         style="fill:#ffffff" />
      <path
         id="path3903"
         d="m 146.19904,46.034084 -6.43406,-0.21386 0.32616,-4.063049 c 0.68208,-8.497337 5.10271,-12.788355 11.42883,-11.093744 2.44564,0.655128 3.3915,3.434587 3.3915,9.965998 0,5.228409 -0.12813,5.875687 -1.13919,5.754776 -0.62656,-0.07494 -4.0345,-0.232483 -7.57324,-0.350121 z"
         inkscape:connector-curvature="0"
         style="fill:#ffffff" />
      <path
         id="path3910"
         d="m 63.125477,120.34004 c -10.174011,-1.07394 -14.129631,-2.60174 -15.974831,-6.16998 -1.141762,-2.20792 -1.206573,-3.40703 -1.228714,-22.733079 -0.0294,-25.667694 -0.0073,-26.114243 1.483261,-29.975513 1.237877,-3.206642 5.174591,-9.454491 5.63913,-8.949677 0.09759,0.106041 -0.10434,8.102028 -0.448723,17.768841 -0.344391,9.666824 -0.532753,21.554413 -0.418594,26.416862 0.200172,8.526186 0.277359,8.953656 2.168732,12.011196 3.80323,6.14818 1.61396,5.83585 41.002476,5.84937 42.135616,0.0144 50.916266,0.20163 48.074776,1.02479 -1.12721,0.32656 -2.98589,1.66022 -4.13037,2.96372 l -2.08089,2.36999 -5.95956,-0.56912 c -7.10854,-0.67882 -25.70021,-0.7473 -48.923243,-0.18019 -9.308792,0.22731 -17.95034,0.30509 -19.203449,0.17279 l 0,0 z"
         inkscape:connector-curvature="0"
         style="fill:#ff0000" />
      <path
         id="path3912"
         d="m 63.125477,120.33672 c -5.967186,-0.62116 -11.039291,-1.75222 -12.881454,-2.8725 -4.096313,-2.49112 -4.153793,-2.88487 -4.214928,-28.873659 -0.05329,-22.658638 -0.0037,-23.649551 1.357468,-27.129093 1.232056,-3.149498 5.217407,-9.488129 5.627007,-8.949677 0.08067,0.106041 -0.152969,10.852623 -0.519196,23.881283 -0.72728,25.872996 -0.50145,28.861166 2.527016,33.437496 3.188995,4.81889 2.285736,4.71377 40.652309,4.73097 41.955101,0.0188 50.573551,0.20314 47.749291,1.02131 -1.12721,0.32656 -2.98538,1.65966 -4.12926,2.96245 l -2.07976,2.36872 -6.28618,-0.57679 c -7.42288,-0.68107 -23.66294,-0.73979 -47.947901,-0.17332 -9.666824,0.22548 -18.601303,0.30325 -19.854412,0.1728 z"
         inkscape:connector-curvature="0"
         style="fill:#ffffff" />
      <path
         id="path3914"
         d="m 139.48338,152.62765 c 0,-1.96916 0.12204,-2.77473 0.2712,-1.79016 0.14915,0.98459 0.14915,2.59572 0,3.58031 -0.14916,0.98459 -0.2712,0.17902 -0.2712,-1.79015 z"
         inkscape:connector-curvature="0"
         style="fill:#ffffff" />
      <path
         id="path3916"
         d="m 142.95435,240.80232 c -1.56775,-3.05945 -2.26212,-7.06988 -2.95768,-17.08278 -0.36213,-5.21295 -0.79831,-11.016 -0.96928,-12.89567 -0.68884,-7.57315 -1.03854,-29.2717 -0.71077,-44.10285 0.21544,-9.74835 0.21486,-16.49717 -0.002,-20.1799 -0.44116,-7.50015 -0.49057,-14.82022 -0.11863,-17.57603 l 0.30748,-2.27837 0.24923,1.79015 c 0.13707,0.98459 0.46991,15.92422 0.73964,33.1992 0.60245,38.58369 0.73633,41.33841 3.29543,67.80777 0.63743,6.59317 1.10057,12.15894 1.0292,12.36835 -0.0714,0.20938 -0.45967,-0.26303 -0.86287,-1.04987 l 0,0 -1.7e-4,0 z"
         inkscape:connector-curvature="0"
         style="fill:#ffffff" />
      <rect
         y="49.408344"
         x="70.234398"
         height="67.700302"
         width="195.61482"
         id="rect3918"
         style="fill:#ffffff" />
      <path
         id="path3920"
         d="m 136.99362,36.098278 c -0.24452,-1.115128 0.13643,-2.178513 1.44925,-4.045525 1.11679,-1.58824 1.14117,-0.953726 0.0497,1.293884 -0.58464,1.203926 -1.10775,2.558746 -1.16247,3.010712 -0.0901,0.744362 -0.12183,0.719971 -0.33649,-0.259071 z"
         inkscape:connector-curvature="0"
         style="fill:#ffffff" />
    </g>
    <g
       transform="matrix(0.96592583,0.25881905,-0.25881905,0.96592583,41.978725,-42.698082)"
       stroke="null"
       id="layer1">
      <path
         d="m 287.96979,102.49779 c -12.36456,5.02896 -24.56388,9.89207 -38.23526,10.4575 -29.66606,1.22678 -59.94092,0.53247 -89.60263,-0.58639 -29.16597,-1.09891 -58.07752,-0.2128 -87.22932,-0.39363 -7.892982,-0.0499 -15.346725,0.55845 -17.665703,-7.80616 -1.166557,-4.209775 -0.770805,-8.899083 -0.693626,-13.200749 0.221786,-12.421547 1.249176,-25.046898 0.362038,-37.441444 -0.0072,-0.08493 -0.03477,-0.154854 -0.06306,-0.223778 3.323532,-10.647331 30.365105,-6.838158 38.91259,-6.217758 24.401891,1.770218 48.986441,2.526443 73.455741,2.963013 14.45849,0.257751 28.89416,1.418571 43.35156,1.816177 13.94316,0.382622 27.66563,-0.7882 41.56312,-1.328674 6.99387,-0.272728 13.80402,0.301697 20.03684,3.431564 5.29242,2.657349 9.73144,6.873116 14.63355,10.102882 10.90777,7.188782 22.44171,13.56337 32.9537,21.24868 -9.4346,7.474487 -20.44778,12.569374 -31.77954,17.178767 z m 1.2883,6.6573 c -14.61396,6.01497 -27.92438,13.2677 -44.25388,14.00296 -14.75967,0.66437 -29.85744,-1.33763 -44.64207,-1.65636 -8.58768,-0.1848 -18.17994,-1.03792 -27.25359,-0.33264 -3.78342,-0.47053 -8.05713,0.34465 -11.73618,0.80718 -0.0543,-0.31669 -0.11525,-0.63135 -0.19787,-0.94103 -1.78516,-6.73326 -11.6144,-6.54344 -17.64069,-5.10589 -0.6958,0.16583 -1.26657,0.46452 -1.7558,0.84115 -0.25875,-0.02 -0.53381,0.0559 -0.77952,0.27272 -1.58293,1.40059 -2.70816,2.92307 -3.52899,4.52748 -1.33834,-0.65834 -3.45618,-0.0719 -4.89234,0.006 -13.06691,-3.21676 -28.68217,-1.2717 -42.099133,-0.95503 -12.065582,0.28471 -26.396881,1.67433 -38.170021,-1.40959 -9.197601,-2.40956 -6.864502,-14.23772 -6.342651,-20.813113 0.447929,-5.632355 0.05651,-11.137817 -0.415306,-16.751205 -0.949112,-11.279678 -0.930634,-22.858055 8.649658,-30.519386 -0.233749,0.559448 -0.401169,1.157845 -0.484886,1.802193 -0.209824,0.106903 -0.371819,0.297699 -0.381599,0.596397 -0.408783,13.035927 -0.88932,26.051872 -1.213295,39.086823 -0.168526,6.736229 -0.636009,15.294641 5.560951,20.053881 3.157196,2.42457 8.281105,1.96302 12.0308,2.07493 8.567039,0.25772 17.154716,0.022 25.719559,-0.19483 17.265613,-0.43756 34.412723,-0.43556 51.673973,0.22177 34.97371,1.33268 70.39316,2.48352 105.38643,1.15885 12.95273,-0.4915 25.12051,-5.86312 36.86651,-10.40456 10.68158,-4.13086 20.97724,-8.930053 30.0748,-15.488463 -4.82708,9.737228 -20.51407,15.143803 -30.17486,19.119813 l 0,3.8e-4 z M 161.25603,222.17055 c 0.64145,4.79826 0.91325,9.5814 0.59253,14.40663 -0.58709,8.81027 -8.97365,11.19897 -16.40241,7.19909 0.51753,-11.99038 -2.30374,-23.8383 -2.6038,-35.81726 -0.3044,-12.15879 -0.48923,-24.31764 -0.46857,-36.48045 0.0207,-11.81714 0.05,-23.63429 0.0652,-35.4514 0.006,-4.88811 -0.84582,-10.23973 -0.006,-15.07689 0.61426,-3.54043 6.04151,-2.97601 8.5181,-2.92407 4.46942,0.0929 7.47114,2.7113 7.52333,6.94003 0.11742,9.57141 -0.88715,19.29964 -0.90236,28.931 -0.0207,12.22772 -0.0413,24.42647 0.5273,36.64624 0.49464,10.63933 1.7471,21.07286 3.15718,31.62708 l -1.2e-4,0 z m -17.21125,21.33098 c -4.85211,-6.8642 -3.86058,-17.39475 -4.68577,-25.20601 -1.12305,-10.62825 -1.37203,-21.35646 -1.50357,-32.02675 -0.13808,-11.24474 0.32289,-22.46947 0.47944,-33.70922 0.10874,-7.75022 -2.3005,-19.932 0.64579,-28.42749 -0.52401,5.73526 0.50878,12.17881 0.51643,17.78817 0.0206,16.95102 0.038,33.89203 0.52183,50.83802 0.48816,17.07589 2.61904,33.71495 4.13675,50.70037 -0.0403,0.009 -0.0728,0.0307 -0.1109,0.0429 l 0,4e-5 z M 134.13617,45.723731 c 0.43813,-4.204796 1.00999,-8.699287 3.25613,-12.454502 0.9915,-1.657345 2.19284,-2.629368 3.53987,-3.232765 -4.05737,4.023968 -5.12283,11.32465 -3.09739,16.16679 -1.26331,-0.0549 -2.52555,-0.122879 -3.78885,-0.181824 0.0424,-0.08891 0.0782,-0.184799 0.0902,-0.297699 z m 21.12946,1.094894 c -5.2772,-0.13485 -10.55224,-0.321671 -15.82506,-0.547447 0.012,-0.06097 0.0294,-0.118874 0.0239,-0.192802 -0.47618,-6.484482 1.35031,-17.773159 11.23284,-15.831116 7.27653,1.429573 2.88539,11.665298 4.56834,16.571365 l 2e-5,0 z m 168.39975,37.084801 c -10.87293,-8.614357 -23.23206,-15.28167 -34.98893,-22.789131 -10.6044,-6.77121 -17.12316,-13.311646 -30.65319,-14.128822 -6.90909,-0.416573 -13.93668,0.669327 -20.79572,1.262726 -8.87686,0.769249 -17.7581,0.777222 -26.66542,0.6064 -17.50915,-0.336647 -34.98784,-1.523476 -52.49698,-1.95105 0.11852,-1.900093 -0.20439,-3.901085 -0.14894,-5.822159 0.0609,-2.147842 0.16199,-4.339645 -0.23265,-6.467514 -0.80125,-4.318665 -3.52684,-6.858109 -8.22456,-7.402557 -4.50203,-1.99102 -10.3272,-0.02695 -13.32673,3.369617 -3.66273,4.147839 -4.21614,10.035931 -3.78016,15.142796 0.008,0.08392 0.0381,0.148872 0.0619,0.219795 -16.61984,-0.790222 -33.227686,-1.797195 -49.856226,-2.305695 -6.344803,-0.194801 -20.8283,-0.430573 -26.531685,4.920067 -10.53701,3.931068 -12.873383,13.779167 -13.212578,23.391525 -0.219612,6.257736 0.472931,12.5634 0.692528,18.817139 0.277237,7.865105 -1.645988,15.579367 -0.0032,23.396527 2.053696,9.77118 17.397156,8.88705 25.283607,9.17178 10.370674,0.37462 20.723938,0.50652 31.101128,0.6913 10.396776,0.18483 21.448016,-0.80618 31.656726,1.17782 0.55989,0.10892 1.04477,0.019 1.44052,-0.1818 1.035,0.15483 2.07977,0.26175 3.11259,0.35463 -1.085,4.73826 -0.39137,9.96299 -0.31094,15.04292 0.24246,15.27666 -0.20982,30.56836 -0.0413,45.84903 0.14785,13.49446 1.17743,26.92489 2.78756,40.3356 0.70666,5.88205 -0.91759,14.01367 4.62054,17.95392 -0.0663,0.43356 0.087,0.89831 0.59796,1.2128 5.17935,3.19177 15.24886,5.17059 19.21819,-0.94007 6.28283,-9.67111 1.82212,-24.18083 0.43051,-34.58441 -2.21678,-16.58429 -2.34397,-33.54126 -2.72013,-50.22851 -0.17938,-7.92907 -0.0576,-15.87207 -0.0707,-23.80211 -0.006,-3.64635 1.01978,-7.61238 1.01328,-11.3936 14.99121,-0.18082 29.98242,-0.1758 44.97253,0.22877 17.38196,0.46852 34.92261,2.76325 52.173,-0.0959 6.74274,-1.11787 12.90708,-4.87811 18.95185,-7.60438 7.84948,-3.54044 16.01641,-6.42853 23.80178,-10.09587 9.7031,-4.57142 21.17508,-9.768185 22.54389,-20.74419 0.0304,-0.24575 -0.0207,-0.45652 -0.1098,-0.646347 0.43921,-0.575424 0.48706,-1.34565 -0.29029,-1.961021"
         id="path74"
         inkscape:connector-curvature="0"
         style="fill:#4093aa;fill-rule:nonzero" />
    </g>
    <g
       stroke="null"
       id="layer2">
      <g
         font-size="42.373619px"
         font-style="normal"
         font-weight="normal"
         id="text2989"
         transform="matrix(1.2672553,0.33956004,-0.22586603,0.84294351,94.90212,244.61313)"
         style="font-size:42.37361908px;font-style:normal;font-weight:normal;text-anchor:start;fill:#a37653;font-family:DJB This Font is Worn">
        <g
           stroke="null"
           font-size="40px"
           id="text2988"
           transform="matrix(0.91126597,0,0,1.0973746,-129.85646,-360.12042)"
           style="font-size:40px;opacity:0.77999998;fill:#a37653;filter:url(#filter3776);font-family:Jump Start" />
      </g>
      <g
         font-size="110.586662px"
         font-style="normal"
         font-weight="bold"
         transform="matrix(0.66823936,0.1790542,-0.1790542,0.66823936,100.6243,86.076878)"
         id="text3865"
         style="font-size:110.58666229px;font-style:normal;font-weight:bold;text-anchor:start;fill:#a37653;font-family:HandVetica">
        <path
           stroke="null"
           id="path3870"
           d="m 25.123007,-57.706226 c 0.238739,2.7e-5 0.387939,0.05978 0.447662,0.179043 0.119354,0.05982 0.238739,0.0896 0.358124,0.08951 0.119385,3.1e-5 0.268585,-0.08951 0.447693,-0.268581 0.119354,-0.835636 0.238708,-1.34296 0.358124,-1.522099 0.119354,-0.238708 0.328278,-0.358063 0.62674,-0.35812 0.119354,5.7e-5 0.298431,0.0299 0.537201,0.0895 0.238739,3.1e-5 0.507324,3.1e-5 0.805786,0 l 0,0.537201 c 0.298431,0.298496 0.477509,0.477573 0.537201,0.537201 0.119385,0.05969 0.328278,0.0896 0.62674,0.08948 0.179047,-0.417755 0.298431,-0.746063 0.358124,-0.984863 0.119354,-0.298397 0.238739,-0.50729 0.358154,-0.62674 0.179047,-0.179016 0.387939,-0.298401 0.62674,-0.358124 0.238708,-0.119324 0.596863,-0.238708 1.074404,-0.358124 l 0,1.16391 0.537201,0.537201 c 0.596863,-0.298367 0.92514,-0.507294 0.984863,-0.626705 0.119354,-0.119358 0.179047,-0.477478 0.179047,-1.074406 l 1.253479,0 1.16394,1.16391 c 0.417786,-0.417755 0.865448,-0.626678 1.342987,-0.626709 0.537167,3.1e-5 1.074398,0.208954 1.611603,0.626709 0.596863,0.417877 1.134064,0.925236 1.611603,1.522095 0.477505,0.537231 0.865479,1.104279 1.163937,1.701145 0.358128,0.59692 0.596867,1.104275 0.716282,1.52206 0.716217,0.119419 1.283295,0.298492 1.701141,0.537205 0.417786,0.179104 0.746063,0.447689 0.984859,0.805786 0.298405,0.298489 0.537174,0.686462 0.716282,1.163937 0.238705,0.477539 0.50732,1.01474 0.805786,1.611603 0.656555,3.1e-5 0.984833,0.656616 0.984863,1.969727 -3.1e-5,0.358189 -0.02991,0.776001 -0.08948,1.253479 -3.1e-5,0.417877 -3.1e-5,0.86554 0,1.343021 -3.1e-5,0.775967 0.05969,1.492245 0.179043,2.148769 0.17905,0.656651 0.596867,1.163971 1.253483,1.522095 -3.1e-5,0.895355 0.02979,1.611637 0.08951,2.148804 0.119324,0.477539 0.477448,1.134094 1.074402,1.969727 -0.298492,0.716309 -0.47757,1.492252 -0.537201,2.327881 -6.1e-5,0.835663 -6.1e-5,1.701172 0,2.596466 l 0,1.611605 -0.62674,0.62674 c -0.298492,1.910065 -0.477539,3.253082 -0.537201,4.029022 -0.05979,0.716278 -0.0896,1.193787 -0.08951,1.432526 l 0,0.447662 0.62674,0 -0.62674,5.282471 -0.537201,0 -0.716248,1.432526 -0.537201,0.984894 -0.716278,1.16394 c -0.119419,0.238739 -0.268646,0.507355 -0.447666,0.805786 -0.119411,0.23877 -0.298492,0.537201 -0.537201,0.895325 -1.014771,0.298462 -2.268215,0.746124 -3.760403,1.343018 -1.432587,0.537201 -2.775574,0.805786 -4.029022,0.805786 -0.716282,0 -1.283329,-0.119354 -1.701111,-0.358124 l -1.79068,1.79068 c -0.298492,0 -0.596924,-0.119385 -0.895355,-0.358154 -0.23877,-0.179047 -0.507355,-0.268585 -0.80579,-0.268585 -2.7e-5,0.298431 -0.238766,0.507355 -0.716276,0.62674 -0.417816,0.119385 -0.77597,0.328278 -1.074402,0.62674 -0.895355,-0.895355 -1.730988,-1.40271 -2.506927,-1.522095 -0.716278,-0.119354 -1.372864,-0.208893 -1.969757,-0.268585 -0.537201,-0.119385 -1.044556,-0.358124 -1.522064,-0.716278 -0.417816,-0.417816 -0.77597,-1.372833 -1.074402,-2.865051 l 0,4.11853 c -1.193787,0.298431 -2.387573,0.507355 -3.581329,0.62674 -1.193787,0.119385 -2.387573,0.328278 -3.581329,0.62674 -0.596924,-0.656586 -1.074432,-1.343018 -1.432556,-2.059296 -0.358124,-0.77594 -0.865479,-1.492218 -1.522064,-2.148804 l 0,-5.282471 c -0.656586,-0.895325 -1.104248,-2.178619 -1.342987,-3.849945 -0.179077,-1.730957 -0.268616,-3.611145 -0.268616,-5.640594 0,-2.686007 0.119385,-5.371981 0.358124,-8.058016 0.23877,-2.745667 0.477509,-4.984009 0.716278,-6.715027 -0.298462,-0.835602 -0.477509,-1.730927 -0.537201,-2.686005 -0.05969,-0.954987 -0.08951,-2.029388 -0.08951,-3.223206 0.05972,-0.775906 0.08951,-1.55188 0.08951,-2.327881 0.05969,-0.835602 0.08951,-1.671234 0.08951,-2.506927 0,-1.969696 -0.05969,-3.999115 -0.179077,-6.088287 -0.05969,-2.08905 -0.08948,-4.178162 -0.08948,-6.267334 0,-2.08905 0.08948,-4.058777 0.268585,-5.90921 0.179077,-1.910004 0.507355,-3.640961 0.984863,-5.192963 0.895355,9.2e-5 1.55191,0.358215 1.969757,1.074402 0.477478,0.716339 1.014679,1.522156 1.611603,2.417419 l 0,-1.16394 c 0.596893,-0.29837 1.16391,-0.477448 1.701141,-0.537201 0.596863,-0.0596 1.223602,-0.08951 1.880188,-0.08951 0,-0.29837 0.119385,-0.566956 0.358154,-0.805786 0.238739,-0.29837 0.507324,-0.596832 0.805786,-0.895325 l 1.16394,0 c -3.1e-5,0.298492 0.02988,0.716309 0.08948,1.253448 0.05972,0.4776 0.238739,1.044647 0.537201,1.701141 -0.656586,1.193848 -1.283325,2.387634 -1.880188,3.581329 -0.537231,1.134186 -1.104279,2.298126 -1.701141,3.491821 l 0.62674,0.537201 c 0.596863,-1.193726 1.134064,-2.178589 1.611603,-2.95459 0.477509,-0.775909 1.313141,-1.163879 2.506927,-1.16394 0.298431,2.089172 0.567047,4.178284 0.805817,6.267334 0.238739,2.02948 0.358093,4.088745 0.358124,6.177826 -0.298462,3.1e-5 -0.477539,0.149265 -0.537201,0.447662 -0.05969,0.2388 -0.0896,0.686462 -0.08951,1.343021 m 6.53595,40.110991 c 0.298431,-0.179047 0.507322,-0.298431 0.626738,-0.358124 0.119354,-0.119385 0.417789,-0.179047 0.895325,-0.179077 l 1.43256,0 0,-1.16394 0.626709,0 0,-0.626709 1.16394,0 0,-1.16394 c -3.1e-5,-0.656586 -3.1e-5,-1.283325 0,-1.880219 0.05969,-0.656555 0.238739,-1.223602 0.537201,-1.701141 l 0.62674,0 0,-4.74527 c -3.1e-5,-0.596863 0.02979,-1.193756 0.08951,-1.790649 0.05969,-0.656586 0.238705,-1.432528 0.537197,-2.327879 -0.238796,-0.477482 -0.388031,-0.955021 -0.447689,-1.43256 -0.05978,-0.537167 -0.0896,-1.104218 -0.08948,-1.701111 -3.1e-5,-1.074402 0.08948,-2.17865 0.268585,-3.312744 0.179047,-1.193756 0.268581,-2.387543 0.268612,-3.58136 -0.298492,-0.895294 -0.507381,-1.671265 -0.626736,-2.32785 -0.119419,-0.716248 -0.328342,-1.522034 -0.62674,-2.417416 l -1.16394,-1.16394 0,-1.790653 c -1.253483,-0.417816 -2.387573,-0.626709 -3.402283,-0.626736 -0.835665,2.7e-5 -1.611605,0.119411 -2.327852,0.358124 -0.716309,0.238796 -1.551941,0.537228 -2.506958,0.895321 0,2.089172 -0.23877,4.058903 -0.716248,5.909214 -0.417847,1.790707 -0.77597,3.55154 -1.074402,5.282501 -3.1e-5,0.596889 0.02979,1.283321 0.08948,2.059261 0.05972,0.77597 0.238739,1.462402 0.537231,2.059265 l 0.537201,0 c -0.835693,1.611637 -1.372894,3.133698 -1.611633,4.566225 -0.179077,1.372864 -0.268585,2.805389 -0.268585,4.297607 0,0.656586 0,1.343018 0,2.059265 0.05969,0.656586 0.08951,1.372864 0.08951,2.148804 l 0.626709,0 c 0.298431,0.596893 0.477509,1.074402 0.537201,1.432526 0.119385,0.358154 0.328278,0.865509 0.62674,1.522064 l 0.62674,0 0,-0.626709 0.537201,0 0,-1.16394 c 0.298431,-0.298431 0.507355,-0.447662 0.62674,-0.447662 0.119354,0 0.208893,0.05969 0.268585,0.179047 0.05969,0.05969 0.179047,0.149231 0.358154,0.268616 l 0.537201,0.537201 c 0.298401,0.298431 0.477478,0.62674 0.537201,0.984863 0.05969,0.358124 0.08948,0.835663 0.08948,1.432526 0.298431,3.1e-5 0.477509,0.02991 0.537201,0.08951 0.119385,0 0.328278,0.149231 0.62674,0.447662 m -12.98233,-38.409883 c 0.179047,6.5e-5 0.298431,-0.02978 0.358124,-0.08948 l 0.358124,-0.179077 c 0.119354,-0.119324 0.268585,-0.208862 0.447662,-0.268612 0,-0.596832 0.08951,-1.074345 0.268616,-1.432529 0.238739,-0.417786 0.358124,-0.92514 0.358124,-1.522064 l 1.701141,0 0,2.327881 0.62674,0 c -3.1e-5,-1.193756 -0.02991,-2.357662 -0.08951,-3.491821 -0.05969,-1.193726 -0.23877,-2.387512 -0.537201,-3.581329 -0.835663,2.089142 -1.55191,3.790283 -2.148804,5.103394 -0.596893,1.253513 -1.044556,2.298065 -1.342987,3.133667 m -1.16394,40.827303 c 0.298431,0 0.686401,-0.08951 1.16394,-0.268616 0.477478,-0.238739 0.865448,-0.358124 1.16391,-0.358124 l 0.62674,-6.446411 c -0.596893,0.835663 -1.134094,1.910065 -1.611603,3.223206 -0.417816,1.253479 -1.074402,2.327881 -1.969727,3.223206 -3.1e-5,0.417816 0.208893,0.62674 0.62674,0.62674 m 1.16394,-20.682253 c 0.298431,-0.298431 0.596863,-0.686401 0.895325,-1.16394 0.358124,-0.537167 0.835632,-0.954987 1.432526,-1.253479 l 0,-3.491787 c 0,-0.17902 0.05969,-0.268589 0.179077,-0.26862 l 0.08951,0 c 0.05969,0.05981 0.119354,0.119415 0.179047,0.179077 0.05972,3.1e-5 0.119385,0.02991 0.179077,0.08951 l 0,-1.79068 -0.62674,0 c -0.477509,1.313202 -0.865509,2.327911 -1.16394,3.044159 -0.23877,0.716278 -0.417816,1.343018 -0.537201,1.880188 -0.119385,0.477539 -0.23877,0.925201 -0.358124,1.343018 -0.05969,0.358154 -0.149231,0.835663 -0.268585,1.432526 m 1.16391,-13.6091 c 0.895325,-0.596863 1.432526,-0.954987 1.611603,-1.074402 0.179077,-0.179012 0.417816,-0.417786 0.716278,-0.716244 l 0,-3.491825 c -0.298462,0.596924 -0.507355,1.074463 -0.62674,1.432526 -0.05969,0.358185 -0.23877,0.865543 -0.537201,1.522095 l -0.537201,0 -0.62674,2.32785 m 22.472929,32.500673 c 0.895298,-0.895325 1.611576,-1.730957 2.148808,-2.506927 0.53717,-0.77597 0.805752,-1.910034 0.805782,-3.402283 -0.35815,0.895355 -0.865505,1.701141 -1.52206,2.417419 -0.596924,0.716248 -0.895355,1.671295 -0.895325,2.865051 l -0.537205,0 0,0.62674 m 2.327854,-20.055513 c 0.417816,-0.77594 0.746094,-1.372803 0.984894,-1.790676 0.238708,-0.417786 0.417786,-0.775913 0.537201,-1.074406 0.179016,-0.358093 0.328243,-0.686371 0.447662,-0.984863 0.119324,-0.358093 0.268551,-0.865448 0.447662,-1.522064 l -0.626743,0 0,0.62674 -0.626736,0 c -3.1e-5,0.596924 -0.0896,1.193817 -0.268585,1.79068 -0.179108,0.537235 -0.26865,1.104248 -0.26862,1.701111 l -0.626736,0 0,1.253479 m -20.682222,-8.8638 0.62674,0 c -3.1e-5,-0.298431 0.08948,-0.626705 0.268585,-0.984894 0.179047,-0.358093 0.268585,-0.835602 0.268616,-1.432526 l -0.537201,0 0,-2.327881 c -0.298492,0.895386 -0.477539,1.701202 -0.537201,2.417419 -0.05981,0.656616 -0.0896,1.432556 -0.08951,2.327881 m 21.577574,21.040377 c 0.119358,-0.358124 0.179047,-0.656586 0.179077,-0.895355 0.05969,-0.298431 0.08951,-0.567017 0.08951,-0.805786 l 0,-1.074402 c -0.298492,0.298462 -0.477539,0.925201 -0.537201,1.880188 l 0,2.059296 c 0.05969,-0.596893 0.149166,-0.984863 0.268585,-1.16394 m -26.322847,-21.667112 0.62674,0 0,-1.163944 c -0.298462,3.1e-5 -0.477539,0.05981 -0.537201,0.179077 -0.05969,0.05978 -0.08951,0.388 -0.08951,0.984867 m 21.308962,10.027737 0.62674,-1.79068 -0.62674,0 0,1.79068 m -1.790649,15.936983 0.626709,0 0,-1.432556 c -0.05978,0.119415 -0.119385,0.23877 -0.179047,0.358154 -0.05981,0.05969 -0.119415,0.149231 -0.179077,0.268585 -0.179077,0.298462 -0.268616,0.567047 -0.268585,0.805817 m -3.491821,5.90921 c 0.596863,-0.298462 0.92514,-0.477509 0.984859,-0.537201 0.119358,-0.119385 0.17905,-0.328278 0.179081,-0.62674 -0.298462,0 -0.507385,0.119385 -0.62674,0.358124 -0.05978,0.23877 -0.23877,0.507355 -0.537201,0.805817 M 15.184749,-54.483106 c 0,0.05978 0.05972,-0.08951 0.179077,-0.447693 -0.179077,0.179108 -0.268616,0.388031 -0.268616,0.62674 l 0.08951,-0.179047"
           inkscape:connector-curvature="0"
           style="fill:#4093aa" />
        <path
           stroke="null"
           id="path3872"
           d="m 76.047142,-10.343008 c -0.895355,-0.895325 -1.701172,-1.372833 -2.417419,-1.432556 -0.716278,-0.119354 -1.372864,-0.208893 -1.969727,-0.268585 -0.537231,-0.119385 -1.044586,-0.38797 -1.522064,-0.805786 -0.417847,-0.417816 -0.77597,-1.343018 -1.074402,-2.775543 l -0.62674,0 0,1.16394 c -1.730988,0 -3.074005,-0.417816 -4.029022,-1.253479 -0.895325,-0.835632 -1.492218,-1.999573 -1.790649,-3.491791 -0.417847,0 -0.77597,-0.298462 -1.074402,-0.895355 -0.23877,-0.656555 -0.447693,-1.492218 -0.626743,-2.506927 -0.179073,-1.074402 -0.298458,-2.238342 -0.35812,-3.491821 -0.05973,-1.313141 -0.08951,-2.626312 -0.08951,-3.939453 0,-1.730988 0.02991,-3.312716 0.08951,-4.745298 0.05969,-1.492191 0.1492,-2.536747 0.268585,-3.133671 0.05969,-0.119354 0.119385,-0.268555 0.179077,-0.447662 0.05969,-0.179047 0.119354,-0.358124 0.179073,-0.537201 l 0.17905,-0.805817 c 0.05969,-0.119324 0.08951,-0.417786 0.08951,-0.895325 l 0,-1.432526 c -0.298466,-0.298431 -0.596924,-0.567017 -0.895355,-0.805817 -0.298431,-0.238708 -0.596893,-0.358093 -0.895325,-0.35812 0,-0.596867 0.119381,-1.074375 0.358124,-1.432529 0.23877,-0.417786 0.507351,-0.925171 0.805817,-1.522095 -3.4e-5,-1.014679 0.298431,-2.238281 0.895321,-3.670868 0.596893,-1.432491 1.313141,-2.835175 2.148808,-4.208069 0.895325,-1.432495 1.850342,-2.71582 2.865082,-3.849945 1.014679,-1.134033 1.969727,-1.91 2.865051,-2.327881 0.596893,6.1e-5 1.074402,0.0896 1.432556,0.268616 0.358124,0.179108 0.686401,0.268646 0.984863,0.26862 -3.1e-5,-0.716251 0.02978,-1.19376 0.08951,-1.43256 0.05969,-0.298401 0.179047,-0.477444 0.358124,-0.537201 0.179047,-0.05969 0.417816,-0.08951 0.716278,-0.08951 0.298431,6.1e-5 0.686401,-0.08948 1.16394,-0.268585 l 0,1.16394 1.16394,0 c 0.298401,-0.835602 0.596863,-1.342957 0.895325,-1.522095 0.358124,-0.238678 0.835602,-0.507294 1.432526,-0.805786 l 0,1.79068 1.16394,0 c 0.596863,-0.298401 0.925171,-0.50732 0.984863,-0.62674 0.119354,-0.179016 0.179047,-0.567017 0.179077,-1.16394 l 1.16394,0 c 0.298431,0.596924 0.477478,0.984924 0.537201,1.16394 0.119354,0.119419 0.328247,0.328339 0.62674,0.62674 0.596832,-0.596863 1.223572,-0.895294 1.880188,-0.895355 0.596863,6.1e-5 1.193756,0.208954 1.79068,0.62674 0.596863,0.358185 1.134064,0.805847 1.611603,1.342987 0.53717,0.537262 1.014679,1.104309 1.432526,1.701141 0.417786,0.537262 0.746086,0.984924 0.984863,1.343018 1.193756,0.596924 2.089111,1.223667 2.686005,1.880192 0.596863,0.656647 1.044525,1.581814 1.34301,2.775539 0.537178,6.1e-5 0.895294,0.208954 1.074409,0.62674 0.179016,0.358185 0.268555,0.865543 0.268585,1.522064 -3.1e-5,0.47757 -0.02988,0.955082 -0.08948,1.432556 -6.1e-5,0.477539 -6.1e-5,0.955051 0,1.432529 -6.1e-5,0.83569 0.08948,1.611629 0.268585,2.327877 0.238708,0.656586 0.716217,1.134125 1.432526,1.432526 -3.1e-5,0.895355 0.02982,1.671326 0.08951,2.327881 0.05969,0.596924 0.238731,1.193817 0.537201,1.790653 l 0,7.073151 -0.62674,0.537197 c -0.119415,1.49225 -0.208923,2.656191 -0.268593,3.491823 -0.05972,0.77597 -0.149254,1.372864 -0.268608,1.79068 -0.05979,0.417816 -0.149261,0.686432 -0.268585,0.805786 -0.05982,0.119385 -0.179115,0.23877 -0.358124,0.358124 l 0.626709,0 0,5.282501 -0.626709,0 c -0.47757,0.716278 -0.86554,1.313141 -1.16394,1.790649 -0.2388,0.417847 -0.477577,0.805817 -0.716278,1.16394 -0.179108,0.358154 -0.388039,0.77597 -0.62674,1.253479 -0.2388,0.417816 -0.567078,0.984863 -0.984871,1.701141 -0.656609,0.119385 -1.34304,0.328278 -2.059258,0.62674 -0.716309,0.238739 -1.462433,0.507324 -2.238342,0.805786 -0.776001,0.298431 -1.551941,0.567047 -2.327881,0.805817 -0.716278,0.238739 -1.40271,0.358124 -2.059265,0.358124 -0.537231,0 -0.984894,-0.08951 -1.342987,-0.268585 -0.298492,0.298431 -0.656616,0.596863 -1.074402,0.895325 -0.417847,0.298431 -0.62677,0.596893 -0.62674,0.895325 -0.596924,0 -1.074432,-0.149231 -1.432556,-0.447662 -0.298462,-0.23877 -0.596893,-0.507355 -0.895325,-0.805786 -3.1e-5,0.298431 -0.328308,0.567017 -0.984863,0.805786 -0.656616,0.298431 -1.134125,0.447662 -1.432526,0.447662 m 1.16394,-7.073151 c 0.119324,-0.119385 0.238708,-0.179047 0.358093,-0.179047 0.119385,-0.05972 0.23877,-0.119385 0.358154,-0.179077 l 0.62674,-0.179077 c 0.119354,-0.05969 0.387939,-0.08951 0.805786,-0.08951 l 1.432556,0 0,-1.16391 1.16394,0 0,-1.16394 0.537201,0 c -3.1e-5,-0.835663 0.119354,-1.611603 0.358124,-2.327881 0.298431,-0.716248 0.596863,-1.492218 0.895325,-2.327881 l 0.537201,0 c -3.1e-5,-0.895325 -0.0896,-1.671265 -0.268585,-2.32785 -0.179108,-0.716278 -0.268646,-1.522064 -0.268616,-2.417419 -3.1e-5,-0.596863 0.119354,-1.253448 0.358124,-1.969727 0.238739,-0.775942 0.507355,-1.462374 0.805817,-2.059267 -0.358154,-1.134094 -0.537231,-2.327881 -0.537201,-3.58136 -3.1e-5,-1.193756 0.08951,-2.357666 0.268616,-3.491791 0.179047,-1.134064 0.268555,-2.298004 0.268585,-3.491821 -0.298462,-1.193756 -0.596924,-2.238312 -0.895325,-3.133667 -0.298492,-0.954987 -0.596924,-1.880157 -0.895325,-2.775543 l -1.16394,-1.16394 0,-1.79068 c -1.25351,-0.358093 -2.357758,-0.537136 -3.312744,-0.537201 -1.731018,6.5e-5 -3.551514,0.596958 -5.461548,1.79068 -3.1e-5,1.731018 -0.23877,3.58136 -0.716278,5.551086 -0.477509,1.969757 -1.044556,3.820129 -1.701141,5.551086 0.298431,0.895355 0.477509,1.701141 0.537201,2.417389 0.05972,0.656616 0.08951,1.40271 0.08951,2.238342 0.298431,3.1e-5 0.477509,0.02991 0.537201,0.08951 0.05969,0.05978 0.08951,0.238766 0.08951,0.537197 -0.656616,1.253479 -1.074432,2.417419 -1.253479,3.491791 -0.179077,1.014742 -0.268616,2.059298 -0.268585,3.133699 -3.1e-5,1.014709 0.02979,2.059265 0.08948,3.133667 0.119385,1.074402 0.179077,2.327881 0.179077,3.760406 l 0.62674,0 c -3.1e-5,0.298462 0.08948,0.716278 0.268585,1.253448 0.238739,0.477539 0.358124,1.01474 0.358154,1.611633 l 1.16394,0 0,-0.537231 0.537201,0 0,-1.790649 1.790649,0 0,1.16394 0.537201,0 c 0,0.298462 0.02982,0.596893 0.08951,0.895325 0.05969,0.298462 0.238739,0.596893 0.537201,0.895325 0.298431,0.298462 0.447662,0.507355 0.447662,0.62674 0.05972,0.05969 0.08951,0.23877 0.08951,0.537201 m -9.938232,-26.412386 c 0.298431,-0.596828 0.477509,-1.16391 0.537201,-1.701138 0.119385,-0.596836 0.328278,-1.193729 0.62674,-1.790684 l 1.16394,0 c 0.298431,-0.596832 0.477478,-1.044495 0.537201,-1.342987 0.119354,-0.358093 0.328278,-0.686401 0.62674,-0.984863 l -0.537201,0 c -3.1e-5,-0.596863 -0.119385,-1.074371 -0.358154,-1.432556 -0.179077,-0.417755 -0.268585,-0.92514 -0.268585,-1.522064 -0.298462,0.477573 -0.477539,0.805851 -0.537201,0.984863 -3.1e-5,0.179108 -3.1e-5,0.50742 0,0.984894 l 0,0.984863 c -0.596893,0.895355 -1.074402,1.581791 -1.432556,2.059269 -0.298431,0.477535 -0.537201,0.895351 -0.716248,1.253475 -0.179077,0.358154 -0.328308,0.716278 -0.447662,1.074402 -0.05972,0.358158 -0.179077,0.835697 -0.358154,1.432526 l 1.16394,0 m -2.95459,24.621737 c 0.298431,-0.298462 0.596863,-0.567047 0.895325,-0.805817 0.298431,-0.23877 0.596893,-0.358124 0.895325,-0.358124 0,-0.835663 0.02991,-1.581757 0.08951,-2.238342 0.05969,-0.656586 0.238739,-1.283295 0.537201,-1.880219 -0.477509,-0.238739 -0.835663,-0.358124 -1.074402,-0.358124 -0.238739,0 -0.447662,0.0896 -0.62674,0.268585 -0.119385,0.119415 -0.358124,0.358154 -0.716248,0.716278 l 0,4.655762 m 27.039124,-18.712526 c 0.596825,-0.716248 1.044525,-1.283264 1.342987,-1.701141 0.298401,-0.417786 0.567017,-0.805756 0.805817,-1.163937 0.238708,-0.417789 0.447632,-0.835602 0.626732,-1.253452 0.179016,-0.477505 0.417763,-1.074371 0.716248,-1.79068 l -0.626732,0 0,0.62674 -1.16391,0 c -6.1e-5,0.596924 -0.0896,1.193817 -0.268616,1.790653 -0.179108,0.537258 -0.268646,1.104305 -0.268585,1.701141 l -0.62674,0 -0.537201,1.790676 m -0.895355,19.607851 c 0.716248,-0.656586 1.223602,-1.313171 1.522095,-1.969757 0.358093,-0.716248 0.53714,-1.730957 0.537201,-3.044128 -0.298492,0.895355 -0.805847,1.820526 -1.522095,2.775543 -0.656616,0.895355 -1.134125,1.939911 -1.432526,3.133667 0.179008,-0.119385 0.328239,-0.268585 0.447662,-0.447662 0.179047,-0.179047 0.328247,-0.328278 0.447662,-0.447662 m 2.327881,-6.715027 c 0.179047,-0.656555 0.298393,-1.134064 0.358124,-1.432526 0.05972,-0.298431 0.238731,-0.805786 0.537201,-1.522064 -0.417847,0.298462 -0.716278,0.805817 -0.895325,1.522064 -0.179108,0.716278 -0.268646,1.40271 -0.268585,2.059265 l 0,0.984863 c 0.05969,-0.596863 0.14917,-1.134064 0.268585,-1.611603 m -23.726379,-15.220705 0,-1.253448 c -0.298462,3.4e-5 -0.507355,0.05978 -0.62674,0.179077 -0.05969,0.05969 -0.23877,0.417847 -0.537201,1.074371 l 1.16394,0 m 17.011353,19.339266 0,-1.79068 c -0.298462,0.298462 -0.477539,0.62674 -0.537201,0.984863 -0.05978,0.298462 -0.0896,0.746124 -0.08948,1.343018 l 0.626709,-0.537201 m 1.701141,-18.802061 -0.537201,0 0,2.327877 0.537201,-2.327877 m -5.819672,25.248472 c 0.298431,-0.298462 0.447632,-0.477509 0.447662,-0.537201 0.05969,-0.119385 0.08951,-0.328308 0.08951,-0.62674 -0.05981,0.05969 -0.119415,0.119385 -0.179077,0.179047 -3.1e-5,0.05972 -0.02991,0.119385 -0.08948,0.179077 -0.179108,0.179077 -0.268646,0.447662 -0.268616,0.805817 m 10.564972,-18.802031 c 0.298401,0 0.447632,-0.02982 0.447662,-0.08951 0.05969,-0.05969 0.08948,-0.328278 0.08948,-0.805782 -0.05978,0.05969 -0.0896,0.119385 -0.08948,0.179047 l -0.179077,0.35812 c -0.05979,0.05972 -0.119415,0.119419 -0.179077,0.179081 -3.1e-5,0.05972 -0.02988,0.119411 -0.08948,0.179077 m -3.58136,16.47415 0.62674,-0.62674 -0.62674,0 0,0.62674"
           inkscape:connector-curvature="0"
           style="fill:#4093aa" />
        <path
           stroke="null"
           id="path3874"
           d="m 134.95926,-13.834829 c -0.2388,0.119385 -0.50739,0.328278 -0.80582,0.62674 -0.29847,0 -0.59689,-0.08951 -0.89532,-0.268616 -0.29847,-0.238739 -0.59693,-0.358124 -0.89536,-0.358124 -0.11938,0.596893 -0.23877,1.044556 -0.35811,1.342987 -0.0598,0.23877 -0.17909,0.417847 -0.35814,0.537201 -0.11938,0.05972 -0.3283,0.119385 -0.62674,0.179077 -0.23877,0.05969 -0.56707,0.149231 -0.98486,0.268616 -5e-5,-0.298462 -0.0299,-0.477509 -0.0895,-0.537231 -0.0597,-0.119354 -0.23876,-0.328278 -0.53719,-0.626709 l -0.5372,0 c -0.29846,0.596893 -0.62674,1.044556 -0.98487,1.342987 -0.35815,0.298462 -0.83566,0.447662 -1.43253,0.447662 l 0,-1.16394 -0.5372,-0.626709 c -0.65661,0.596893 -1.04458,0.955017 -1.16394,1.074402 -0.11939,0.179047 -0.32831,0.417816 -0.62674,0.716248 l -0.62674,0 -1.16391,-1.16394 c -0.41784,0.417847 -0.89535,0.62674 -1.43255,0.62674 -0.5372,0 -1.10425,-0.179047 -1.70115,-0.537201 -0.5372,-0.358124 -1.0744,-0.77594 -1.6116,-1.253448 -0.47751,-0.537201 -0.92517,-1.074402 -1.34298,-1.611603 -0.41786,-0.537201 -0.74613,-0.984863 -0.9849,-1.343018 -1.19375,-0.596893 -2.02942,-1.134094 -2.50693,-1.611603 -0.4775,-0.537201 -1.0147,-1.402679 -1.6116,-2.596466 -0.59689,0 -0.89532,-0.507355 -0.89532,-1.522064 0,-0.537201 0.0299,-1.16394 0.0895,-1.880219 0.11937,-0.77594 0.17904,-1.522034 0.17904,-2.238342 0,-0.596863 -0.0895,-1.134064 -0.26858,-1.611572 -0.11939,-0.477509 -0.41782,-0.805817 -0.89533,-0.984894 0,-1.193756 -0.0597,-2.029388 -0.17908,-2.506927 -0.0597,-0.477509 -0.38796,-1.014711 -0.98486,-1.611601 0,-0.835636 0.0299,-1.611607 0.0895,-2.327885 0.11938,-0.77594 0.17907,-1.55188 0.17907,-2.327881 0,-0.775909 -0.0895,-1.581726 -0.26862,-2.417389 l 0.53721,0 c 0.17908,-1.492188 0.29846,-2.626282 0.35816,-3.402279 0.11938,-0.835602 0.20889,-1.432499 0.26858,-1.790684 0.0597,-0.358093 0.11939,-0.566986 0.17908,-0.626709 0.11938,-0.05969 0.23874,-0.08951 0.35812,-0.08951 l -0.5372,-0.62674 0,-4.74527 1.16394,0 c 0.29843,-0.716213 0.5372,-1.283264 0.71628,-1.701141 0.17905,-0.477478 0.35812,-0.865448 0.5372,-1.16394 0.17905,-0.358093 0.38797,-0.686371 0.62674,-0.984863 0.23874,-0.358089 0.59686,-0.835598 1.0744,-1.432526 0.4775,-0.238739 1.04455,-0.507324 1.70111,-0.805817 0.65659,-0.298401 1.34301,-0.567017 2.0593,-0.805786 0.71625,-0.298401 1.43253,-0.537167 2.1488,-0.716278 0.71624,-0.238708 1.40268,-0.358093 2.05927,-0.358124 0.53717,3.1e-5 1.04452,0.0896 1.52206,0.268589 0,-0.298405 0.11935,-0.56699 0.35813,-0.80579 0.23874,-0.298401 0.50735,-0.596863 0.80581,-0.895355 1.19376,6.1e-5 1.79065,0.388031 1.79068,1.16394 0.29841,-0.298397 0.6864,-0.566986 1.16394,-0.805786 0.47748,-0.238708 0.86544,-0.358093 1.16392,-0.358154 0.71625,0.89539 1.40268,1.40274 2.0593,1.522064 0.65652,0.05981 1.25342,0.119446 1.79065,0.179081 0.59686,2.7e-5 1.10421,0.179104 1.52209,0.537197 0.47746,0.298492 0.86545,1.104279 1.16391,2.417419 l 0.5372,0 0,-1.16394 0.62674,0 c -3e-5,-3.223175 -0.11943,-6.565735 -0.35812,-10.027771 -0.17911,-3.461884 -0.26865,-6.804474 -0.26862,-10.02774 1.19376,-0.29837 2.3577,-0.596832 3.49182,-0.895325 1.13407,-0.298401 2.14876,-0.596832 3.04413,-0.895355 0.59686,0.895416 1.16391,1.671356 1.70113,2.327881 0.59688,0.596954 1.19377,1.193817 1.79069,1.790649 -6e-5,0.895416 -0.0896,1.790741 -0.26861,2.686035 -0.17911,0.895386 -0.26862,1.79071 -0.26859,2.686005 0.65651,1.074432 1.07433,2.566681 1.25343,4.476654 0.23876,1.910095 0.35811,3.969391 0.35817,6.177826 -6e-5,2.686066 -0.0896,5.312351 -0.26861,7.878937 -0.11943,2.566681 -0.17911,4.655792 -0.17908,6.267365 -3e-5,0.895355 0.0895,1.79068 0.26862,2.686005 0.23871,0.835663 0.35809,1.701145 0.35812,2.596466 -0.11941,1.01474 -0.17911,1.999603 -0.17905,2.95462 -6e-5,0.955017 -6e-5,1.939915 0,2.95459 -6e-5,1.49225 -6e-5,3.014315 0,4.566225 0.0597,1.492218 0.0895,2.984467 0.0895,4.476654 -3e-5,2.506958 -0.11938,4.954193 -0.35812,7.341766 -0.17911,2.387543 -0.62679,4.625885 -1.34299,6.714996 -0.89538,-0.298431 -1.55194,-0.746124 -1.96976,-1.342987 -0.35815,-0.596893 -0.68646,-1.343018 -0.98486,-2.238342 -3e-5,0.298462 -0.11941,0.507355 -0.35812,0.62674 -0.17913,0.05969 -0.26865,0.238739 -0.26862,0.537201 l -2.95459,0 c -0.29849,0.596893 -0.50738,1.074402 -0.62674,1.432526 -0.0598,0.358124 -0.2388,0.686432 -0.5372,0.984863 l -1.16394,0 c -3e-5,-0.656555 -0.11941,-1.253448 -0.35812,-1.79068 -0.17911,-0.596863 -0.26862,-1.193756 -0.26862,-1.790649 l 0,-0.447662 c -0.0597,0.238739 -0.17911,0.38797 -0.35812,0.447662 m -0.80579,-11.81842 c -3e-5,0.298462 0.0895,0.447662 0.26859,0.447662 0.23873,0 0.35812,-0.1492 0.35812,-0.447662 0.0597,-0.05972 0.0895,-0.1492 0.0895,-0.268616 l 0,-0.08951 -0.17908,-0.268585 c -0.11941,-0.238739 -0.17911,-0.328278 -0.17908,-0.268616 -3e-5,-0.05969 0.0895,-0.1492 0.2686,-0.268585 l -0.62672,-1.16394 c 0.11935,-0.05969 0.20889,-0.08948 0.26862,-0.08948 0.11933,0 0.2387,-0.02982 0.3581,-0.08951 l 0,-4.029024 0.53722,0 0,-1.16394 c 0.35809,-0.537167 0.53717,-1.611572 0.53719,-3.223202 -2e-5,-0.895298 -0.0598,-1.850315 -0.17907,-2.865051 -0.0598,-1.074371 -0.14926,-2.148808 -0.26858,-3.223209 -0.11942,-1.134094 -0.2388,-2.208462 -0.35817,-3.223206 -0.11937,-1.014679 -0.20891,-1.93988 -0.26859,-2.775543 -0.47752,0.23877 -0.89534,0.358154 -1.25346,0.358124 -0.35815,3.1e-5 -0.5372,-0.328247 -0.5372,-0.984859 l -0.62674,0 0,-0.447666 c 0,-0.358093 -0.0299,-0.746094 -0.0895,-1.16394 -0.0598,-0.417782 -0.20892,-0.865448 -0.44768,-1.343018 l -0.62672,0 0,1.16394 -0.62674,-0.537201 0,1.701141 -1.70113,0 c 0.17907,-0.179016 0.26857,-0.328247 0.26859,-0.447662 -2e-5,-0.119354 -0.0598,-0.208893 -0.17906,-0.268612 -0.0598,-0.0597 -0.0895,-0.208866 -0.0895,-0.447666 l -0.62674,0 c -3e-5,-0.298401 -0.0299,-0.596863 -0.0895,-0.895321 -0.0597,-0.298435 -0.23878,-0.596863 -0.53722,-0.895325 -0.29845,3.1e-5 -0.47753,-0.02982 -0.53719,-0.08951 -3e-5,-0.05969 -3e-5,-0.417786 0,-1.074402 -0.59689,0.298492 -1.01474,0.477539 -1.25348,0.537201 -0.23877,0.05978 -0.80581,0.0896 -1.70111,0.08951 l -0.62674,1.163906 -0.5372,0 0,1.16394 -0.62674,0 c -3e-5,0.596924 -0.11939,1.283356 -0.35812,2.059265 -0.17908,0.776001 -0.26865,1.462433 -0.26862,2.059296 -0.29846,0.298462 -0.50738,0.447693 -0.62675,0.447662 -0.11937,3.1e-5 -0.29845,-0.1492 -0.5372,-0.447662 0.29844,0.895355 0.47751,1.701145 0.5372,2.417389 0.0597,0.656616 0.0895,1.43256 0.0895,2.327881 -3e-5,0.596893 -0.11942,1.223663 -0.35816,1.880188 -0.17907,0.656616 -0.26858,1.40274 -0.26858,2.238342 0.17905,1.01474 0.26858,1.999603 0.26858,2.95462 0,1.134094 -0.0895,2.327881 -0.26858,3.581331 -0.11939,1.193787 -0.29846,2.387573 -0.5372,3.581329 0.29843,0.835663 0.56702,1.701172 0.80578,2.596466 0.29846,0.895355 0.5969,1.79071 0.89536,2.686035 0.29839,0 0.50732,0.119354 0.62674,0.358124 0.11935,0.23877 0.32827,0.507355 0.62671,0.805817 l 1.16393,1.16391 c 1.07441,0.298462 2.23832,0.447693 3.49183,0.447693 0.89529,0 1.79066,-0.05972 2.68601,-0.179077 0.95499,-0.179077 1.85035,-0.447662 2.68601,-0.805817 l 1.16394,-1.16391 -0.62674,-1.253479 -0.5372,0 c 0.2984,-0.298431 0.47748,-0.596893 0.5372,-0.895355 0.11935,-0.358093 0.32823,-0.835632 0.62674,-1.432526 m 7.07312,-48.437624 c -0.29846,0.298492 -0.71629,0.507416 -1.25345,0.626709 -0.53723,0.05972 -1.10428,0.238831 -1.70114,0.537201 l 0,6.53595 c 0.59686,-1.193695 1.10422,-2.357635 1.52206,-3.491791 0.47748,-1.134033 1.16391,-2.148743 2.05927,-3.044159 0,-0.29837 -0.1194,-0.477448 -0.35813,-0.537201 -0.17907,-0.119293 -0.26864,-0.328217 -0.26861,-0.626709 m -4.74529,43.155153 c -0.17906,0.537201 -0.26861,1.134094 -0.26858,1.790649 -3e-5,0.596924 0.0298,1.223663 0.0895,1.880219 0.11936,0.656586 0.17903,1.40271 0.17903,2.238342 0.65657,-1.790649 1.343,-3.312744 2.0593,-4.566223 0.71623,-1.313141 1.22359,-2.566591 1.52206,-3.760408 -0.29847,0.298492 -0.50738,0.477539 -0.62672,0.537201 -0.0598,0.05969 -0.2388,0.0896 -0.5372,0.08951 -0.29846,0.596889 -0.50739,1.163939 -0.62674,1.701139 -0.0597,0.537231 -0.2388,0.955048 -0.53722,1.253448 -1e-5,0.298462 -0.14924,0.477539 -0.44765,0.537231 -0.2388,0 -0.50738,0 -0.80583,0 l 0,-1.701141 m -22.38335,-3.581358 c -0.47751,0.716274 -0.83566,1.313198 -1.0744,1.79068 -0.23877,0.417847 -0.4477,0.805815 -0.62674,1.163939 -0.17908,0.358154 -0.35816,0.77597 -0.5372,1.253448 -0.17909,0.417847 -0.41782,0.984894 -0.71628,1.701141 l 0.53719,0 0,-0.626709 0.62675,0 c 0.29846,-0.596893 0.47751,-1.16394 0.53719,-1.701141 0.11939,-0.596893 0.32831,-1.193789 0.62675,-1.790678 0.11938,0 0.20889,-0.02982 0.26861,-0.08951 0.23874,-0.05969 0.35813,-0.238708 0.35813,-0.537201 l 0,-1.163937 m 2.32788,-20.055485 c -0.89536,1.193817 -1.61163,2.178684 -2.14881,2.95459 -0.53723,0.776001 -0.80581,1.760864 -0.80581,2.95462 0.29843,-0.656551 0.74609,-1.372833 1.34302,-2.14883 0.65655,-0.835575 0.98486,-1.701084 0.98486,-2.596436 l 0.62674,0 0,-1.163944 m 19.51832,36.619204 0,2.327881 c 0.59683,-0.895355 1.04452,-1.760834 1.34298,-2.596497 0.3581,-0.895325 0.6864,-1.790649 0.98487,-2.686005 l -0.53722,-0.626709 c -1e-5,1.730988 -0.59691,2.924744 -1.79063,3.581329 m -22.47294,-30.172792 c -0.47751,0.835693 -0.80582,1.492252 -0.98487,1.969727 -0.11938,0.417847 -0.17907,0.895359 -0.17907,1.432529 l 0,1.343014 c 0.59688,-0.596863 0.92516,-1.372833 0.98485,-2.327881 0.11939,-1.014679 0.17909,-1.820465 0.17909,-2.417389 m 24.26357,9.490543 c -0.23875,0.417843 -0.44768,0.74612 -0.62669,0.984859 -0.11942,0.179108 -0.20897,0.298462 -0.26863,0.358154 -0.11942,0.119385 -0.20896,0.208923 -0.26859,0.268585 -5e-5,0.05969 -0.0299,0.119415 -0.0895,0.179077 -5e-5,0.358154 0.20886,0.537231 0.62674,0.537201 l 0,-1.16394 0.62672,0 0.53719,-2.327881 c -0.23877,0.2388 -0.38802,0.507385 -0.44768,0.805817 -0.0598,0.05978 -0.0896,0.179108 -0.0895,0.358128 m -20.14504,3.491817 0,2.417393 0.62677,0 c -4e-5,-0.298435 -0.0299,-0.596867 -0.0895,-0.895325 -0.0597,-0.358128 -0.23876,-0.865482 -0.53719,-1.522068 m 21.8462,-7.073151 -0.53723,-0.537201 0,1.701141 c 0.29843,3.1e-5 0.44766,-0.02982 0.44769,-0.08951 0.0597,-0.05969 0.0895,-0.417786 0.0895,-1.074402 m 3.58136,6.53595 0,2.327881 c 0.29839,-0.596893 0.4476,-0.984863 0.44766,-1.163937 -6e-5,-0.119358 -0.0598,-0.268589 -0.17908,-0.447666 -0.0598,-0.179047 -0.14926,-0.417816 -0.26858,-0.716278 m -24.08454,-14.146301 0.44766,1.16394 0,-1.79068 c -0.29844,0.298492 -0.44766,0.507385 -0.44766,0.62674 m 4.02902,-7.162689 c -0.29846,0.298492 -0.47754,0.537266 -0.5372,0.716278 -0.0597,0.119419 -0.0895,0.328339 -0.0895,0.62674 -3e-5,-0.11932 0.0895,-0.268555 0.26859,-0.447662 0.23873,-0.238739 0.35812,-0.537167 0.35812,-0.895355"
           inkscape:connector-curvature="0"
           style="fill:#4093aa" />
        <path
           stroke="null"
           id="path3876"
           d="m 178.94293,-10.432547 c -0.77597,-0.298462 -1.64148,-0.537201 -2.59646,-0.716278 -3e-5,0 -0.14923,-0.08951 -0.44767,-0.268585 -0.29846,-0.179077 -0.53723,-0.596893 -0.71627,-1.253479 -0.17908,-0.05969 -0.47754,-0.119385 -0.89533,-0.179077 -0.23877,0.596893 -0.74612,0.805817 -1.52209,0.62674 -0.71625,-0.238739 -1.22364,-0.298431 -1.52207,-0.179047 -0.29843,0.298431 -0.83563,0.298431 -1.6116,0 -0.77594,-0.358154 -1.6116,-0.686432 -2.50693,-0.984894 -0.29846,-0.835632 -0.59689,-1.671295 -0.89532,-2.506927 -0.53723,-1.55191 -1.1341,-3.282898 -1.79068,-5.192932 -0.65659,-1.969727 -1.1341,-4.148376 -1.43253,-6.53595 0.17905,-1.313141 0.47751,-2.357697 0.89533,-3.133698 0.41781,-0.835602 1.52206,-2.059237 3.31274,-3.67087 1.79065,-1.611572 2.71585,-2.447205 2.77554,-2.506927 0.0597,-0.05969 0.2089,0.05981 0.44767,0.358124 1.55191,-1.492188 3.16351,-2.417389 4.8348,-2.775543 1.6713,-0.417782 3.70069,-0.626678 6.08829,-0.626709 0.59686,-0.298431 0.92514,-0.507355 0.98486,-0.62674 0.11936,-0.119354 0.17905,-0.328278 0.17905,-0.62674 0.59689,-0.298397 1.16391,-0.567013 1.70114,-0.805813 0.59686,-0.238712 1.2236,-0.358097 1.88022,-0.358128 l 0,-1.79068 c -0.29846,-1.790619 -0.44769,-3.193298 -0.44766,-4.208069 0.0597,-1.074337 -0.388,-1.70108 -1.34302,-1.880188 -0.89535,-0.238739 -1.79068,-0.447628 -2.686,-0.62674 -0.83567,-0.179047 -1.91007,-0.477478 -3.22321,-0.895325 -0.29846,3.4e-5 -0.59689,0.0896 -0.89533,0.268585 -0.29846,0.179108 -0.59692,0.26865 -0.89532,0.268616 -0.11942,0.596924 -0.2388,1.163971 -0.35816,1.701111 -0.11938,0.537262 -0.20892,1.193817 -0.26861,1.969761 -0.0597,0.716309 -0.23877,1.671322 -0.53717,2.865047 -0.41785,3.1e-5 -1.25351,0.02991 -2.50696,0.08951 0.47751,-0.0597 0.35812,-0.298405 -0.35812,-0.716282 -0.23877,-0.179012 -0.77597,-0.238708 -1.61161,-0.179043 -0.77597,0.477535 -1.76083,0.716305 -2.95462,0.716244 -1.19378,-0.05969 -2.65615,-0.238708 -4.38714,-0.537201 0,-1.31311 0.0895,-2.447205 0.26861,-3.402279 0.23874,-0.95496 0.56705,-1.820469 0.98487,-2.59647 0.41781,-0.835602 0.92517,-1.641388 1.52206,-2.417389 0.59689,-0.835602 1.25348,-1.760799 1.96976,-2.775539 0.83563,-0.895298 1.73095,-1.641392 2.686,-2.238346 0.95499,-0.656525 2.02939,-1.283264 3.22321,-1.880188 1.67126,-0.298401 3.3724,-0.656555 5.10339,-1.074402 1.79065,-0.477478 3.55149,-0.716217 5.28247,-0.716278 0.65659,6.1e-5 1.2833,0.02988 1.88022,0.08948 0.59687,0.05972 1.2236,0.208984 1.88019,0.447693 l 0,0.626709 6.53598,2.95462 c 0.11932,0.596924 0.26856,1.074467 0.44766,1.432526 0.23871,0.298492 0.47745,0.596954 0.71625,0.895355 0.2984,0.238804 0.59686,0.507385 0.89536,0.805786 0.2984,0.2388 -0.35819,0.298492 -1.96976,0.179077 2.14877,1.372894 3.10382,2.41745 2.86508,3.133671 0.59683,1.432552 0.86545,2.745724 0.80582,3.93948 -6e-5,0.477539 -0.0896,1.40271 -0.26862,2.775543 -0.11941,1.313171 -0.41785,1.939911 -0.89532,1.880188 -6e-5,3.044159 -0.0896,4.148407 -0.26862,3.312744 0.41779,3.461975 0.62671,5.968933 0.62674,7.520813 -3e-5,1.49225 0.0298,2.566652 0.0895,3.223207 -3e-5,0.895355 -0.14926,1.671326 -0.44766,2.327881 -0.0598,0 0.0895,0.0896 0.44766,0.268616 -0.11942,1.79068 -0.26865,2.17865 -0.44766,1.16391 -0.17911,2.148834 -0.47757,3.491821 -0.89536,4.028992 l 0.5372,1.522095 0.71628,1.79068 1.16394,0 c -3e-5,1.193787 -3e-5,2.387543 0,3.581329 0.0597,1.134094 0.23871,2.298035 0.5372,3.491821 l -3.7604,0 c -0.95505,0 -1.9101,-0.05972 -2.86509,-0.179077 -0.95504,-0.119385 -1.88022,-0.328308 -2.77554,-0.62674 -0.83566,-0.358124 -1.58179,-0.835632 -2.23831,-1.432526 -0.59693,-0.656586 -1.04462,-1.492249 -1.34302,-2.506958 l -1.79068,0 c -0.59689,0.596893 -1.10428,1.16394 -1.52206,1.701141 -0.41785,0.477509 -0.83567,0.955017 -1.25345,1.432526 -0.35819,0.417847 -0.80585,0.805817 -1.34302,1.16394 -0.47754,0.417816 -1.07443,0.77597 -1.79068,1.074402 m -1.70114,-8.326599 c 0.35812,-0.179077 0.6864,-0.268616 0.98486,-0.268616 0.29843,0 0.56705,0.05969 0.80582,0.179077 0.29843,0.05969 0.6864,0.08951 1.16394,0.08951 0.29843,-0.298462 0.6864,-0.686432 1.16394,-1.16394 0.53717,-0.477509 1.13406,-0.865479 1.79068,-1.16394 0.71622,-1.193756 1.28326,-2.357697 1.70111,-3.491821 0.41782,-1.193756 0.71625,-2.417389 0.89536,-3.670868 0.17901,-1.253448 0.26855,-2.536774 0.26858,-3.849943 0.0597,-1.372807 0.0895,-2.835209 0.0895,-4.387119 -0.11942,3.1e-5 -0.23877,3.1e-5 -0.35813,0 -0.11941,-0.05972 -0.26864,-0.08951 -0.44769,-0.08951 -0.65658,3.4e-5 -1.43255,0.119415 -2.32788,0.358124 -0.89532,0.179108 -1.79068,0.477539 -2.68597,0.895355 -0.89536,0.358154 -1.70118,0.865509 -2.41742,1.522064 -0.65659,0.596924 -1.0744,1.283325 -1.25345,2.059267 -1.37286,0.716278 -2.23837,1.462402 -2.5965,2.238342 -0.29846,0.716278 -0.44766,1.701141 -0.44766,2.95459 0,0.417847 0,0.895355 0,1.432556 0.0597,0.477509 0.0895,1.014709 0.0895,1.611603 0.29843,0 0.47751,0.02991 0.5372,0.08951 0.11935,0.05969 0.32828,0.23877 0.62674,0.537201 -0.29846,0.596893 -0.56708,1.074402 -0.80582,1.432526 -0.23877,0.298462 -0.35812,0.596893 -0.35812,0.895325 l 0.62674,0.62674 c 1.13406,0.298462 1.82049,0.507385 2.05926,0.62674 0.29843,0.119385 0.5969,0.298462 0.89533,0.537201 m 7.61035,-38.947081 c 0.65656,6.1e-5 1.13406,-0.238712 1.43256,-0.716282 0.35809,-0.53714 0.6864,-1.104187 0.98486,-1.701111 -0.59692,3.1e-5 -1.16397,-0.08951 -1.70114,-0.268616 -0.53723,-0.179012 -0.95505,-0.268555 -1.25348,-0.268585 l 0,0.895325 c -3e-5,0.47757 -3e-5,0.835693 0,1.074402 0.0597,0.179108 0.23874,0.507416 0.5372,0.984867 m 5.90921,43.065611 c 0.29843,0 0.59686,-0.08948 0.89536,-0.268585 0.2984,-0.179077 0.59686,-0.268585 0.89532,-0.268616 -0.29846,-0.298431 -0.47754,-0.596863 -0.5372,-0.895325 -3e-5,-0.358124 -3e-5,-0.865479 0,-1.522064 -0.65662,0.298462 -1.16397,0.477509 -1.52206,0.537201 -0.2985,0.05969 -0.59693,0.08951 -0.89533,0.08951 l 0,1.16391 c -3e-5,0.298462 0.11932,0.507355 0.35812,0.62674 0.23871,0.05969 0.50733,0.23877 0.80579,0.537201 m 0.62674,-21.219454 c 0.29843,-0.298401 0.59686,-0.477478 0.89536,-0.537201 0.2984,-0.05969 0.59683,-0.08948 0.89532,-0.08948 -3e-5,-0.596893 0.23871,-1.402676 0.71628,-2.417419 0.53714,-1.014679 0.98483,-2.566589 1.34299,-4.655731 -2.08915,2.984467 -3.28293,4.77515 -3.58133,5.372009 -0.2985,0.537231 -0.59693,1.104248 -0.89536,1.701141 0.11936,3.1e-5 0.20889,0.02988 0.26862,0.08948 0.23871,0.05972 0.35809,0.2388 0.35812,0.537201 m -11.19168,-19.518311 0.5372,-1.16391 c -0.59692,3.1e-5 -1.07443,0.02988 -1.43255,0.08948 -0.29847,6.1e-5 -0.5969,0.149292 -0.89533,0.447693 l 0,0.626713 1.79068,0 m 14.1463,41.3645 0,-0.62674 c -0.2388,-0.238739 -0.47754,-0.38797 -0.71628,-0.447662 -0.1791,-0.05969 -0.32833,-0.208923 -0.44766,-0.447662 l 0,1.522064 1.16394,0 m -0.62674,-13.877686 c 0.8953,-0.895325 1.4325,-1.402679 1.61161,-1.522095 0.17901,-0.179016 0.41778,-0.268585 0.71624,-0.268585 l 0.4477,-3.849943 c -4e-5,-1.730957 -0.26865,-1.760807 -0.80582,-0.08948 -0.53723,1.611603 -0.80582,2.715853 -0.80579,3.312716 l -1.16394,0 0,2.417419 m -0.62674,2.327881 1.16394,0 -0.5372,-1.16394 c -0.29849,0 -0.47754,0.05969 -0.5372,0.179047 -0.0597,0.05981 -0.0896,0.388 -0.0895,0.984894 m -22.47293,-8.595217 c -0.59689,0.298462 -1.19378,0.686432 -1.79065,1.16394 -0.5372,0.417816 -1.13409,0.626743 -1.79068,0.626713 l -1.16394,2.954618 4.74527,-4.745272 m -0.44766,4.83481 -0.62671,-0.62674 -0.62674,0 c -0.41785,1.193787 -0.74612,2.148804 -0.98489,2.865082 -0.23874,0.656586 -0.41782,1.223633 -0.5372,1.701111 -0.11936,0.477539 -0.23874,0.955048 -0.35813,1.432556 -0.11938,0.417816 -0.26861,0.984863 -0.44766,1.701111 0.59689,-0.596863 0.98486,-1.16391 1.16394,-1.701111 0.17905,-0.537201 0.56702,-0.955017 1.16394,-1.253479 l 0,-3.581329 1.25345,0 0,-0.537201"
           inkscape:connector-curvature="0"
           style="fill:#4093aa" />
      </g>
    </g>
  </g>
</svg>
