<?xml version="1.0"?>
<svg width="356.1" height="154.65" xmlns="http://www.w3.org/2000/svg">
 <!-- Created with Method Draw - http://github.com/duopixel/Method-Draw/ -->
 <g>
  <title>Layer 1</title>
  <path fill="#ffffff" fill-rule="nonzero" id="path294" d="m202.559998,133.237488l6.783752,0l0,-3.392548l-6.783752,0l0,3.392548z"/>
  <path fill="#ffffff" fill-rule="nonzero" id="path296" d="m223.148743,133.237488l13.804993,0l0,-3.392487l-13.804993,0l0,3.392487zm27.610046,0l13.804993,0l0,-3.392487l-13.804993,0l0,3.392487zm27.609924,0l13.805054,0l0,-3.392487l-13.805054,0l0,3.392487zm27.610046,0l13.805054,0l0,-3.392487l-13.805054,0"/>
  <path fill="#ffffff" fill-rule="nonzero" id="path298" d="m333.590027,133.237488l6.784241,0l0,-3.392548l-6.784241,0l0,3.392548z"/>
  <path fill="#505256" fill-rule="nonzero" id="path302" d="m234.34375,113.579987l-7.97998,0c-0.446228,0 -0.809998,0.304993 -0.809998,0.681274l0,2.492462c0,0.376251 0.36377,0.681244 0.809998,0.681244l7.97998,0c0.450073,0 0.8125,-0.304993 0.8125,-0.681244l0,-2.492462c0,-0.376282 -0.362427,-0.681274 -0.8125,-0.681274"/>
  <path fill="#505256" fill-rule="nonzero" id="path304" d="m289.723755,110.179993c-5.471252,0 -9.923767,4.452545 -9.923767,9.923798c0,5.469971 4.452515,9.919983 9.923767,9.919983c5.46875,0 9.919983,-4.450012 9.919983,-9.919983c0,-5.471252 -4.451233,-9.923798 -9.919983,-9.923798"/>
  <path fill="#ffffff" fill-rule="nonzero" id="path306" d="m289.723755,124.106232c-2.20874,0 -4.006226,-1.794983 -4.006226,-4.002502c0,-2.210022 1.797485,-4.006226 4.006226,-4.006226c2.206299,0 4.005066,1.796204 4.005066,4.006226c0,2.20752 -1.798767,4.002502 -4.005066,4.002502"/>
  <path fill="#505256" fill-rule="nonzero" id="path308" d="m248.631226,110.181213c-5.469971,0 -9.922485,4.451233 -9.922485,9.922516c0,5.470032 4.452515,9.920044 9.922485,9.920044c5.46875,0 9.921265,-4.450012 9.921265,-9.920044c0,-5.471283 -4.452515,-9.922516 -9.921265,-9.922516"/>
  <path fill="#ffffff" fill-rule="nonzero" id="path310" d="m248.631226,124.106232c-2.20752,0 -4.006226,-1.794983 -4.006226,-4.002502c0,-2.210022 1.798706,-4.006226 4.006226,-4.006226c2.206299,0 4.005066,1.796204 4.005066,4.006226c0,2.20752 -1.798767,4.002502 -4.005066,4.002502"/>
  <path fill="#d5e9e3" fill-rule="nonzero" id="path312" d="m316.397583,106.059967c-1.327515,0 -2.403809,1.16745 -2.403809,2.606262c0,1.43869 1.076294,2.606293 2.403809,2.606293c0.351257,0 0.681213,-0.085083 0.982422,-0.231323c-0.022461,-1.756287 -0.144958,-3.501282 -0.453735,-4.912506c-0.169983,-0.04248 -0.344971,-0.068726 -0.528687,-0.068726"/>
  <path fill="#f0531d" fill-rule="nonzero" id="path314" d="m313.993774,108.666229c0,-1.438751 1.076294,-2.606262 2.403809,-2.606262c0.183716,0 0.358704,0.026245 0.528687,0.068817c-0.161255,-0.731293 -0.368774,-1.376343 -0.641235,-1.88385c-2.037476,-3.786255 -22.892517,-5.904938 -22.892517,-5.904938c0,0 -11.554932,-14.192505 -13.368713,-15.235046c-1.813782,-1.043732 -7.617554,-1.478729 -13.602539,-1.478729c-5.986206,0 -14.097473,0.40625 -15.466187,1.776245c-1.369995,1.370026 -11.1875,10.873718 -13.294983,15.365021c-0.303833,0.647491 -4.802551,0.40625 -6.966248,0.40625c-2.1651,0 -2.572571,19.918762 -2.573853,19.918762c-0.091248,0.25 -0.057495,0.529968 0.095032,0.746216c0.151245,0.21875 0.401245,0.348755 0.666321,0.348755l7.924927,0l-0.004944,-0.08374c0,-6.523743 5.307434,-11.830017 11.829956,-11.830017c6.52124,0 11.827576,5.306274 11.827576,11.830017l-0.002563,0.08374l17.442505,0l-0.006287,-0.08374c0,-6.523743 5.307495,-11.830017 11.831238,-11.830017c6.52124,0 11.827515,5.306274 11.827515,11.830017l-0.002502,0.08374l14.539978,0c0.448853,0 0.8125,-0.36377 0.8125,-0.8125c0,0 0.525085,-4.193726 0.47876,-8.333771c-0.301208,0.14624 -0.631165,0.231323 -0.982422,0.231323c-1.327515,0 -2.403809,-1.167603 -2.403809,-2.606293"/>
  <path fill="#d5e9e3" fill-rule="nonzero" id="path316" d="m264.392578,98.598724c0,0.223755 -0.182495,0.40625 -0.406311,0.40625l-21.727478,0c-0.160034,0 -0.306274,-0.096283 -0.369934,-0.241302c-0.066345,-0.148712 -0.038757,-0.318695 0.071167,-0.437469l10.766296,-12.949982c0.074951,-0.084991 0.183716,-0.133759 0.299988,-0.133759l11.007446,-0.016266c0.223755,0 0.40625,0.181274 0.40625,0.406281l-0.047424,12.966248"/>
  <path fill="#d5e9e3" fill-rule="nonzero" id="path318" d="m288.748779,98.776184c-0.066223,0.140076 -0.20752,0.22879 -0.36377,0.22879l-20.899963,0c-0.222534,0 -0.40625,-0.182495 -0.40625,-0.40625l-0.149963,-12.918793c0,-0.223755 0.181274,-0.404968 0.403687,-0.404968l11.45874,0.098724c0.125,0 0.243774,0.056244 0.318787,0.153748l9.59375,12.819977c0.096252,0.122528 0.11377,0.288757 0.044983,0.428772"/>
  <path fill="#d5e9e3" fill-rule="nonzero" id="path320" d="m316.317505,120.747467l-14.807495,0c0.026245,-1.715027 -0.26123,-3.3125 -0.26123,-3.3125l15.851196,0c0,0 -0.032471,3.3125 -0.782471,3.3125"/>
  <path fill="#c9332b" fill-rule="nonzero" id="path418" d="m133.507568,93.064972l-102.260071,0l0,-17.60379l102.260071,0l0,17.60379zm-2.724976,14.787445l-18.380066,0l0,-12.07489l18.380066,0l0,12.07489zm-20.968811,0l-18.381287,0l0,-12.07489l18.381287,0l0,12.07489zm-20.971252,0l-18.380005,0l0,-12.07489l18.380005,0l0,12.07489zm-39.350037,-50.419922l18.380005,0l0,12.073669l-18.380005,0l0,-12.073669zm20.96875,0l18.380005,0l0,12.073669l-18.380005,0l0,-12.073669zm20.970032,0l18.381226,0l0,12.073669l-18.381226,0l0,-12.073669zm20.971252,0l18.378723,0l0,12.073669l-18.378723,0l0,-12.073669zm12.880005,-6.131287l-84.915039,0c-4.212463,0 -7.834961,2.517456 -9.452515,6.131287l16.123779,0l0,12.073669l-17.025024,0l0,26.271362l18.381287,0l0,12.07489l-18.381287,0l0,11.360077l3.128784,0.01123c1.241272,-3.76001 4.793762,-6.482483 8.977478,-6.482483c4.212524,0 7.776245,2.752502 8.998779,6.55368l1.357483,0.01004l0,-22.95752l15.873779,0l0,23.018799l41.422485,0.17749c1.138733,-3.92627 4.772461,-6.80249 9.071228,-6.80249c4.327515,0 7.971313,2.908752 9.080017,6.875l7.714966,0.029938l0,-57.98999c0,-5.726257 -4.628723,-10.35498 -10.356201,-10.35498"/>
  <path fill="#99dad6" fill-rule="nonzero" id="path420" d="m47.038757,57.432495l0,12.073669l-17.025024,0l0,-7.849976c0,-1.51001 0.323792,-2.940002 0.901245,-4.223694l16.123779,0"/>
  <path fill="#ffffff" fill-rule="nonzero" id="path422" d="m124.797546,122.184937c0,3.292511 -2.671326,5.953766 -5.953796,5.953766c-3.293701,0 -5.953735,-2.661255 -5.953735,-5.953766c0,-0.942474 0.216248,-1.83371 0.618774,-2.630005c0.963745,-1.968719 2.993774,-3.324982 5.334961,-3.324982c2.348755,0 4.390076,1.377502 5.353821,3.366272c0.392456,0.786255 0.599976,1.664948 0.599976,2.588715"/>
  <path fill="#182533" fill-rule="nonzero" id="path424" d="m118.84375,128.138763c-3.293701,0 -5.953735,-2.661285 -5.953735,-5.953735c0,-0.942505 0.216248,-1.83374 0.618774,-2.631317c0.963745,-1.967468 2.993774,-3.3237 5.334961,-3.3237c2.348755,0 4.390076,1.377502 5.353821,3.36499c0.392456,0.787537 0.599976,1.667542 0.599976,2.590027c0,3.29245 -2.671326,5.953735 -5.953796,5.953735m9.080017,-8.522522c-1.108704,-3.966248 -4.752502,-6.875 -9.080017,-6.875c-4.298767,0 -7.932495,2.877502 -9.071228,6.802551c-0.248718,0.838745 -0.383789,1.71875 -0.383789,2.641235c0,5.22876 4.235107,9.453735 9.455017,9.453735c5.216248,0 9.442566,-4.224976 9.442566,-9.453735c0,-0.891235 -0.122559,-1.751282 -0.362549,-2.568787"/>
  <path fill="#182533" fill-rule="nonzero" id="path426" d="m42.162476,128.138763c-3.293762,0 -5.953735,-2.661285 -5.953735,-5.953735c0,-0.942505 0.214966,-1.83374 0.617493,-2.631317c0.963745,-1.967468 2.994995,-3.3237 5.336243,-3.3237c2.349976,0 4.388733,1.377502 5.352478,3.36499c0.392517,0.787537 0.601257,1.667542 0.601257,2.590027c0,3.29245 -2.671265,5.953735 -5.953735,5.953735m9.080017,-8.522522c-1.108765,-3.966248 -4.751282,-6.875 -9.080017,-6.875c-4.297485,0 -7.932495,2.877502 -9.07251,6.802551c-0.248718,0.838745 -0.383728,1.71875 -0.383728,2.641235c0,5.22876 4.234985,9.453735 9.456238,9.453735c5.217529,0 9.441223,-4.224976 9.441223,-9.453735c0,-0.891235 -0.122498,-1.751282 -0.361206,-2.568787"/>
  <path fill="#182533" fill-rule="nonzero" id="path428" d="m68.351257,96.347504l0,23.02002l-0.609985,0l-15.265015,-0.06131l0,-22.95871l15.875,0"/>
  <path fill="#99dad6" fill-rule="nonzero" id="path430" d="m49.492493,69.506226l18.379883,0l0,-12.074219l-18.379883,0l0,12.074219z"/>
  <path fill="#99dad6" fill-rule="nonzero" id="path432" d="m30.013733,107.852478l18.381348,0l0,-12.075195l-18.381348,0l0,12.075195z"/>
  <path fill="#99dad6" fill-rule="nonzero" id="path434" d="m70.462524,107.852478l18.379883,0l0,-12.075195l-18.379883,0l0,12.075195z"/>
  <path fill="#99dad6" fill-rule="nonzero" id="path436" d="m70.462524,69.506226l18.379883,0l0,-12.074219l-18.379883,0l0,12.074219z"/>
  <path fill="#99dad6" fill-rule="nonzero" id="path438" d="m91.432495,69.506226l18.381348,0l0,-12.074219l-18.381348,0l0,12.074219z"/>
  <path fill="#99dad6" fill-rule="nonzero" id="path440" d="m91.432495,107.852478l18.381348,0l0,-12.075195l-18.381348,0l0,12.075195z"/>
  <path fill="#99dad6" fill-rule="nonzero" id="path442" d="m112.402527,69.506226l18.380432,0l0,-12.074219l-18.380432,0l0,12.074219z"/>
  <path fill="#99dad6" fill-rule="nonzero" id="path444" d="m112.402527,107.852478l18.380432,0l0,-12.075195l-18.380432,0l0,12.075195z"/>
  <path fill="#182533" fill-rule="nonzero" id="path446" d="m31.247498,93.064972l102.259766,0l0,-17.604004l-102.259766,0l0,17.604004z"/>
 </g>
</svg>